# Defib_Tube
mtllib MiniVan_Defib_Tube.mtl
o Defib_Tube
v -0.070000 -0.025000 0.165000
v 0.070000 -0.025000 0.165000
v 0.070000 0.025000 0.165000
v -0.070000 0.025000 0.165000
v -0.070000 -0.025000 0.275000
v 0.070000 -0.025000 0.275000
v 0.070000 0.025000 0.275000
v -0.070000 0.025000 0.275000
v -0.072500 -0.038000 0.162500
v 0.072500 -0.038000 0.162500
v 0.072500 -0.018000 0.162500
v -0.072500 -0.018000 0.162500
v -0.072500 -0.038000 0.277500
v 0.072500 -0.038000 0.277500
v 0.072500 -0.018000 0.277500
v -0.072500 -0.018000 0.277500
v -0.055000 -0.044000 0.177500
v 0.055000 -0.044000 0.177500
v 0.055000 -0.032000 0.177500
v -0.055000 -0.032000 0.177500
v -0.055000 -0.044000 0.262500
v 0.055000 -0.044000 0.262500
v 0.055000 -0.032000 0.262500
v -0.055000 -0.032000 0.262500
v -0.027500 0.038567 -0.004582
v 0.027500 0.038567 -0.004582
v 0.027500 0.090875 0.012413
v -0.027500 0.090875 0.012413
v -0.027500 -0.010875 0.147587
v 0.027500 -0.010875 0.147587
v 0.027500 0.041433 0.164582
v -0.027500 0.041433 0.164582
v -0.029000 0.041325 -0.001759
v 0.029000 0.041325 -0.001759
v 0.029000 0.096486 0.016164
v -0.029000 0.096486 0.016164
v -0.029000 0.013514 0.083836
v 0.029000 0.013514 0.083836
v 0.029000 0.068675 0.101759
v -0.029000 0.068675 0.101759
v -0.030000 0.053692 0.014318
v 0.030000 0.053692 0.014318
v 0.030000 0.059398 0.016172
v -0.030000 0.059398 0.016172
v -0.030000 0.050602 0.023828
v 0.030000 0.050602 0.023828
v 0.030000 0.056308 0.025682
v -0.030000 0.056308 0.025682
v -0.030000 0.055692 0.026318
v 0.030000 0.055692 0.026318
v 0.030000 0.061398 0.028172
v -0.030000 0.061398 0.028172
v -0.030000 0.052602 0.035828
v 0.030000 0.052602 0.035828
v 0.030000 0.058308 0.037682
v -0.030000 0.058308 0.037682
v -0.030000 0.057692 0.038318
v 0.030000 0.057692 0.038318
v 0.030000 0.063398 0.040172
v -0.030000 0.063398 0.040172
v -0.030000 0.054602 0.047828
v 0.030000 0.054602 0.047828
v 0.030000 0.060308 0.049682
v -0.030000 0.060308 0.049682
v -0.030000 0.059692 0.050318
v 0.030000 0.059692 0.050318
v 0.030000 0.065398 0.052172
v -0.030000 0.065398 0.052172
v -0.030000 0.056602 0.059828
v 0.030000 0.056602 0.059828
v 0.030000 0.062308 0.061682
v -0.030000 0.062308 0.061682
v -0.030000 0.061692 0.062318
v 0.030000 0.061692 0.062318
v 0.030000 0.067398 0.064172
v -0.030000 0.067398 0.064172
v -0.030000 0.058602 0.071828
v 0.030000 0.058602 0.071828
v 0.030000 0.064308 0.073682
v -0.030000 0.064308 0.073682
v -0.030000 0.063692 0.074318
v 0.030000 0.063692 0.074318
v 0.030000 0.069398 0.076172
v -0.030000 0.069398 0.076172
v -0.030000 0.060602 0.083828
v 0.030000 0.060602 0.083828
v 0.030000 0.066308 0.085682
v -0.030000 0.066308 0.085682
v -0.017500 0.088215 0.043133
v 0.017500 0.088215 0.043133
v 0.017500 0.107236 0.049314
v -0.017500 0.107236 0.049314
v -0.017500 0.072764 0.090686
v 0.017500 0.072764 0.090686
v 0.017500 0.091785 0.096867
v -0.017500 0.091785 0.096867
v -0.006000 0.063000 0.145000
v 0.006000 0.063000 0.145000
v 0.006000 0.067000 0.145000
v -0.006000 0.067000 0.145000
v -0.006000 0.063000 0.165000
v 0.006000 0.063000 0.165000
v 0.006000 0.067000 0.165000
v -0.006000 0.067000 0.165000
v -0.006000 0.063000 0.141000
v -0.002000 0.063000 0.141000
v -0.002000 0.067000 0.141000
v -0.006000 0.067000 0.141000
v -0.006000 0.063000 0.169000
v -0.002000 0.063000 0.169000
v -0.002000 0.067000 0.169000
v -0.006000 0.067000 0.169000
v 0.020000 0.070000 0.146000
v 0.020000 0.070000 0.146000
v 0.020000 0.070000 0.146000
v 0.020000 0.070000 0.146000
v 0.020000 0.070000 0.146000
v 0.020000 0.070000 0.146000
v 0.020000 0.070000 0.146000
v 0.020000 0.070000 0.146000
v 0.023000 0.070000 0.145196
v 0.022121 0.072121 0.145196
v 0.020000 0.073000 0.145196
v 0.017879 0.072121 0.145196
v 0.017000 0.070000 0.145196
v 0.017879 0.067879 0.145196
v 0.020000 0.067000 0.145196
v 0.022121 0.067879 0.145196
v 0.025196 0.070000 0.143000
v 0.023674 0.073674 0.143000
v 0.020000 0.075196 0.143000
v 0.016326 0.073674 0.143000
v 0.014804 0.070000 0.143000
v 0.016326 0.066326 0.143000
v 0.020000 0.064804 0.143000
v 0.023674 0.066326 0.143000
v 0.026000 0.070000 0.140000
v 0.024243 0.074243 0.140000
v 0.020000 0.076000 0.140000
v 0.015757 0.074243 0.140000
v 0.014000 0.070000 0.140000
v 0.015757 0.065757 0.140000
v 0.020000 0.064000 0.140000
v 0.024243 0.065757 0.140000
v 0.025196 0.070000 0.137000
v 0.023674 0.073674 0.137000
v 0.020000 0.075196 0.137000
v 0.016326 0.073674 0.137000
v 0.014804 0.070000 0.137000
v 0.016326 0.066326 0.137000
v 0.020000 0.064804 0.137000
v 0.023674 0.066326 0.137000
v 0.023000 0.070000 0.134804
v 0.022121 0.072121 0.134804
v 0.020000 0.073000 0.134804
v 0.017879 0.072121 0.134804
v 0.017000 0.070000 0.134804
v 0.017879 0.067879 0.134804
v 0.020000 0.067000 0.134804
v 0.022121 0.067879 0.134804
v 0.020000 0.070000 0.134000
v 0.020000 0.070000 0.134000
v 0.020000 0.070000 0.134000
v 0.020000 0.070000 0.134000
v 0.020000 0.070000 0.134000
v 0.020000 0.070000 0.134000
v 0.020000 0.070000 0.134000
v 0.020000 0.070000 0.134000
v -0.020000 0.070000 0.146000
v -0.020000 0.070000 0.146000
v -0.020000 0.070000 0.146000
v -0.020000 0.070000 0.146000
v -0.020000 0.070000 0.146000
v -0.020000 0.070000 0.146000
v -0.020000 0.070000 0.146000
v -0.020000 0.070000 0.146000
v -0.017000 0.070000 0.145196
v -0.017879 0.072121 0.145196
v -0.020000 0.073000 0.145196
v -0.022121 0.072121 0.145196
v -0.023000 0.070000 0.145196
v -0.022121 0.067879 0.145196
v -0.020000 0.067000 0.145196
v -0.017879 0.067879 0.145196
v -0.014804 0.070000 0.143000
v -0.016326 0.073674 0.143000
v -0.020000 0.075196 0.143000
v -0.023674 0.073674 0.143000
v -0.025196 0.070000 0.143000
v -0.023674 0.066326 0.143000
v -0.020000 0.064804 0.143000
v -0.016326 0.066326 0.143000
v -0.014000 0.070000 0.140000
v -0.015757 0.074243 0.140000
v -0.020000 0.076000 0.140000
v -0.024243 0.074243 0.140000
v -0.026000 0.070000 0.140000
v -0.024243 0.065757 0.140000
v -0.020000 0.064000 0.140000
v -0.015757 0.065757 0.140000
v -0.014804 0.070000 0.137000
v -0.016326 0.073674 0.137000
v -0.020000 0.075196 0.137000
v -0.023674 0.073674 0.137000
v -0.025196 0.070000 0.137000
v -0.023674 0.066326 0.137000
v -0.020000 0.064804 0.137000
v -0.016326 0.066326 0.137000
v -0.017000 0.070000 0.134804
v -0.017879 0.072121 0.134804
v -0.020000 0.073000 0.134804
v -0.022121 0.072121 0.134804
v -0.023000 0.070000 0.134804
v -0.022121 0.067879 0.134804
v -0.020000 0.067000 0.134804
v -0.017879 0.067879 0.134804
v -0.020000 0.070000 0.134000
v -0.020000 0.070000 0.134000
v -0.020000 0.070000 0.134000
v -0.020000 0.070000 0.134000
v -0.020000 0.070000 0.134000
v -0.020000 0.070000 0.134000
v -0.020000 0.070000 0.134000
v -0.020000 0.070000 0.134000
usemtl Tube_Cream
f 1 2 3 4
f 5 8 7 6
f 1 5 6 2
f 2 6 7 3
f 3 7 8 4
f 4 8 5 1
usemtl Tube_Red
f 9 10 11 12
f 13 16 15 14
f 9 13 14 10
f 10 14 15 11
f 11 15 16 12
f 12 16 13 9
usemtl Tube_Silver
f 17 18 19 20
f 21 24 23 22
f 17 21 22 18
f 18 22 23 19
f 19 23 24 20
f 20 24 21 17
usemtl Tube_Cream
f 25 26 27 28
f 29 32 31 30
f 25 29 30 26
f 26 30 31 27
f 27 31 32 28
f 28 32 29 25
usemtl Tube_Dark
f 33 34 35 36
f 37 40 39 38
f 33 37 38 34
f 34 38 39 35
f 35 39 40 36
f 36 40 37 33
f 41 42 43 44
f 45 48 47 46
f 41 45 46 42
f 42 46 47 43
f 43 47 48 44
f 44 48 45 41
f 49 50 51 52
f 53 56 55 54
f 49 53 54 50
f 50 54 55 51
f 51 55 56 52
f 52 56 53 49
f 57 58 59 60
f 61 64 63 62
f 57 61 62 58
f 58 62 63 59
f 59 63 64 60
f 60 64 61 57
f 65 66 67 68
f 69 72 71 70
f 65 69 70 66
f 66 70 71 67
f 67 71 72 68
f 68 72 69 65
f 73 74 75 76
f 77 80 79 78
f 73 77 78 74
f 74 78 79 75
f 75 79 80 76
f 76 80 77 73
f 81 82 83 84
f 85 88 87 86
f 81 85 86 82
f 82 86 87 83
f 83 87 88 84
f 84 88 85 81
usemtl Tube_Red
f 89 90 91 92
f 93 96 95 94
f 89 93 94 90
f 90 94 95 91
f 91 95 96 92
f 92 96 93 89
f 97 98 99 100
f 101 104 103 102
f 97 101 102 98
f 98 102 103 99
f 99 103 104 100
f 100 104 101 97
f 105 106 107 108
f 109 112 111 110
f 105 109 110 106
f 106 110 111 107
f 107 111 112 108
f 108 112 109 105
usemtl Tube_LED_G
f 113 114 122 121
f 114 115 123 122
f 115 116 124 123
f 116 117 125 124
f 117 118 126 125
f 118 119 127 126
f 119 120 128 127
f 120 113 121 128
f 121 122 130 129
f 122 123 131 130
f 123 124 132 131
f 124 125 133 132
f 125 126 134 133
f 126 127 135 134
f 127 128 136 135
f 128 121 129 136
f 129 130 138 137
f 130 131 139 138
f 131 132 140 139
f 132 133 141 140
f 133 134 142 141
f 134 135 143 142
f 135 136 144 143
f 136 129 137 144
f 137 138 146 145
f 138 139 147 146
f 139 140 148 147
f 140 141 149 148
f 141 142 150 149
f 142 143 151 150
f 143 144 152 151
f 144 137 145 152
f 145 146 154 153
f 146 147 155 154
f 147 148 156 155
f 148 149 157 156
f 149 150 158 157
f 150 151 159 158
f 151 152 160 159
f 152 145 153 160
f 153 154 162 161
f 154 155 163 162
f 155 156 164 163
f 156 157 165 164
f 157 158 166 165
f 158 159 167 166
f 159 160 168 167
f 160 153 161 168
usemtl Tube_LED_R
f 169 170 178 177
f 170 171 179 178
f 171 172 180 179
f 172 173 181 180
f 173 174 182 181
f 174 175 183 182
f 175 176 184 183
f 176 169 177 184
f 177 178 186 185
f 178 179 187 186
f 179 180 188 187
f 180 181 189 188
f 181 182 190 189
f 182 183 191 190
f 183 184 192 191
f 184 177 185 192
f 185 186 194 193
f 186 187 195 194
f 187 188 196 195
f 188 189 197 196
f 189 190 198 197
f 190 191 199 198
f 191 192 200 199
f 192 185 193 200
f 193 194 202 201
f 194 195 203 202
f 195 196 204 203
f 196 197 205 204
f 197 198 206 205
f 198 199 207 206
f 199 200 208 207
f 200 193 201 208
f 201 202 210 209
f 202 203 211 210
f 203 204 212 211
f 204 205 213 212
f 205 206 214 213
f 206 207 215 214
f 207 208 216 215
f 208 201 209 216
f 209 210 218 217
f 210 211 219 218
f 211 212 220 219
f 212 213 221 220
f 213 214 222 221
f 214 215 223 222
f 215 216 224 223
f 216 209 217 224
