# Defib_Suitcase
mtllib MiniVan_Defib_Suitcase.mtl
o Defib_Suitcase
v -0.240000 -0.170000 0.000000
v 0.240000 -0.170000 0.000000
v 0.240000 0.170000 0.000000
v -0.240000 0.170000 0.000000
v -0.240000 -0.170000 0.140000
v 0.240000 -0.170000 0.140000
v 0.240000 0.170000 0.140000
v -0.240000 0.170000 0.140000
v -0.220000 -0.150000 0.110000
v 0.220000 -0.150000 0.110000
v 0.220000 0.150000 0.110000
v -0.220000 0.150000 0.110000
v -0.220000 -0.150000 0.130000
v 0.220000 -0.150000 0.130000
v 0.220000 0.150000 0.130000
v -0.220000 0.150000 0.130000
v -0.250000 -0.175000 0.007500
v -0.190000 -0.175000 0.007500
v -0.190000 -0.125000 0.007500
v -0.250000 -0.125000 0.007500
v -0.250000 -0.175000 0.052500
v -0.190000 -0.175000 0.052500
v -0.190000 -0.125000 0.052500
v -0.250000 -0.125000 0.052500
v 0.190000 -0.175000 0.007500
v 0.250000 -0.175000 0.007500
v 0.250000 -0.125000 0.007500
v 0.190000 -0.125000 0.007500
v 0.190000 -0.175000 0.052500
v 0.250000 -0.175000 0.052500
v 0.250000 -0.125000 0.052500
v 0.190000 -0.125000 0.052500
v -0.250000 0.125000 0.007500
v -0.190000 0.125000 0.007500
v -0.190000 0.175000 0.007500
v -0.250000 0.175000 0.007500
v -0.250000 0.125000 0.052500
v -0.190000 0.125000 0.052500
v -0.190000 0.175000 0.052500
v -0.250000 0.175000 0.052500
v 0.190000 0.125000 0.007500
v 0.250000 0.125000 0.007500
v 0.250000 0.175000 0.007500
v 0.190000 0.175000 0.007500
v 0.190000 0.125000 0.052500
v 0.250000 0.125000 0.052500
v 0.250000 0.175000 0.052500
v 0.190000 0.175000 0.052500
v -0.250000 -0.175000 0.097500
v -0.190000 -0.175000 0.097500
v -0.190000 -0.125000 0.097500
v -0.250000 -0.125000 0.097500
v -0.250000 -0.175000 0.142500
v -0.190000 -0.175000 0.142500
v -0.190000 -0.125000 0.142500
v -0.250000 -0.125000 0.142500
v 0.190000 -0.175000 0.097500
v 0.250000 -0.175000 0.097500
v 0.250000 -0.125000 0.097500
v 0.190000 -0.125000 0.097500
v 0.190000 -0.175000 0.142500
v 0.250000 -0.175000 0.142500
v 0.250000 -0.125000 0.142500
v 0.190000 -0.125000 0.142500
v -0.250000 0.125000 0.097500
v -0.190000 0.125000 0.097500
v -0.190000 0.175000 0.097500
v -0.250000 0.175000 0.097500
v -0.250000 0.125000 0.142500
v -0.190000 0.125000 0.142500
v -0.190000 0.175000 0.142500
v -0.250000 0.175000 0.142500
v 0.190000 0.125000 0.097500
v 0.250000 0.125000 0.097500
v 0.250000 0.175000 0.097500
v 0.190000 0.175000 0.097500
v 0.190000 0.125000 0.142500
v 0.250000 0.125000 0.142500
v 0.250000 0.175000 0.142500
v 0.190000 0.175000 0.142500
v -0.080000 -0.207500 0.040000
v 0.080000 -0.207500 0.040000
v 0.080000 -0.172500 0.040000
v -0.080000 -0.172500 0.040000
v -0.080000 -0.207500 0.080000
v 0.080000 -0.207500 0.080000
v 0.080000 -0.172500 0.080000
v -0.080000 -0.172500 0.080000
v -0.140000 -0.200000 0.042500
v -0.100000 -0.200000 0.042500
v -0.100000 -0.170000 0.042500
v -0.140000 -0.170000 0.042500
v -0.140000 -0.200000 0.077500
v -0.100000 -0.200000 0.077500
v -0.100000 -0.170000 0.077500
v -0.140000 -0.170000 0.077500
v 0.100000 -0.200000 0.042500
v 0.140000 -0.200000 0.042500
v 0.140000 -0.170000 0.042500
v 0.100000 -0.170000 0.042500
v 0.100000 -0.200000 0.077500
v 0.140000 -0.200000 0.077500
v 0.140000 -0.170000 0.077500
v 0.100000 -0.170000 0.077500
v -0.035000 -0.180000 0.110000
v 0.035000 -0.180000 0.110000
v 0.035000 -0.170000 0.110000
v -0.035000 -0.170000 0.110000
v -0.035000 -0.180000 0.180000
v 0.035000 -0.180000 0.180000
v 0.035000 -0.170000 0.180000
v -0.035000 -0.170000 0.180000
v -0.027500 -0.184000 0.136000
v 0.027500 -0.184000 0.136000
v 0.027500 -0.172000 0.136000
v -0.027500 -0.172000 0.136000
v -0.027500 -0.184000 0.154000
v 0.027500 -0.184000 0.154000
v 0.027500 -0.172000 0.154000
v -0.027500 -0.172000 0.154000
v -0.009000 -0.184000 0.117500
v 0.009000 -0.184000 0.117500
v 0.009000 -0.172000 0.117500
v -0.009000 -0.172000 0.117500
v -0.009000 -0.184000 0.172500
v 0.009000 -0.184000 0.172500
v 0.009000 -0.172000 0.172500
v -0.009000 -0.172000 0.172500
v -0.200000 -0.090000 0.140000
v 0.200000 -0.090000 0.140000
v 0.200000 0.130000 0.140000
v -0.200000 0.130000 0.140000
v -0.200000 -0.090000 0.170000
v 0.200000 -0.090000 0.170000
v 0.200000 0.130000 0.170000
v -0.200000 0.130000 0.170000
v -0.180000 -0.010000 0.170000
v -0.040000 -0.010000 0.170000
v -0.040000 0.090000 0.170000
v -0.180000 0.090000 0.170000
v -0.180000 -0.010000 0.182000
v -0.040000 -0.010000 0.182000
v -0.040000 0.090000 0.182000
v -0.180000 0.090000 0.182000
v -0.159000 -0.026000 0.170000
v -0.141000 -0.026000 0.170000
v -0.141000 -0.014000 0.170000
v -0.159000 -0.014000 0.170000
v -0.159000 -0.026000 0.178000
v -0.141000 -0.026000 0.178000
v -0.141000 -0.014000 0.178000
v -0.159000 -0.014000 0.178000
v -0.137000 -0.026000 0.170000
v -0.119000 -0.026000 0.170000
v -0.119000 -0.014000 0.170000
v -0.137000 -0.014000 0.170000
v -0.137000 -0.026000 0.178000
v -0.119000 -0.026000 0.178000
v -0.119000 -0.014000 0.178000
v -0.137000 -0.014000 0.178000
v -0.115000 -0.026000 0.170000
v -0.097000 -0.026000 0.170000
v -0.097000 -0.014000 0.170000
v -0.115000 -0.014000 0.170000
v -0.115000 -0.026000 0.178000
v -0.097000 -0.026000 0.178000
v -0.097000 -0.014000 0.178000
v -0.115000 -0.014000 0.178000
v -0.093000 -0.026000 0.170000
v -0.075000 -0.026000 0.170000
v -0.075000 -0.014000 0.170000
v -0.093000 -0.014000 0.170000
v -0.093000 -0.026000 0.178000
v -0.075000 -0.026000 0.178000
v -0.075000 -0.014000 0.178000
v -0.093000 -0.014000 0.178000
v -0.071000 -0.026000 0.170000
v -0.053000 -0.026000 0.170000
v -0.053000 -0.014000 0.170000
v -0.071000 -0.014000 0.170000
v -0.071000 -0.026000 0.178000
v -0.053000 -0.026000 0.178000
v -0.053000 -0.014000 0.178000
v -0.071000 -0.014000 0.178000
v 0.035000 -0.045000 0.162000
v 0.125000 -0.045000 0.162000
v 0.125000 0.045000 0.162000
v 0.035000 0.045000 0.162000
v 0.035000 -0.045000 0.182000
v 0.125000 -0.045000 0.182000
v 0.125000 0.045000 0.182000
v 0.035000 0.045000 0.182000
v 0.112000 0.000000 0.175000
v 0.112000 0.000000 0.197000
v 0.107713 0.016000 0.175000
v 0.107713 0.016000 0.197000
v 0.096000 0.027713 0.175000
v 0.096000 0.027713 0.197000
v 0.080000 0.032000 0.175000
v 0.080000 0.032000 0.197000
v 0.064000 0.027713 0.175000
v 0.064000 0.027713 0.197000
v 0.052287 0.016000 0.175000
v 0.052287 0.016000 0.197000
v 0.048000 0.000000 0.175000
v 0.048000 0.000000 0.197000
v 0.052287 -0.016000 0.175000
v 0.052287 -0.016000 0.197000
v 0.064000 -0.027713 0.175000
v 0.064000 -0.027713 0.197000
v 0.080000 -0.032000 0.175000
v 0.080000 -0.032000 0.197000
v 0.096000 -0.027713 0.175000
v 0.096000 -0.027713 0.197000
v 0.107713 -0.016000 0.175000
v 0.107713 -0.016000 0.197000
v 0.080000 0.000000 0.175000
v 0.080000 0.000000 0.197000
v 0.071000 -0.003000 0.194000
v 0.089000 -0.003000 0.194000
v 0.089000 0.003000 0.194000
v 0.071000 0.003000 0.194000
v 0.071000 -0.003000 0.204000
v 0.089000 -0.003000 0.204000
v 0.089000 0.003000 0.204000
v 0.071000 0.003000 0.204000
v 0.072000 -0.003000 0.185000
v 0.078000 -0.003000 0.185000
v 0.078000 0.003000 0.185000
v 0.072000 0.003000 0.185000
v 0.072000 -0.003000 0.213000
v 0.078000 -0.003000 0.213000
v 0.078000 0.003000 0.213000
v 0.072000 0.003000 0.213000
v 0.038000 0.080000 0.169000
v 0.038000 0.080000 0.189000
v 0.035588 0.089000 0.169000
v 0.035588 0.089000 0.189000
v 0.029000 0.095588 0.169000
v 0.029000 0.095588 0.189000
v 0.020000 0.098000 0.169000
v 0.020000 0.098000 0.189000
v 0.011000 0.095588 0.169000
v 0.011000 0.095588 0.189000
v 0.004412 0.089000 0.169000
v 0.004412 0.089000 0.189000
v 0.002000 0.080000 0.169000
v 0.002000 0.080000 0.189000
v 0.004412 0.071000 0.169000
v 0.004412 0.071000 0.189000
v 0.011000 0.064412 0.169000
v 0.011000 0.064412 0.189000
v 0.020000 0.062000 0.169000
v 0.020000 0.062000 0.189000
v 0.029000 0.064412 0.169000
v 0.029000 0.064412 0.189000
v 0.035588 0.071000 0.169000
v 0.035588 0.071000 0.189000
v 0.020000 0.080000 0.169000
v 0.020000 0.080000 0.189000
v 0.098000 0.080000 0.169000
v 0.098000 0.080000 0.189000
v 0.095588 0.089000 0.169000
v 0.095588 0.089000 0.189000
v 0.089000 0.095588 0.169000
v 0.089000 0.095588 0.189000
v 0.080000 0.098000 0.169000
v 0.080000 0.098000 0.189000
v 0.071000 0.095588 0.169000
v 0.071000 0.095588 0.189000
v 0.064412 0.089000 0.169000
v 0.064412 0.089000 0.189000
v 0.062000 0.080000 0.169000
v 0.062000 0.080000 0.189000
v 0.064412 0.071000 0.169000
v 0.064412 0.071000 0.189000
v 0.071000 0.064412 0.169000
v 0.071000 0.064412 0.189000
v 0.080000 0.062000 0.169000
v 0.080000 0.062000 0.189000
v 0.089000 0.064412 0.169000
v 0.089000 0.064412 0.189000
v 0.095588 0.071000 0.169000
v 0.095588 0.071000 0.189000
v 0.080000 0.080000 0.169000
v 0.080000 0.080000 0.189000
v 0.150000 0.070000 0.187000
v 0.150000 0.070000 0.187000
v 0.150000 0.070000 0.187000
v 0.150000 0.070000 0.187000
v 0.150000 0.070000 0.187000
v 0.150000 0.070000 0.187000
v 0.150000 0.070000 0.187000
v 0.150000 0.070000 0.187000
v 0.154000 0.070000 0.185928
v 0.152828 0.072828 0.185928
v 0.150000 0.074000 0.185928
v 0.147172 0.072828 0.185928
v 0.146000 0.070000 0.185928
v 0.147172 0.067172 0.185928
v 0.150000 0.066000 0.185928
v 0.152828 0.067172 0.185928
v 0.156928 0.070000 0.183000
v 0.154899 0.074899 0.183000
v 0.150000 0.076928 0.183000
v 0.145101 0.074899 0.183000
v 0.143072 0.070000 0.183000
v 0.145101 0.065101 0.183000
v 0.150000 0.063072 0.183000
v 0.154899 0.065101 0.183000
v 0.158000 0.070000 0.179000
v 0.155657 0.075657 0.179000
v 0.150000 0.078000 0.179000
v 0.144343 0.075657 0.179000
v 0.142000 0.070000 0.179000
v 0.144343 0.064343 0.179000
v 0.150000 0.062000 0.179000
v 0.155657 0.064343 0.179000
v 0.156928 0.070000 0.175000
v 0.154899 0.074899 0.175000
v 0.150000 0.076928 0.175000
v 0.145101 0.074899 0.175000
v 0.143072 0.070000 0.175000
v 0.145101 0.065101 0.175000
v 0.150000 0.063072 0.175000
v 0.154899 0.065101 0.175000
v 0.154000 0.070000 0.172072
v 0.152828 0.072828 0.172072
v 0.150000 0.074000 0.172072
v 0.147172 0.072828 0.172072
v 0.146000 0.070000 0.172072
v 0.147172 0.067172 0.172072
v 0.150000 0.066000 0.172072
v 0.152828 0.067172 0.172072
v 0.150000 0.070000 0.171000
v 0.150000 0.070000 0.171000
v 0.150000 0.070000 0.171000
v 0.150000 0.070000 0.171000
v 0.150000 0.070000 0.171000
v 0.150000 0.070000 0.171000
v 0.150000 0.070000 0.171000
v 0.150000 0.070000 0.171000
v 0.150000 0.040000 0.187000
v 0.150000 0.040000 0.187000
v 0.150000 0.040000 0.187000
v 0.150000 0.040000 0.187000
v 0.150000 0.040000 0.187000
v 0.150000 0.040000 0.187000
v 0.150000 0.040000 0.187000
v 0.150000 0.040000 0.187000
v 0.154000 0.040000 0.185928
v 0.152828 0.042828 0.185928
v 0.150000 0.044000 0.185928
v 0.147172 0.042828 0.185928
v 0.146000 0.040000 0.185928
v 0.147172 0.037172 0.185928
v 0.150000 0.036000 0.185928
v 0.152828 0.037172 0.185928
v 0.156928 0.040000 0.183000
v 0.154899 0.044899 0.183000
v 0.150000 0.046928 0.183000
v 0.145101 0.044899 0.183000
v 0.143072 0.040000 0.183000
v 0.145101 0.035101 0.183000
v 0.150000 0.033072 0.183000
v 0.154899 0.035101 0.183000
v 0.158000 0.040000 0.179000
v 0.155657 0.045657 0.179000
v 0.150000 0.048000 0.179000
v 0.144343 0.045657 0.179000
v 0.142000 0.040000 0.179000
v 0.144343 0.034343 0.179000
v 0.150000 0.032000 0.179000
v 0.155657 0.034343 0.179000
v 0.156928 0.040000 0.175000
v 0.154899 0.044899 0.175000
v 0.150000 0.046928 0.175000
v 0.145101 0.044899 0.175000
v 0.143072 0.040000 0.175000
v 0.145101 0.035101 0.175000
v 0.150000 0.033072 0.175000
v 0.154899 0.035101 0.175000
v 0.154000 0.040000 0.172072
v 0.152828 0.042828 0.172072
v 0.150000 0.044000 0.172072
v 0.147172 0.042828 0.172072
v 0.146000 0.040000 0.172072
v 0.147172 0.037172 0.172072
v 0.150000 0.036000 0.172072
v 0.152828 0.037172 0.172072
v 0.150000 0.040000 0.171000
v 0.150000 0.040000 0.171000
v 0.150000 0.040000 0.171000
v 0.150000 0.040000 0.171000
v 0.150000 0.040000 0.171000
v 0.150000 0.040000 0.171000
v 0.150000 0.040000 0.171000
v 0.150000 0.040000 0.171000
v 0.150000 0.010000 0.187000
v 0.150000 0.010000 0.187000
v 0.150000 0.010000 0.187000
v 0.150000 0.010000 0.187000
v 0.150000 0.010000 0.187000
v 0.150000 0.010000 0.187000
v 0.150000 0.010000 0.187000
v 0.150000 0.010000 0.187000
v 0.154000 0.010000 0.185928
v 0.152828 0.012828 0.185928
v 0.150000 0.014000 0.185928
v 0.147172 0.012828 0.185928
v 0.146000 0.010000 0.185928
v 0.147172 0.007172 0.185928
v 0.150000 0.006000 0.185928
v 0.152828 0.007172 0.185928
v 0.156928 0.010000 0.183000
v 0.154899 0.014899 0.183000
v 0.150000 0.016928 0.183000
v 0.145101 0.014899 0.183000
v 0.143072 0.010000 0.183000
v 0.145101 0.005101 0.183000
v 0.150000 0.003072 0.183000
v 0.154899 0.005101 0.183000
v 0.158000 0.010000 0.179000
v 0.155657 0.015657 0.179000
v 0.150000 0.018000 0.179000
v 0.144343 0.015657 0.179000
v 0.142000 0.010000 0.179000
v 0.144343 0.004343 0.179000
v 0.150000 0.002000 0.179000
v 0.155657 0.004343 0.179000
v 0.156928 0.010000 0.175000
v 0.154899 0.014899 0.175000
v 0.150000 0.016928 0.175000
v 0.145101 0.014899 0.175000
v 0.143072 0.010000 0.175000
v 0.145101 0.005101 0.175000
v 0.150000 0.003072 0.175000
v 0.154899 0.005101 0.175000
v 0.154000 0.010000 0.172072
v 0.152828 0.012828 0.172072
v 0.150000 0.014000 0.172072
v 0.147172 0.012828 0.172072
v 0.146000 0.010000 0.172072
v 0.147172 0.007172 0.172072
v 0.150000 0.006000 0.172072
v 0.152828 0.007172 0.172072
v 0.150000 0.010000 0.171000
v 0.150000 0.010000 0.171000
v 0.150000 0.010000 0.171000
v 0.150000 0.010000 0.171000
v 0.150000 0.010000 0.171000
v 0.150000 0.010000 0.171000
v 0.150000 0.010000 0.171000
v 0.150000 0.010000 0.171000
v 0.142500 -0.042000 0.171000
v 0.177500 -0.042000 0.171000
v 0.177500 -0.038000 0.171000
v 0.142500 -0.038000 0.171000
v 0.142500 -0.042000 0.177000
v 0.177500 -0.042000 0.177000
v 0.177500 -0.038000 0.177000
v 0.142500 -0.038000 0.177000
v 0.142500 -0.030000 0.171000
v 0.177500 -0.030000 0.171000
v 0.177500 -0.026000 0.171000
v 0.142500 -0.026000 0.171000
v 0.142500 -0.030000 0.177000
v 0.177500 -0.030000 0.177000
v 0.177500 -0.026000 0.177000
v 0.142500 -0.026000 0.177000
v 0.142500 -0.018000 0.171000
v 0.177500 -0.018000 0.171000
v 0.177500 -0.014000 0.171000
v 0.142500 -0.014000 0.171000
v 0.142500 -0.018000 0.177000
v 0.177500 -0.018000 0.177000
v 0.177500 -0.014000 0.177000
v 0.142500 -0.014000 0.177000
v 0.142500 -0.006000 0.171000
v 0.177500 -0.006000 0.171000
v 0.177500 -0.002000 0.171000
v 0.142500 -0.002000 0.171000
v 0.142500 -0.006000 0.177000
v 0.177500 -0.006000 0.177000
v 0.177500 -0.002000 0.177000
v 0.142500 -0.002000 0.177000
v 0.142500 0.006000 0.171000
v 0.177500 0.006000 0.171000
v 0.177500 0.010000 0.171000
v 0.142500 0.010000 0.171000
v 0.142500 0.006000 0.177000
v 0.177500 0.006000 0.177000
v 0.177500 0.010000 0.177000
v 0.142500 0.010000 0.177000
v -0.230000 0.145000 0.130000
v 0.230000 0.145000 0.130000
v 0.230000 0.175000 0.130000
v -0.230000 0.175000 0.130000
v -0.230000 0.145000 0.160000
v 0.230000 0.145000 0.160000
v 0.230000 0.175000 0.160000
v -0.230000 0.175000 0.160000
v -0.240000 0.329620 0.440202
v 0.240000 0.329620 0.440202
v 0.240000 0.170000 0.140000
v -0.240000 0.170000 0.140000
v -0.240000 0.382597 0.412034
v 0.240000 0.382597 0.412034
v 0.240000 0.222977 0.111832
v -0.240000 0.222977 0.111832
v -0.220000 0.315816 0.424891
v 0.220000 0.315816 0.424891
v 0.220000 0.174975 0.160006
v -0.220000 0.174975 0.160006
v -0.220000 0.333475 0.415501
v 0.220000 0.333475 0.415501
v 0.220000 0.192634 0.150617
v -0.220000 0.192634 0.150617
v -0.180000 0.263754 0.311001
v -0.060000 0.263754 0.311001
v -0.060000 0.221502 0.231536
v -0.180000 0.221502 0.231536
v -0.180000 0.285828 0.299264
v -0.060000 0.285828 0.299264
v -0.060000 0.243576 0.219799
v -0.180000 0.243576 0.219799
v -0.175000 0.276859 0.298371
v -0.065000 0.276859 0.298371
v -0.065000 0.239301 0.227735
v -0.175000 0.239301 0.227735
v -0.175000 0.285688 0.293676
v -0.065000 0.285688 0.293676
v -0.065000 0.248130 0.223040
v -0.175000 0.248130 0.223040
v -0.182500 0.264487 0.313443
v -0.057500 0.264487 0.313443
v -0.057500 0.219887 0.229563
v -0.182500 0.219887 0.229563
v -0.182500 0.275082 0.307810
v -0.057500 0.275082 0.307810
v -0.057500 0.230482 0.223930
v -0.182500 0.230482 0.223930
v -0.170000 0.294550 0.379570
v -0.070000 0.294550 0.379570
v -0.070000 0.275771 0.344252
v -0.170000 0.275771 0.344252
v -0.170000 0.325453 0.363138
v -0.070000 0.325453 0.363138
v -0.070000 0.306674 0.327820
v -0.170000 0.306674 0.327820
v 0.060000 0.263754 0.311001
v 0.180000 0.263754 0.311001
v 0.180000 0.221502 0.231536
v 0.060000 0.221502 0.231536
v 0.060000 0.285828 0.299264
v 0.180000 0.285828 0.299264
v 0.180000 0.243576 0.219799
v 0.060000 0.243576 0.219799
v 0.065000 0.276859 0.298371
v 0.175000 0.276859 0.298371
v 0.175000 0.239301 0.227735
v 0.065000 0.239301 0.227735
v 0.065000 0.285688 0.293676
v 0.175000 0.285688 0.293676
v 0.175000 0.248130 0.223040
v 0.065000 0.248130 0.223040
v 0.057500 0.264487 0.313443
v 0.182500 0.264487 0.313443
v 0.182500 0.219887 0.229563
v 0.057500 0.219887 0.229563
v 0.057500 0.275082 0.307810
v 0.182500 0.275082 0.307810
v 0.182500 0.230482 0.223930
v 0.057500 0.230482 0.223930
v 0.070000 0.294550 0.379570
v 0.170000 0.294550 0.379570
v 0.170000 0.275771 0.344252
v 0.070000 0.275771 0.344252
v 0.070000 0.325453 0.363138
v 0.170000 0.325453 0.363138
v 0.170000 0.306674 0.327820
v 0.070000 0.306674 0.327820
usemtl Defib_Red
f 1 2 3 4
f 5 8 7 6
f 1 5 6 2
f 2 6 7 3
f 3 7 8 4
f 4 8 5 1
usemtl Defib_Beige
f 9 10 11 12
f 13 16 15 14
f 9 13 14 10
f 10 14 15 11
f 11 15 16 12
f 12 16 13 9
usemtl Defib_Dark
f 17 18 19 20
f 21 24 23 22
f 17 21 22 18
f 18 22 23 19
f 19 23 24 20
f 20 24 21 17
f 25 26 27 28
f 29 32 31 30
f 25 29 30 26
f 26 30 31 27
f 27 31 32 28
f 28 32 29 25
f 33 34 35 36
f 37 40 39 38
f 33 37 38 34
f 34 38 39 35
f 35 39 40 36
f 36 40 37 33
f 41 42 43 44
f 45 48 47 46
f 41 45 46 42
f 42 46 47 43
f 43 47 48 44
f 44 48 45 41
f 49 50 51 52
f 53 56 55 54
f 49 53 54 50
f 50 54 55 51
f 51 55 56 52
f 52 56 53 49
f 57 58 59 60
f 61 64 63 62
f 57 61 62 58
f 58 62 63 59
f 59 63 64 60
f 60 64 61 57
f 65 66 67 68
f 69 72 71 70
f 65 69 70 66
f 66 70 71 67
f 67 71 72 68
f 68 72 69 65
f 73 74 75 76
f 77 80 79 78
f 73 77 78 74
f 74 78 79 75
f 75 79 80 76
f 76 80 77 73
usemtl Defib_Black
f 81 82 83 84
f 85 88 87 86
f 81 85 86 82
f 82 86 87 83
f 83 87 88 84
f 84 88 85 81
f 89 90 91 92
f 93 96 95 94
f 89 93 94 90
f 90 94 95 91
f 91 95 96 92
f 92 96 93 89
f 97 98 99 100
f 101 104 103 102
f 97 101 102 98
f 98 102 103 99
f 99 103 104 100
f 100 104 101 97
usemtl Defib_Beige
f 105 106 107 108
f 109 112 111 110
f 105 109 110 106
f 106 110 111 107
f 107 111 112 108
f 108 112 109 105
usemtl Defib_Red
f 113 114 115 116
f 117 120 119 118
f 113 117 118 114
f 114 118 119 115
f 115 119 120 116
f 116 120 117 113
f 121 122 123 124
f 125 128 127 126
f 121 125 126 122
f 122 126 127 123
f 123 127 128 124
f 124 128 125 121
usemtl Defib_Cream
f 129 130 131 132
f 133 136 135 134
f 129 133 134 130
f 130 134 135 131
f 131 135 136 132
f 132 136 133 129
usemtl Defib_Screen
f 137 138 139 140
f 141 144 143 142
f 137 141 142 138
f 138 142 143 139
f 139 143 144 140
f 140 144 141 137
usemtl Defib_LED_G
f 145 146 147 148
f 149 152 151 150
f 145 149 150 146
f 146 150 151 147
f 147 151 152 148
f 148 152 149 145
f 153 154 155 156
f 157 160 159 158
f 153 157 158 154
f 154 158 159 155
f 155 159 160 156
f 156 160 157 153
f 161 162 163 164
f 165 168 167 166
f 161 165 166 162
f 162 166 167 163
f 163 167 168 164
f 164 168 165 161
f 169 170 171 172
f 173 176 175 174
f 169 173 174 170
f 170 174 175 171
f 171 175 176 172
f 172 176 173 169
f 177 178 179 180
f 181 184 183 182
f 177 181 182 178
f 178 182 183 179
f 179 183 184 180
f 180 184 181 177
usemtl Defib_Black
f 185 186 187 188
f 189 192 191 190
f 185 189 190 186
f 186 190 191 187
f 187 191 192 188
f 188 192 189 185
usemtl Defib_Red
f 193 195 196 194
f 217 195 193
f 218 194 196
f 195 197 198 196
f 217 197 195
f 218 196 198
f 197 199 200 198
f 217 199 197
f 218 198 200
f 199 201 202 200
f 217 201 199
f 218 200 202
f 201 203 204 202
f 217 203 201
f 218 202 204
f 203 205 206 204
f 217 205 203
f 218 204 206
f 205 207 208 206
f 217 207 205
f 218 206 208
f 207 209 210 208
f 217 209 207
f 218 208 210
f 209 211 212 210
f 217 211 209
f 218 210 212
f 211 213 214 212
f 217 213 211
f 218 212 214
f 213 215 216 214
f 217 215 213
f 218 214 216
f 215 193 194 216
f 217 193 215
f 218 216 194
usemtl Defib_White
f 219 220 221 222
f 223 226 225 224
f 219 223 224 220
f 220 224 225 221
f 221 225 226 222
f 222 226 223 219
f 227 228 229 230
f 231 234 233 232
f 227 231 232 228
f 228 232 233 229
f 229 233 234 230
f 230 234 231 227
usemtl Defib_Black
f 235 237 238 236
f 259 237 235
f 260 236 238
f 237 239 240 238
f 259 239 237
f 260 238 240
f 239 241 242 240
f 259 241 239
f 260 240 242
f 241 243 244 242
f 259 243 241
f 260 242 244
f 243 245 246 244
f 259 245 243
f 260 244 246
f 245 247 248 246
f 259 247 245
f 260 246 248
f 247 249 250 248
f 259 249 247
f 260 248 250
f 249 251 252 250
f 259 251 249
f 260 250 252
f 251 253 254 252
f 259 253 251
f 260 252 254
f 253 255 256 254
f 259 255 253
f 260 254 256
f 255 257 258 256
f 259 257 255
f 260 256 258
f 257 235 236 258
f 259 235 257
f 260 258 236
f 261 263 264 262
f 285 263 261
f 286 262 264
f 263 265 266 264
f 285 265 263
f 286 264 266
f 265 267 268 266
f 285 267 265
f 286 266 268
f 267 269 270 268
f 285 269 267
f 286 268 270
f 269 271 272 270
f 285 271 269
f 286 270 272
f 271 273 274 272
f 285 273 271
f 286 272 274
f 273 275 276 274
f 285 275 273
f 286 274 276
f 275 277 278 276
f 285 277 275
f 286 276 278
f 277 279 280 278
f 285 279 277
f 286 278 280
f 279 281 282 280
f 285 281 279
f 286 280 282
f 281 283 284 282
f 285 283 281
f 286 282 284
f 283 261 262 284
f 285 261 283
f 286 284 262
usemtl Defib_LED_G
f 287 288 296 295
f 288 289 297 296
f 289 290 298 297
f 290 291 299 298
f 291 292 300 299
f 292 293 301 300
f 293 294 302 301
f 294 287 295 302
f 295 296 304 303
f 296 297 305 304
f 297 298 306 305
f 298 299 307 306
f 299 300 308 307
f 300 301 309 308
f 301 302 310 309
f 302 295 303 310
f 303 304 312 311
f 304 305 313 312
f 305 306 314 313
f 306 307 315 314
f 307 308 316 315
f 308 309 317 316
f 309 310 318 317
f 310 303 311 318
f 311 312 320 319
f 312 313 321 320
f 313 314 322 321
f 314 315 323 322
f 315 316 324 323
f 316 317 325 324
f 317 318 326 325
f 318 311 319 326
f 319 320 328 327
f 320 321 329 328
f 321 322 330 329
f 322 323 331 330
f 323 324 332 331
f 324 325 333 332
f 325 326 334 333
f 326 319 327 334
f 327 328 336 335
f 328 329 337 336
f 329 330 338 337
f 330 331 339 338
f 331 332 340 339
f 332 333 341 340
f 333 334 342 341
f 334 327 335 342
usemtl Defib_LED_Y
f 343 344 352 351
f 344 345 353 352
f 345 346 354 353
f 346 347 355 354
f 347 348 356 355
f 348 349 357 356
f 349 350 358 357
f 350 343 351 358
f 351 352 360 359
f 352 353 361 360
f 353 354 362 361
f 354 355 363 362
f 355 356 364 363
f 356 357 365 364
f 357 358 366 365
f 358 351 359 366
f 359 360 368 367
f 360 361 369 368
f 361 362 370 369
f 362 363 371 370
f 363 364 372 371
f 364 365 373 372
f 365 366 374 373
f 366 359 367 374
f 367 368 376 375
f 368 369 377 376
f 369 370 378 377
f 370 371 379 378
f 371 372 380 379
f 372 373 381 380
f 373 374 382 381
f 374 367 375 382
f 375 376 384 383
f 376 377 385 384
f 377 378 386 385
f 378 379 387 386
f 379 380 388 387
f 380 381 389 388
f 381 382 390 389
f 382 375 383 390
f 383 384 392 391
f 384 385 393 392
f 385 386 394 393
f 386 387 395 394
f 387 388 396 395
f 388 389 397 396
f 389 390 398 397
f 390 383 391 398
usemtl Defib_LED_R
f 399 400 408 407
f 400 401 409 408
f 401 402 410 409
f 402 403 411 410
f 403 404 412 411
f 404 405 413 412
f 405 406 414 413
f 406 399 407 414
f 407 408 416 415
f 408 409 417 416
f 409 410 418 417
f 410 411 419 418
f 411 412 420 419
f 412 413 421 420
f 413 414 422 421
f 414 407 415 422
f 415 416 424 423
f 416 417 425 424
f 417 418 426 425
f 418 419 427 426
f 419 420 428 427
f 420 421 429 428
f 421 422 430 429
f 422 415 423 430
f 423 424 432 431
f 424 425 433 432
f 425 426 434 433
f 426 427 435 434
f 427 428 436 435
f 428 429 437 436
f 429 430 438 437
f 430 423 431 438
f 431 432 440 439
f 432 433 441 440
f 433 434 442 441
f 434 435 443 442
f 435 436 444 443
f 436 437 445 444
f 437 438 446 445
f 438 431 439 446
f 439 440 448 447
f 440 441 449 448
f 441 442 450 449
f 442 443 451 450
f 443 444 452 451
f 444 445 453 452
f 445 446 454 453
f 446 439 447 454
usemtl Defib_Dark
f 455 456 457 458
f 459 462 461 460
f 455 459 460 456
f 456 460 461 457
f 457 461 462 458
f 458 462 459 455
f 463 464 465 466
f 467 470 469 468
f 463 467 468 464
f 464 468 469 465
f 465 469 470 466
f 466 470 467 463
f 471 472 473 474
f 475 478 477 476
f 471 475 476 472
f 472 476 477 473
f 473 477 478 474
f 474 478 475 471
f 479 480 481 482
f 483 486 485 484
f 479 483 484 480
f 480 484 485 481
f 481 485 486 482
f 482 486 483 479
f 487 488 489 490
f 491 494 493 492
f 487 491 492 488
f 488 492 493 489
f 489 493 494 490
f 490 494 491 487
f 495 496 497 498
f 499 502 501 500
f 495 499 500 496
f 496 500 501 497
f 497 501 502 498
f 498 502 499 495
usemtl Defib_Red
f 503 504 505 506
f 507 510 509 508
f 503 507 508 504
f 504 508 509 505
f 505 509 510 506
f 506 510 507 503
usemtl Defib_Cream
f 511 512 513 514
f 515 518 517 516
f 511 515 516 512
f 512 516 517 513
f 513 517 518 514
f 514 518 515 511
f 519 520 521 522
f 523 526 525 524
f 519 523 524 520
f 520 524 525 521
f 521 525 526 522
f 522 526 523 519
usemtl Defib_Beige
f 527 528 529 530
f 531 534 533 532
f 527 531 532 528
f 528 532 533 529
f 529 533 534 530
f 530 534 531 527
usemtl Defib_Blue
f 535 536 537 538
f 539 542 541 540
f 535 539 540 536
f 536 540 541 537
f 537 541 542 538
f 538 542 539 535
f 543 544 545 546
f 547 550 549 548
f 543 547 548 544
f 544 548 549 545
f 545 549 550 546
f 546 550 547 543
usemtl Defib_Cream
f 551 552 553 554
f 555 558 557 556
f 551 555 556 552
f 552 556 557 553
f 553 557 558 554
f 554 558 555 551
usemtl Defib_Beige
f 559 560 561 562
f 563 566 565 564
f 559 563 564 560
f 560 564 565 561
f 561 565 566 562
f 562 566 563 559
usemtl Defib_Yellow
f 567 568 569 570
f 571 574 573 572
f 567 571 572 568
f 568 572 573 569
f 569 573 574 570
f 570 574 571 567
f 575 576 577 578
f 579 582 581 580
f 575 579 580 576
f 576 580 581 577
f 577 581 582 578
f 578 582 579 575
