# Blender 3.4.1
# www.blender.org
mtllib MiniVan_AmberButton.mtl
o MiniVan_AmberButton
v 0.000000 -0.014000 -0.084772
v 0.000000 -0.013775 -0.085000
v 0.000000 0.014000 -0.066951
v 0.000000 0.013775 -0.066722
v 0.029072 -0.013775 -0.079874
v 0.028994 -0.014000 -0.079659
v 0.022820 0.013775 -0.062698
v 0.022898 0.014000 -0.062913
v 0.054637 -0.013775 -0.065114
v 0.054490 -0.014000 -0.064939
v 0.042888 0.013775 -0.051112
v 0.043035 0.014000 -0.051287
v 0.073612 -0.013775 -0.042500
v 0.073414 -0.014000 -0.042386
v 0.057783 0.013775 -0.033361
v 0.057981 0.014000 -0.033475
v 0.083709 -0.013775 -0.014760
v 0.083484 -0.014000 -0.014720
v 0.065709 0.013775 -0.011586
v 0.065934 0.014000 -0.011626
v 0.083709 -0.013775 0.014760
v 0.083484 -0.014000 0.014720
v 0.065709 0.013775 0.011586
v 0.065934 0.014000 0.011626
v 0.073612 -0.013775 0.042500
v 0.073414 -0.014000 0.042386
v 0.057783 0.013775 0.033361
v 0.057981 0.014000 0.033475
v 0.054637 -0.013775 0.065114
v 0.054490 -0.014000 0.064939
v 0.042888 0.013775 0.051112
v 0.043035 0.014000 0.051287
v 0.029072 -0.013775 0.079874
v 0.028994 -0.014000 0.079659
v 0.022820 0.013775 0.062698
v 0.022898 0.014000 0.062913
v 0.000000 -0.013775 0.085000
v -0.000000 -0.014000 0.084772
v 0.000000 0.013775 0.066722
v 0.000000 0.014000 0.066951
v -0.029072 -0.013775 0.079874
v -0.028991 -0.014000 0.079660
v -0.022820 0.013775 0.062698
v -0.022898 0.014000 0.062913
v -0.054637 -0.013775 0.065114
v -0.054495 -0.014000 0.064935
v -0.042888 0.013775 0.051112
v -0.043035 0.014000 0.051287
v -0.073612 -0.013775 0.042500
v -0.073413 -0.014000 0.042389
v -0.057783 0.013775 0.033361
v -0.057981 0.014000 0.033475
v -0.083709 -0.013775 0.014760
v -0.083484 -0.014000 0.014720
v -0.065709 0.013775 0.011586
v -0.065934 0.014000 0.011626
v -0.083709 -0.013775 -0.014760
v -0.083484 -0.014000 -0.014736
v -0.065934 0.014000 -0.011626
v -0.065709 0.013775 -0.011586
v -0.073612 -0.013775 -0.042500
v -0.073430 -0.014000 -0.042358
v -0.057783 0.013775 -0.033361
v -0.057981 0.014000 -0.033475
v -0.054637 -0.013775 -0.065114
v -0.054477 -0.014000 -0.064946
v -0.042888 0.013775 -0.051112
v -0.043035 0.014000 -0.051287
v -0.028994 -0.014000 -0.079659
v -0.029072 -0.013775 -0.079874
v -0.022820 0.013775 -0.062698
v -0.022898 0.014000 -0.062913
v 0.029072 0.013775 -0.079874
v 0.028994 0.014000 -0.079659
v 0.000000 0.014000 -0.084772
v 0.000000 0.013775 -0.085000
v 0.054490 0.014000 -0.064939
v 0.054637 0.013775 -0.065114
v 0.073414 0.014000 -0.042386
v 0.073612 0.013775 -0.042500
v 0.083709 0.013775 -0.014760
v 0.083484 0.014000 -0.014720
v 0.083484 0.014000 0.014720
v 0.083709 0.013775 0.014760
v 0.073612 0.013775 0.042500
v 0.073414 0.014000 0.042386
v 0.054490 0.014000 0.064939
v 0.054637 0.013775 0.065114
v 0.029072 0.013775 0.079874
v 0.028994 0.014000 0.079659
v 0.000000 0.014000 0.084772
v 0.000000 0.013775 0.085000
v -0.029072 0.013775 0.079874
v -0.028994 0.014000 0.079659
v -0.054490 0.014000 0.064939
v -0.054637 0.013775 0.065114
v -0.073612 0.013775 0.042500
v -0.073414 0.014000 0.042386
v -0.083484 0.014000 0.014720
v -0.083709 0.013775 0.014760
v -0.083709 0.013775 -0.014760
v -0.083484 0.014000 -0.014720
v -0.073414 0.014000 -0.042386
v -0.073612 0.013775 -0.042500
v -0.054637 0.013775 -0.065114
v -0.054490 0.014000 -0.064939
v -0.028994 0.014000 -0.079659
v -0.029072 0.013775 -0.079874
v 0.022742 0.004000 -0.062484
v 0.022820 0.004225 -0.062698
v 0.000000 0.004000 -0.066494
v 0.000000 0.004225 -0.066722
v 0.042741 0.004000 -0.050937
v 0.042888 0.004225 -0.051112
v 0.057585 0.004000 -0.033247
v 0.057783 0.004225 -0.033361
v 0.065484 0.004000 -0.011547
v 0.065709 0.004225 -0.011586
v 0.065484 0.004000 0.011547
v 0.065709 0.004225 0.011586
v 0.057585 0.004000 0.033247
v 0.057783 0.004225 0.033361
v 0.042741 0.004000 0.050937
v 0.042888 0.004225 0.051112
v 0.022820 0.004225 0.062698
v 0.022742 0.004000 0.062484
v 0.000000 0.004000 0.066494
v 0.000000 0.004225 0.066722
v -0.022742 0.004000 0.062484
v -0.022820 0.004225 0.062698
v -0.042752 0.004000 0.050931
v -0.042888 0.004225 0.051112
v -0.057783 0.004225 0.033361
v -0.057573 0.004000 0.033269
v -0.065484 0.004000 0.011534
v -0.065709 0.004225 0.011586
v -0.065484 0.004000 -0.011547
v -0.065709 0.004225 -0.011586
v -0.057585 0.004000 -0.033247
v -0.057783 0.004225 -0.033361
v -0.042741 0.004000 -0.050937
v -0.042888 0.004225 -0.051112
v -0.022742 0.004000 -0.062484
v -0.022820 0.004225 -0.062698
v -0.016414 -0.013775 0.009208
v -0.016745 -0.014000 0.008967
v -0.016414 -0.013775 0.008792
v -0.014096 -0.013775 0.014389
v -0.014455 -0.014000 0.014495
v -0.014389 -0.013775 0.014096
v -0.014096 -0.013775 0.003611
v -0.014389 -0.013775 0.003904
v -0.014499 -0.014000 0.003544
v -0.001257 -0.014000 0.009000
v -0.001586 -0.013775 0.009208
v -0.001586 -0.013775 0.008792
v -0.003904 -0.013775 0.003611
v -0.003520 -0.014000 0.003534
v -0.003611 -0.013775 0.003904
v -0.003904 -0.013775 0.014389
v -0.003611 -0.013775 0.014096
v -0.003525 -0.014000 0.014475
v -0.008792 -0.013775 0.001586
v -0.009208 -0.013775 0.001586
v -0.009000 -0.014000 0.001265
v -0.008792 -0.013775 0.016414
v -0.009013 -0.014000 0.016749
v -0.009208 -0.013775 0.016414
v -0.014389 0.003775 0.014096
v -0.014537 0.004000 0.014406
v -0.014096 0.003775 0.014389
v -0.016414 0.003775 0.009208
v -0.016414 0.003775 0.008792
v -0.016643 0.004000 0.009317
v -0.008919 0.004000 0.016734
v -0.008792 0.003775 0.016414
v -0.009208 0.003775 0.016414
v -0.014096 0.003775 0.003611
v -0.014283 0.004000 0.003642
v -0.014389 0.003775 0.003904
v -0.009208 0.003775 0.001586
v -0.008792 0.003775 0.001586
v -0.009000 0.004000 0.001462
v -0.001586 0.003775 0.008792
v -0.001586 0.003775 0.009208
v -0.001262 0.004000 0.008938
v -0.003611 0.003775 0.014096
v -0.003904 0.003775 0.014389
v -0.003577 0.004000 0.014522
v -0.003904 0.003775 0.003611
v -0.003611 0.003775 0.003904
v -0.003384 0.004000 0.003814
v 0.008792 -0.013775 0.016414
v 0.009208 -0.013775 0.016414
v 0.009000 -0.014000 0.016743
v 0.003904 -0.013775 0.014389
v 0.003525 -0.014000 0.014475
v 0.003611 -0.013775 0.014096
v 0.003611 -0.013775 0.003904
v 0.003545 -0.014000 0.003475
v 0.003904 -0.013775 0.003611
v 0.002424 -0.013775 0.006769
v 0.002223 -0.014000 0.006668
v 0.008862 -0.014000 0.001271
v 0.009208 -0.013775 0.001586
v 0.008792 -0.013775 0.001586
v 0.016414 -0.013775 0.008792
v 0.016743 -0.014000 0.009000
v 0.016414 -0.013775 0.009208
v 0.014510 -0.014000 0.003607
v 0.014389 -0.013775 0.003904
v 0.014096 -0.013775 0.003611
v 0.001586 -0.013775 0.008792
v 0.001586 -0.013775 0.009208
v 0.001257 -0.014000 0.009000
v 0.014475 -0.014000 0.014475
v 0.014096 -0.013775 0.014389
v 0.014389 -0.013775 0.014096
v 0.001586 0.003775 0.008792
v 0.001257 0.004000 0.009000
v 0.001586 0.003775 0.009208
v 0.002703 0.003775 0.006096
v 0.002492 0.004000 0.006017
v 0.003611 0.003775 0.014096
v 0.003509 0.004000 0.014437
v 0.003904 0.003775 0.014389
v 0.003611 0.003775 0.003904
v 0.003904 0.003775 0.003611
v 0.003545 0.004000 0.003475
v 0.016414 0.003775 0.008792
v 0.016414 0.003775 0.009208
v 0.016743 0.004000 0.009000
v 0.014463 0.004000 0.014506
v 0.014389 0.003775 0.014096
v 0.014096 0.003775 0.014389
v 0.014096 0.003775 0.003611
v 0.014389 0.003775 0.003904
v 0.014510 0.004000 0.003607
v 0.008792 0.003775 0.001586
v 0.009208 0.003775 0.001586
v 0.008862 0.004000 0.001271
v 0.009208 0.003775 0.016414
v 0.008792 0.003775 0.016414
v 0.009072 0.004000 0.016740
v -0.016414 -0.013775 -0.008792
v -0.016743 -0.014000 -0.009000
v -0.016414 -0.013775 -0.009208
v -0.014389 -0.013775 -0.003904
v -0.014096 -0.013775 -0.003611
v -0.014475 -0.014000 -0.003525
v -0.014389 -0.013775 -0.014096
v -0.014475 -0.014000 -0.014475
v -0.014096 -0.013775 -0.014389
v -0.005691 -0.013775 -0.002871
v -0.005625 -0.014000 -0.002654
v -0.009208 -0.013775 -0.001586
v -0.008792 -0.013775 -0.001586
v -0.009000 -0.014000 -0.001257
v -0.009208 -0.013775 -0.016414
v -0.009000 -0.014000 -0.016743
v -0.008792 -0.013775 -0.016414
v -0.001586 -0.013775 -0.008792
v -0.001586 -0.013775 -0.009208
v -0.001257 -0.014000 -0.009000
v -0.003611 -0.013775 -0.003904
v -0.003525 -0.014000 -0.003525
v -0.003904 -0.013775 -0.003611
v -0.003611 -0.013775 -0.014096
v -0.003904 -0.013775 -0.014389
v -0.003525 -0.014000 -0.014475
v -0.016414 0.003775 -0.008792
v -0.016414 0.003775 -0.009208
v -0.016743 0.004000 -0.009000
v -0.014389 0.003775 -0.014096
v -0.014096 0.003775 -0.014389
v -0.014475 0.004000 -0.014475
v -0.014389 0.003775 -0.003904
v -0.014475 0.004000 -0.003525
v -0.014096 0.003775 -0.003611
v -0.011904 0.003775 -0.002703
v -0.011983 0.004000 -0.002492
v -0.009000 0.004000 -0.016743
v -0.009208 0.003775 -0.016414
v -0.008792 0.003775 -0.016414
v -0.009208 0.003775 -0.001586
v -0.009000 0.004000 -0.001257
v -0.008792 0.003775 -0.001586
v -0.003525 0.004000 -0.003525
v -0.003611 0.003775 -0.003904
v -0.003904 0.003775 -0.003611
v -0.001586 0.003775 -0.008792
v -0.001257 0.004000 -0.009000
v -0.001586 0.003775 -0.009208
v -0.003611 0.003775 -0.014096
v -0.003525 0.004000 -0.014475
v -0.003904 0.003775 -0.014389
v 0.009208 -0.013775 -0.016414
v 0.008792 -0.013775 -0.016414
v 0.009000 -0.014000 -0.016743
v 0.016414 -0.013775 -0.009208
v 0.016743 -0.014000 -0.009000
v 0.016414 -0.013775 -0.008792
v 0.014475 -0.014000 -0.014475
v 0.014389 -0.013775 -0.014096
v 0.014096 -0.013775 -0.014389
v 0.003904 -0.013775 -0.014389
v 0.003611 -0.013775 -0.014096
v 0.003525 -0.014000 -0.014475
v 0.014475 -0.014000 -0.003525
v 0.014096 -0.013775 -0.003611
v 0.014389 -0.013775 -0.003904
v 0.001586 -0.013775 -0.008792
v 0.001257 -0.014000 -0.009000
v 0.001586 -0.013775 -0.009208
v 0.006790 -0.014000 -0.002172
v 0.006595 -0.013775 -0.002496
v 0.008792 -0.013775 -0.001586
v 0.009208 -0.013775 -0.001586
v 0.009000 -0.014000 -0.001257
v 0.003611 -0.013775 -0.003904
v 0.003904 -0.013775 -0.003611
v 0.003525 -0.014000 -0.003525
v 0.003611 0.003775 -0.003904
v 0.003525 0.004000 -0.003525
v 0.003904 0.003775 -0.003611
v 0.006595 0.003775 -0.002496
v 0.006790 0.004000 -0.002172
v 0.001586 0.003775 -0.009208
v 0.001257 0.004000 -0.009000
v 0.001586 0.003775 -0.008792
v 0.008792 0.003775 -0.001586
v 0.009000 0.004000 -0.001257
v 0.009208 0.003775 -0.001586
v 0.009000 0.004000 -0.016743
v 0.008792 0.003775 -0.016414
v 0.009208 0.003775 -0.016414
v 0.016414 0.003775 -0.008792
v 0.016743 0.004000 -0.009000
v 0.016414 0.003775 -0.009208
v 0.014475 0.004000 -0.003525
v 0.014389 0.003775 -0.003904
v 0.014096 0.003775 -0.003611
v 0.014475 0.004000 -0.014475
v 0.014096 0.003775 -0.014389
v 0.014389 0.003775 -0.014096
v 0.003904 0.003775 -0.014389
v 0.003525 0.004000 -0.014475
v 0.003611 0.003775 -0.014096
vn -0.1736 -0.0000 -0.9848
vn -0.5000 -0.0000 0.8660
vn -0.7660 -0.0000 0.6428
vn -0.9397 -0.0000 0.3420
vn -1.0000 -0.0000 -0.0000
vn -0.9397 -0.0000 -0.3420
vn -0.0000 1.0000 -0.0000
vn -0.5000 -0.0000 -0.8660
vn 0.1736 -0.0000 -0.9848
vn 0.7660 -0.0000 -0.6428
vn 1.0000 -0.0000 -0.0000
vn 0.7660 -0.0000 0.6428
vn -0.7660 -0.0000 -0.6428
vn -0.1736 -0.0000 0.9848
vn -0.0000 -1.0000 -0.0000
vn -0.3827 -0.0000 -0.9239
vn -0.9239 -0.0000 -0.3827
vn 0.9397 -0.0000 -0.3420
vn 0.9397 -0.0000 0.3420
vn 0.1736 -0.0000 0.9848
vn 0.5000 -0.0000 -0.8660
vn 0.5000 -0.0000 0.8660
vn 0.9239 -0.0000 -0.3827
vn 0.3827 -0.0000 -0.9239
vn -0.3827 -0.0000 0.9239
vn 0.3827 -0.0000 0.9239
vn 0.9239 -0.0000 0.3827
vn -0.9239 -0.0000 0.3827
vn 0.5616 -0.8274 -0.0000
vn 0.3991 -0.8255 -0.3991
vn 0.3960 -0.8285 0.3960
vn -0.5638 -0.8259 -0.0000
vn -0.4020 -0.8227 0.4020
vn -0.3986 -0.8259 -0.3986
vn -0.0000 -0.8190 0.5738
vn -0.0000 -0.8301 -0.5576
vn 0.4038 0.8209 -0.4038
vn 0.7007 0.7134 -0.0000
vn -0.0000 0.8184 -0.5746
vn 0.6349 0.4403 0.6349
vn -0.0000 0.4816 0.8764
vn -0.5706 0.8212 -0.0000
vn -0.4015 0.8231 -0.4015
vn -0.5008 0.7059 0.5008
vn -0.0000 -0.8259 -0.5638
vn 0.3986 -0.8259 -0.3986
vn 0.3822 -0.8414 0.3822
vn -0.0000 -0.8141 0.5808
vn -0.4285 -0.7954 0.4285
vn 0.5638 -0.8259 -0.0000
vn 0.5638 0.8259 -0.0000
vn 0.4122 0.8125 -0.4122
vn 0.3822 0.8414 0.3822
vn -0.5638 0.8259 -0.0000
vn -0.3885 0.8355 -0.3885
vn -0.4285 0.7954 0.4285
vn -0.0000 0.8141 0.5808
vn -0.0000 0.8230 -0.5681
vn 0.3986 -0.8259 0.3986
vn -0.0000 -0.8259 0.5638
vn -0.3986 -0.8259 0.3986
vn 0.3986 0.8259 0.3986
vn 0.3986 0.8259 -0.3986
vn -0.0000 0.8259 0.5638
vn -0.0000 0.8259 -0.5638
vn -0.3986 0.8259 -0.3986
vn -0.3986 0.8259 0.3986
vn 0.1228 -0.7071 -0.6963
vn 0.1228 -0.7071 -0.6964
vn 0.3535 -0.7071 -0.6124
vn 0.3536 -0.7071 -0.6124
vn 0.5417 -0.7071 -0.4545
vn 0.6645 -0.7071 -0.2418
vn 0.7071 -0.7071 -0.0000
vn 0.6645 -0.7071 0.2418
vn 0.5417 -0.7071 0.4545
vn 0.2706 0.7071 0.6533
vn 0.3535 -0.7071 0.6124
vn 0.3536 -0.7071 0.6124
vn 0.1228 -0.7071 0.6963
vn 0.1228 -0.7071 0.6964
vn -0.1228 -0.7071 0.6964
vn -0.3527 -0.7088 0.6109
vn -0.3527 -0.7087 0.6110
vn -0.5429 -0.7055 0.4556
vn -0.5430 -0.7054 0.4556
vn -0.6645 -0.7071 0.2418
vn -0.7071 -0.7071 -0.0000
vn -0.6725 -0.6984 -0.2448
vn -0.6728 -0.6981 -0.2449
vn -0.5352 -0.7154 -0.4491
vn -0.5355 -0.7151 -0.4493
vn -0.3535 -0.7071 -0.6123
vn -0.3536 -0.7071 -0.6124
vn 0.3536 0.7071 -0.6124
vn 0.5417 0.7071 -0.4545
vn 0.7071 0.7071 -0.0000
vn 0.5417 0.7071 0.4545
vn 0.1228 0.7071 0.6964
vn 0.1228 0.7071 0.6963
vn -0.3536 0.7071 0.6124
vn -0.6645 0.7071 0.2418
vn -0.6645 0.7071 -0.2418
vn -0.3536 0.7071 -0.6124
vn -0.1228 0.7071 0.6964
vn -0.5417 0.7071 0.4545
vn -0.7071 0.7071 -0.0000
vn -0.5417 0.7071 -0.4545
vn -0.1228 0.7071 -0.6964
vn 0.6584 0.7135 -0.2396
vn 0.6581 0.7138 -0.2395
vn 0.6645 0.7071 0.2418
vn 0.3536 0.7071 0.6124
vn -0.2752 -0.6949 0.6644
vn -0.2753 -0.6945 0.6647
vn -0.2751 -0.6949 0.6643
vn 0.6118 0.7494 -0.2533
vn 0.6131 0.7481 -0.2540
vn 0.6117 0.7494 -0.2532
vn 0.2954 0.6356 -0.7132
vn 0.2965 0.6329 -0.7152
vn 0.2965 0.6328 -0.7153
vn 0.7071 -0.0000 0.7071
vn -0.0000 -0.0000 1.0000
vn -0.3854 0.0613 0.9207
vn -0.3787 0.1474 0.9137
vn -0.3782 0.1524 0.9131
vn 0.2706 -0.7071 -0.6533
vn 0.2706 0.7071 -0.6533
vn 0.6533 -0.7071 0.2706
vn 0.2479 -0.7618 0.5985
vn 0.2488 -0.7602 0.6002
vn 0.2488 -0.7601 0.6003
vn -0.3109 -0.5829 0.7507
vn -0.3120 -0.5777 0.7542
vn -0.3121 -0.5776 0.7543
vn -0.2706 -0.7071 -0.6533
vn 0.6533 0.7071 0.2706
vn -0.7071 -0.0000 0.7071
vn 0.2488 0.7602 0.6002
vn 0.2479 0.7618 0.5985
vn 0.2488 0.7601 0.6003
vn -0.2571 0.7409 -0.6205
vn -0.2566 0.7420 -0.6194
vn 0.6533 -0.7071 -0.2706
vn 0.2706 -0.7071 0.6533
vn -0.6533 -0.7071 -0.2706
vn -0.6533 -0.7071 0.2706
vn -0.2706 0.7071 -0.6533
vn -0.6533 0.7071 0.2706
vn -0.2706 -0.7071 0.6533
vn 0.7071 -0.0000 -0.7071
vn -0.6533 0.7071 -0.2706
vn -0.1228 -0.7071 -0.6964
vn -0.1228 -0.7071 -0.6963
vn -0.7071 -0.0000 -0.7071
vn -0.0000 -0.0000 -1.0000
vn 0.1228 0.7071 -0.6964
vn 0.6645 0.7071 -0.2418
vn -0.1228 0.7071 0.6963
vn -0.1228 0.7071 -0.6963
vn 0.5471 0.6999 -0.4591
vn 0.5469 0.7002 -0.4589
vn 0.2647 -0.7220 -0.6392
vn 0.2646 -0.7225 -0.6387
vn 0.2645 -0.7226 -0.6387
vn 0.9225 0.0429 0.3836
vn 0.9238 0.0109 0.3827
vn 0.9225 0.0434 0.3836
vn 0.3768 0.1544 0.9133
vn 0.3760 0.1853 0.9079
vn 0.3759 0.1868 0.9076
vn -0.6981 0.6550 -0.2893
vn -0.6966 0.6568 -0.2886
vn -0.6965 0.6570 -0.2885
vn -0.6265 0.7350 0.2595
vn -0.6274 0.7341 0.2598
vn -0.2573 0.7403 -0.6212
vn -0.2567 0.7413 -0.6201
vn -0.2573 0.7402 -0.6212
vn 0.6533 0.7071 -0.2706
vn -0.3109 0.5829 0.7507
vn -0.3120 0.5777 0.7542
vn -0.3108 0.5833 0.7504
vn 0.2890 0.6554 -0.6978
vn 0.2895 0.6535 -0.6994
vn 0.2890 0.6556 -0.6977
vn -0.2706 0.7071 0.6533
vn 0.6691 -0.6895 -0.2772
vn 0.6697 -0.6889 -0.2774
vn 0.6330 -0.7284 0.2622
vn 0.6324 -0.7291 0.2619
vn 0.6331 -0.7283 0.2622
vn 0.2754 -0.6944 0.6648
vn 0.2760 -0.6930 0.6660
vn 0.1228 0.7071 -0.6963
vn -0.2754 -0.6945 0.6648
vn 0.6132 0.7480 -0.2540
vn 0.2953 0.6359 -0.7130
vn -0.3855 0.0599 0.9208
vn 0.2479 -0.7619 0.5984
vn -0.3108 -0.5833 0.7504
vn 0.2479 0.7619 0.5984
vn -0.2565 0.7420 -0.6193
vn 0.9238 0.0089 0.3827
vn 0.3768 0.1538 0.9134
vn -0.6981 0.6549 -0.2893
vn -0.6264 0.7350 0.2595
vn -0.3121 0.5776 0.7543
vn 0.2896 0.6534 -0.6994
vn 0.6697 -0.6888 -0.2774
vn 0.2754 -0.6945 0.6648
vt 0.750000 0.489355
vt 1.000000 0.504016
vt -0.000000 0.504016
vt 0.750000 0.490000
vt 0.250000 0.439037
vt 0.250000 0.438392
vt 0.944444 0.504016
vt 0.832085 0.475526
vt 0.831864 0.474920
vt 0.314434 0.427031
vt 0.314655 0.427637
vt 0.888889 0.504016
vt 0.904269 0.433851
vt 0.903854 0.433357
vt 0.371096 0.394317
vt 0.371511 0.394811
vt 0.833333 0.504016
vt 0.957846 0.370000
vt 0.957287 0.369677
vt 0.413153 0.344196
vt 0.413711 0.344519
vt 0.777778 0.504016
vt 0.986354 0.291676
vt 0.985719 0.291564
vt 0.435530 0.282714
vt 0.436165 0.282826
vt 0.722222 0.504016
vt 0.986354 0.208324
vt 0.985719 0.208436
vt 0.435530 0.217286
vt 0.436165 0.217174
vt 0.666667 0.504016
vt 0.957846 0.130000
vt 0.957287 0.130322
vt 0.413153 0.155804
vt 0.413711 0.155481
vt 0.611111 0.504016
vt 0.904269 0.066149
vt 0.903854 0.066643
vt 0.371096 0.105683
vt 0.371511 0.105189
vt 0.555555 0.504016
vt 0.832085 0.024474
vt 0.831864 0.025080
vt 0.314434 0.072969
vt 0.314655 0.072363
vt 0.500000 0.504016
vt 0.750000 0.010000
vt 0.750000 0.010645
vt 0.250000 0.061608
vt 0.250000 0.060963
vt 0.444444 0.504016
vt 0.667915 0.024474
vt 0.668144 0.025078
vt 0.185566 0.072969
vt 0.185346 0.072363
vt 0.388889 0.504016
vt 0.595731 0.066149
vt 0.596132 0.066655
vt 0.128904 0.105683
vt 0.128489 0.105189
vt 0.333333 0.504016
vt 0.542154 0.130000
vt 0.542715 0.130314
vt 0.086847 0.155804
vt 0.086289 0.155481
vt 0.277778 0.504016
vt 0.513646 0.208324
vt 0.514281 0.208436
vt 0.064470 0.217286
vt 0.063835 0.217174
vt 0.222222 0.504016
vt 0.513646 0.291676
vt 0.514281 0.291608
vt 0.063835 0.282826
vt 0.064470 0.282714
vt 0.166666 0.504016
vt 0.542154 0.370000
vt 0.542667 0.369600
vt 0.086847 0.344196
vt 0.086289 0.344519
vt 0.111111 0.504016
vt 0.595731 0.433851
vt 0.596182 0.433378
vt 0.128904 0.394317
vt 0.128489 0.394811
vt 0.668135 0.474920
vt 0.055555 0.504016
vt 0.667915 0.475526
vt 0.185566 0.427031
vt 0.185346 0.427637
vt 0.944444 0.995984
vt 0.332085 0.475526
vt 0.331864 0.474920
vt 0.250000 0.489355
vt -0.000000 0.995984
vt 1.000000 0.995984
vt 0.250000 0.490000
vt 0.403855 0.433357
vt 0.888889 0.995984
vt 0.404269 0.433851
vt 0.457288 0.369678
vt 0.833333 0.995984
vt 0.457846 0.370000
vt 0.777778 0.995984
vt 0.486354 0.291676
vt 0.485719 0.291564
vt 0.485719 0.208436
vt 0.722222 0.995984
vt 0.486354 0.208324
vt 0.666667 0.995984
vt 0.457846 0.130000
vt 0.457288 0.130322
vt 0.403855 0.066643
vt 0.611111 0.995984
vt 0.404269 0.066149
vt 0.555555 0.995984
vt 0.332085 0.024474
vt 0.331864 0.025080
vt 0.250000 0.010645
vt 0.500000 0.995984
vt 0.250000 0.010000
vt 0.444444 0.995984
vt 0.167915 0.024474
vt 0.168136 0.025080
vt 0.096145 0.066643
vt 0.388889 0.995984
vt 0.095731 0.066149
vt 0.333333 0.995984
vt 0.042154 0.130000
vt 0.042712 0.130322
vt 0.014281 0.208436
vt 0.277778 0.995984
vt 0.013646 0.208324
vt 0.222222 0.995984
vt 0.013646 0.291676
vt 0.014281 0.291564
vt 0.042712 0.369678
vt 0.166666 0.995984
vt 0.042154 0.370000
vt 0.111111 0.995984
vt 0.095731 0.433851
vt 0.096145 0.433357
vt 0.168136 0.474920
vt 0.055555 0.995984
vt 0.167915 0.475526
vt 0.314213 0.426425
vt 0.314434 0.427031
vt 0.250000 0.437748
vt 0.250000 0.438392
vt 0.370682 0.393823
vt 0.371096 0.394317
vt 0.412594 0.343874
vt 0.413153 0.344196
vt 0.434895 0.282602
vt 0.435530 0.282714
vt 0.434895 0.217398
vt 0.435530 0.217286
vt 0.412594 0.156126
vt 0.413153 0.155804
vt 0.370682 0.106177
vt 0.371096 0.105683
vt 0.314434 0.072969
vt 0.314213 0.073575
vt 0.250000 0.062252
vt 0.250000 0.061608
vt 0.185787 0.073575
vt 0.185566 0.072969
vt 0.129287 0.106195
vt 0.128904 0.105683
vt 0.086847 0.155804
vt 0.087441 0.156064
vt 0.065105 0.217432
vt 0.064470 0.217286
vt 0.065105 0.282602
vt 0.064470 0.282714
vt 0.087406 0.343874
vt 0.086847 0.344196
vt 0.129318 0.393823
vt 0.128904 0.394317
vt 0.185787 0.426425
vt 0.185566 0.427031
vt 0.703655 0.224002
vt 0.254897 0.668005
vt 0.702719 0.224680
vt 0.703655 0.225175
vt 0.245103 0.668005
vt 0.710201 0.209371
vt 0.379897 0.668005
vt 0.709185 0.209074
vt 0.709614 0.209614
vt 0.370103 0.668005
vt 0.709371 0.210201
vt 0.125000 0.668005
vt 0.120103 0.668005
vt 0.710201 0.239805
vt 0.129897 0.668005
vt 0.709371 0.238976
vt 0.125000 0.666667
vt 0.709061 0.239994
vt 0.746452 0.224588
vt 0.745103 0.668005
vt 0.745522 0.224002
vt 0.745765 0.224588
vt 0.745522 0.225175
vt 0.754897 0.668005
vt 0.738976 0.239805
vt 0.879897 0.668005
vt 0.739477 0.239843
vt 0.740060 0.240020
vt 0.739562 0.239562
vt 0.870103 0.668005
vt 0.739805 0.238976
vt 0.738976 0.209371
vt 0.620103 0.668005
vt 0.625000 0.668005
vt 0.739805 0.210201
vt 0.629897 0.668005
vt 0.625000 0.666667
vt 0.740048 0.209128
vt 0.000000 0.668005
vt 0.995103 0.668005
vt 0.725175 0.245522
vt 0.724588 0.245765
vt 0.004897 0.668005
vt 0.724002 0.245522
vt 0.724588 0.246428
vt 0.725175 0.203655
vt 0.504897 0.668005
vt 0.724552 0.202709
vt 0.495103 0.668005
vt 0.724002 0.203655
vt 0.209371 0.210201
vt 0.370103 0.772471
vt 0.208956 0.209326
vt 0.209614 0.209614
vt 0.210201 0.209371
vt 0.379897 0.772471
vt 0.203655 0.224002
vt 0.254897 0.772471
vt 0.250000 0.772471
vt 0.203655 0.225175
vt 0.245103 0.772471
vt 0.255194 0.773810
vt 0.203008 0.223692
vt 0.224818 0.202750
vt 0.225175 0.203655
vt 0.504897 0.772471
vt 0.224002 0.203655
vt 0.495103 0.772471
vt 0.210201 0.239805
vt 0.120103 0.772471
vt 0.209672 0.239717
vt 0.209614 0.239562
vt 0.129897 0.772471
vt 0.209371 0.238976
vt 0.004897 0.772471
vt 0.224002 0.245522
vt 0.995103 0.772471
vt 0.225175 0.245522
vt 0.000000 0.772471
vt 0.000000 0.773810
vt 0.224588 0.245871
vt 0.750000 0.772471
vt 0.754897 0.772471
vt 0.245522 0.225175
vt 0.245522 0.224002
vt 0.745103 0.772471
vt 0.750000 0.773810
vt 0.246436 0.224762
vt 0.625000 0.772471
vt 0.239805 0.210201
vt 0.629897 0.772471
vt 0.238976 0.209371
vt 0.620103 0.772471
vt 0.625000 0.773810
vt 0.239901 0.208995
vt 0.238976 0.239805
vt 0.879897 0.772471
vt 0.239968 0.239410
vt 0.870103 0.772471
vt 0.239805 0.238976
vt 0.240444 0.239232
vt 0.774825 0.203655
vt 0.495103 0.668005
vt 0.500000 0.668005
vt 0.775998 0.203655
vt 0.504897 0.668005
vt 0.500000 0.666667
vt 0.775412 0.202724
vt 0.761025 0.209371
vt 0.379897 0.668005
vt 0.759952 0.209128
vt 0.370103 0.668005
vt 0.760195 0.210201
vt 0.760195 0.238976
vt 0.129897 0.668005
vt 0.760010 0.240189
vt 0.120103 0.668005
vt 0.761024 0.239805
vt 0.197413 0.668005
vt 0.756845 0.230888
vt 0.756276 0.231173
vt 0.775022 0.246412
vt 0.000000 0.668005
vt 0.995103 0.668005
vt 0.775998 0.245522
vt 0.775363 0.245845
vt 0.774825 0.245522
vt 0.004897 0.668005
vt 0.796345 0.225175
vt 0.754897 0.668005
vt 0.797276 0.224588
vt 0.745103 0.668005
vt 0.796345 0.224002
vt 0.790969 0.239814
vt 0.870103 0.668005
vt 0.790629 0.238976
vt 0.789799 0.239805
vt 0.879897 0.668005
vt 0.250000 0.668005
vt 0.245103 0.668005
vt 0.754478 0.225175
vt 0.254897 0.668005
vt 0.754478 0.224002
vt 0.250000 0.666667
vt 0.753548 0.224588
vt 0.790872 0.209128
vt 0.620103 0.668005
vt 0.789799 0.209371
vt 0.629897 0.668005
vt 0.790629 0.210201
vt 0.245103 0.772471
vt 0.254478 0.225175
vt 0.253548 0.224588
vt 0.254897 0.772471
vt 0.254478 0.224002
vt 0.181548 0.772471
vt 0.257632 0.232788
vt 0.257037 0.233011
vt 0.260195 0.210201
vt 0.370103 0.772471
vt 0.259906 0.209238
vt 0.261024 0.209371
vt 0.379897 0.772471
vt 0.260195 0.238976
vt 0.129897 0.772471
vt 0.125000 0.772471
vt 0.261024 0.239805
vt 0.120103 0.772471
vt 0.125000 0.773810
vt 0.260010 0.240189
vt 0.750000 0.772471
vt 0.754897 0.772471
vt 0.296345 0.225175
vt 0.296345 0.224002
vt 0.745103 0.772471
vt 0.750000 0.773810
vt 0.297276 0.224588
vt 0.290837 0.209043
vt 0.629897 0.772471
vt 0.290629 0.210201
vt 0.289799 0.209371
vt 0.620103 0.772471
vt 0.289799 0.239805
vt 0.879897 0.772471
vt 0.875000 0.772471
vt 0.870103 0.772471
vt 0.290629 0.238976
vt 0.875000 0.773810
vt 0.290969 0.239814
vt 0.274825 0.245522
vt 0.004897 0.772471
vt 0.995103 0.772471
vt 0.000000 0.772471
vt 0.275998 0.245522
vt 0.000865 0.773810
vt 0.275022 0.246412
vt 0.500000 0.772471
vt 0.275998 0.203655
vt 0.504897 0.772471
vt 0.495103 0.772471
vt 0.274825 0.203655
vt 0.500000 0.773810
vt 0.275614 0.202735
vt 0.703655 0.274825
vt 0.254897 0.668005
vt 0.702725 0.275412
vt 0.245103 0.668005
vt 0.703655 0.275998
vt 0.370103 0.668005
vt 0.709371 0.261025
vt 0.375000 0.668005
vt 0.710201 0.260195
vt 0.379897 0.668005
vt 0.375000 0.666667
vt 0.709128 0.259952
vt 0.709371 0.289799
vt 0.129897 0.668005
vt 0.709128 0.290872
vt 0.120103 0.668005
vt 0.710201 0.290629
vt 0.733932 0.258106
vt 0.577999 0.668005
vt 0.734117 0.257495
vt 0.495103 0.668005
vt 0.724002 0.254478
vt 0.500000 0.668005
vt 0.725175 0.254478
vt 0.504897 0.668005
vt 0.500000 0.666667
vt 0.724588 0.253548
vt 0.724002 0.296345
vt 0.004897 0.668005
vt 0.724588 0.297276
vt 0.725175 0.296345
vt 0.000000 0.668005
vt 0.995103 0.668005
vt 0.745103 0.668005
vt 0.745522 0.274825
vt 0.745765 0.275412
vt 0.745522 0.275998
vt 0.754897 0.668005
vt 0.746452 0.275412
vt 0.739805 0.261024
vt 0.629897 0.668005
vt 0.740048 0.259952
vt 0.620103 0.668005
vt 0.738976 0.260195
vt 0.875000 0.668005
vt 0.870103 0.668005
vt 0.739805 0.289799
vt 0.738975 0.290629
vt 0.879897 0.668005
vt 0.875000 0.666667
vt 0.740048 0.290872
vt 0.254897 0.772471
vt 0.203655 0.274825
vt 0.250000 0.772471
vt 0.203655 0.275998
vt 0.245103 0.772471
vt 0.250000 0.773810
vt 0.202725 0.275412
vt 0.129897 0.772471
vt 0.209371 0.289799
vt 0.125000 0.772471
vt 0.210201 0.290629
vt 0.120103 0.772471
vt 0.125000 0.773810
vt 0.209128 0.290872
vt 0.370103 0.772471
vt 0.209371 0.261024
vt 0.209128 0.259952
vt 0.379897 0.772471
vt 0.210201 0.260195
vt 0.431548 0.772471
vt 0.216388 0.257632
vt 0.216165 0.257037
vt 0.224588 0.297276
vt 0.224002 0.296345
vt 0.004897 0.772471
vt 0.995103 0.772471
vt 0.225175 0.296345
vt 0.000000 0.772471
vt 0.224002 0.254478
vt 0.495103 0.772471
vt 0.224588 0.253548
vt 0.224588 0.254235
vt 0.225175 0.254478
vt 0.504897 0.772471
vt 0.240048 0.259952
vt 0.239805 0.261024
vt 0.629897 0.772471
vt 0.238976 0.260195
vt 0.620103 0.772471
vt 0.745103 0.772471
vt 0.245522 0.274825
vt 0.246452 0.275412
vt 0.245765 0.275412
vt 0.754897 0.772471
vt 0.245522 0.275998
vt 0.239805 0.289799
vt 0.870103 0.772471
vt 0.240048 0.290872
vt 0.238976 0.290629
vt 0.879897 0.772471
vt 0.000000 0.668005
vt 0.995103 0.668005
vt 0.775998 0.296345
vt 0.774825 0.296345
vt 0.004897 0.668005
vt 0.000000 0.666667
vt 0.775412 0.297276
vt 0.796345 0.275998
vt 0.754897 0.668005
vt 0.797276 0.275412
vt 0.796345 0.274825
vt 0.745103 0.668005
vt 0.790872 0.290872
vt 0.870103 0.668005
vt 0.790629 0.289799
vt 0.789799 0.290629
vt 0.879897 0.668005
vt 0.125000 0.668005
vt 0.120103 0.668005
vt 0.761024 0.290629
vt 0.760195 0.289799
vt 0.129897 0.668005
vt 0.125000 0.666667
vt 0.759952 0.290872
vt 0.790872 0.259952
vt 0.620103 0.668005
vt 0.789799 0.260195
vt 0.629897 0.668005
vt 0.790629 0.261024
vt 0.254897 0.668005
vt 0.754478 0.274825
vt 0.753548 0.275412
vt 0.754235 0.275412
vt 0.245103 0.668005
vt 0.754478 0.275998
vt 0.769173 0.256132
vt 0.768622 0.257048
vt 0.443321 0.668005
vt 0.495103 0.668005
vt 0.774825 0.254478
vt 0.500000 0.668005
vt 0.775998 0.254478
vt 0.504897 0.668005
vt 0.500000 0.666667
vt 0.775412 0.253548
vt 0.370103 0.668005
vt 0.760195 0.261024
vt 0.375000 0.668005
vt 0.379897 0.668005
vt 0.761024 0.260195
vt 0.375000 0.666667
vt 0.759952 0.259952
vt 0.260195 0.261024
vt 0.370103 0.772471
vt 0.259952 0.259952
vt 0.379897 0.772471
vt 0.261024 0.260195
vt 0.443321 0.772471
vt 0.268622 0.257048
vt 0.269173 0.256132
vt 0.254478 0.275998
vt 0.245103 0.772471
vt 0.253548 0.275412
vt 0.254235 0.275412
vt 0.254897 0.772471
vt 0.254478 0.274825
vt 0.274825 0.254478
vt 0.495103 0.772471
vt 0.275412 0.253548
vt 0.275998 0.254478
vt 0.504897 0.772471
vt 0.275412 0.297275
vt 0.274825 0.296345
vt 0.004897 0.772471
vt 0.995103 0.772471
vt 0.275998 0.296345
vt 0.000000 0.772471
vt 0.296345 0.274825
vt 0.745103 0.772471
vt 0.297276 0.275412
vt 0.296345 0.275998
vt 0.754897 0.772471
vt 0.290872 0.259952
vt 0.290629 0.261024
vt 0.629897 0.772471
vt 0.620103 0.772471
vt 0.289799 0.260195
vt 0.290872 0.290872
vt 0.879897 0.772471
vt 0.289799 0.290629
vt 0.290629 0.289799
vt 0.870103 0.772471
vt 0.261024 0.290629
vt 0.120103 0.772471
vt 0.259952 0.290872
vt 0.260195 0.289799
vt 0.129897 0.772471
s 1
usemtl MVG_AmberButton
f 108/145/1 2/3/1 70/88/1
f 7/10/2 114/152/2 11/15/2
f 11/15/3 116/154/3 15/20/3
f 15/20/4 118/156/4 19/25/4
f 19/25/5 120/158/5 23/30/5
f 23/30/6 122/160/6 27/35/6
f 28/36/7 87/114/7 86/113/7
f 31/40/8 125/163/8 35/45/8
f 36/46/7 91/120/7 90/119/7
f 39/50/9 130/168/9 43/55/9
f 44/56/7 95/126/7 94/125/7
f 47/60/10 133/171/10 51/65/10
f 56/71/7 98/131/7 52/66/7
f 55/70/11 138/176/11 60/76/11
f 64/81/7 102/137/7 59/75/7
f 63/80/12 142/180/12 67/85/12
f 104/139/13 65/82/13 61/77/13
f 72/91/7 106/143/7 68/86/7
f 4/6/14 110/148/14 7/10/14
f 200/298/15 158/210/15 266/427/15
f 76/97/9 5/7/9 2/2/9
f 96/127/3 49/62/3 45/57/3
f 72/91/7 75/95/7 107/144/7
f 78/100/10 13/17/10 9/12/10
f 80/103/18 17/22/18 13/17/18
f 81/105/11 21/27/11 17/22/11
f 84/109/19 25/32/19 21/27/19
f 85/111/12 29/37/12 25/32/12
f 27/35/13 124/162/13 31/40/13
f 89/117/20 37/47/20 33/42/20
f 35/45/1 128/166/1 39/50/1
f 93/123/2 45/57/2 41/52/2
f 43/55/21 132/170/21 47/60/21
f 97/129/4 53/67/4 49/62/4
f 51/65/18 136/174/18 55/70/18
f 101/135/6 61/77/6 57/72/6
f 60/76/19 140/178/19 63/80/19
f 105/141/8 70/88/8 65/82/8
f 67/85/22 144/182/22 71/90/22
f 73/92/21 9/12/21 5/7/21
f 192/283/7 229/352/7 288/471/7
f 225/343/7 220/335/7 189/277/7
f 175/246/7 127/165/7 189/277/7
f 36/46/7 87/114/7 32/41/7
f 71/90/20 112/150/20 4/6/20
f 64/81/7 106/143/7 103/138/7
f 92/121/14 41/52/14 37/47/14
f 8/11/7 77/99/7 74/94/7
f 295/484/7 292/478/7 347/581/7
f 44/56/7 91/120/7 40/51/7
f 16/21/7 77/99/7 12/16/7
f 8/11/7 75/95/7 3/5/7
f 146/185/15 58/74/15 153/200/15
f 20/26/7 79/102/7 16/21/7
f 52/66/7 95/126/7 48/61/7
f 20/26/7 83/108/7 82/107/7
f 100/133/5 57/72/5 53/67/5
f 28/36/7 83/108/7 24/31/7
f 56/71/7 102/137/7 99/132/7
f 88/115/22 33/42/22 29/37/22
f 165/227/15 255/405/15 158/210/15
f 154/201/15 203/303/15 215/327/15
f 183/263/7 281/458/7 179/253/7
f 145/183/29 146/185/29 147/186/29
f 148/188/30 149/190/30 150/191/30
f 154/201/32 155/203/32 156/204/32
f 157/207/33 158/209/33 159/211/33
f 163/223/35 164/224/35 165/227/35
f 166/228/36 167/230/36 168/232/36
f 169/233/37 170/235/37 171/236/37
f 175/246/39 176/247/39 177/249/39
f 178/251/40 179/253/40 180/254/40
f 190/278/44 191/280/44 192/283/44
f 196/291/46 197/293/46 198/295/46
f 199/296/47 200/298/47 201/300/47
f 204/304/48 205/307/48 206/308/48
f 207/311/32 208/313/32 209/315/32
f 210/316/49 211/318/49 212/319/49
f 216/328/34 217/330/34 218/332/34
f 219/334/51 220/335/51 221/337/51
f 224/341/52 225/343/52 226/344/52
f 233/360/55 234/362/55 235/363/55
f 245/386/50 246/388/50 247/390/50
f 251/398/59 252/400/59 253/402/59
f 259/413/60 260/415/60 261/416/60
f 262/420/32 263/421/32 264/424/32
f 265/425/34 266/427/34 267/429/34
f 277/452/63 278/453/63 279/455/63
f 282/459/64 283/460/64 284/463/64
f 285/465/65 286/467/65 287/468/65
f 288/471/66 289/472/66 290/474/66
f 291/477/54 292/478/54 293/479/54
f 294/482/67 295/484/67 296/485/67
f 300/494/32 301/496/32 302/497/32
f 303/499/61 304/501/61 305/502/61
f 309/511/34 310/513/34 311/515/34
f 312/517/50 313/518/50 314/519/50
f 323/539/63 324/541/63 325/543/63
f 328/547/51 329/549/51 330/550/51
f 331/553/65 332/555/65 333/556/65
f 334/558/64 335/559/64 336/562/64
f 337/564/54 338/566/54 339/567/54
f 340/569/66 341/570/66 342/573/66
f 343/574/67 344/576/67 345/577/67
f 346/579/62 347/581/62 348/582/62
f 2/4/68 6/9/69 1/1/68
f 9/13/70 6/9/71 5/8/71
f 13/18/72 10/14/72 9/13/72
f 17/23/73 14/19/73 13/18/73
f 21/28/74 18/24/74 17/23/74
f 25/33/75 22/29/75 21/28/75
f 25/33/76 30/39/76 26/34/76
f 347/581/77 335/559/77 334/558/77
f 29/38/78 34/44/79 30/39/78
f 37/48/80 34/44/81 33/43/81
f 37/48/82 42/54/82 38/49/82
f 45/58/83 42/54/84 41/53/84
f 49/63/85 46/59/86 45/58/86
f 49/63/87 54/69/87 50/64/87
f 57/73/88 54/69/88 53/68/88
f 57/73/89 62/79/90 58/74/89
f 61/78/91 66/84/92 62/79/91
f 70/89/93 66/84/94 65/83/94
f 77/99/95 73/93/95 74/94/95
f 79/102/96 78/101/96 77/99/96
f 83/108/97 81/106/97 82/107/97
f 87/114/98 85/112/98 86/113/98
f 91/120/99 89/118/100 90/119/100
f 95/126/101 93/124/101 94/125/101
f 99/132/102 97/130/102 98/131/102
f 103/138/103 101/136/103 102/137/103
f 107/144/104 105/142/104 106/143/104
f 112/150/105 109/147/105 110/148/105
f 113/151/101 110/148/101 109/147/101
f 113/151/106 116/154/106 114/152/106
f 119/157/107 118/156/107 117/155/107
f 123/161/108 122/160/108 121/159/108
f 126/164/109 128/166/109 125/163/109
f 129/167/95 132/170/95 130/168/95
f 135/173/110 133/171/111 134/172/111
f 137/175/112 140/178/112 138/176/112
f 141/179/113 144/182/113 142/180/113
f 157/207/114 165/227/115 158/210/116
f 169/233/117 174/245/118 170/235/119
f 175/246/120 171/237/121 170/235/122
f 190/278/125 183/263/126 182/260/127
f 195/290/128 196/291/128 193/284/128
f 281/458/129 285/465/129 280/457/129
f 199/296/130 203/303/130 200/298/130
f 204/304/131 201/300/132 200/298/133
f 210/316/134 205/307/135 204/304/136
f 194/287/137 216/328/137 195/290/137
f 227/346/138 223/340/138 222/339/138
f 228/349/140 241/378/141 229/352/142
f 235/363/143 244/385/144 233/360/143
f 248/392/145 246/388/145 245/386/145
f 252/400/130 247/390/130 246/388/130
f 260/415/146 253/402/146 252/400/146
f 266/427/147 262/420/147 264/424/147
f 263/422/148 270/436/148 264/424/148
f 283/460/77 276/450/77 275/447/77
f 288/471/149 287/469/149 286/467/149
f 295/484/150 293/481/150 292/478/150
f 303/499/151 297/489/151 299/493/151
f 306/506/146 299/493/146 298/490/146
f 256/407/128 250/397/128 249/394/128
f 317/526/128 315/522/128 316/523/128
f 60/76/112 64/81/112 59/75/112
f 327/546/129 331/553/129 326/545/129
f 341/570/153 338/566/153 337/564/153
f 343/574/150 339/567/150 338/566/150
f 319/531/137 310/513/137 309/511/137
f 315/522/128 321/536/128 316/523/128
f 69/87/154 2/4/155 1/1/155
f 162/220/137 166/228/137 160/214/137
f 281/458/129 279/455/129 278/453/129
f 340/569/149 333/556/149 332/555/149
f 7/10/105 3/5/105 4/6/105
f 11/15/101 8/11/101 7/10/101
f 15/20/106 12/16/106 11/15/106
f 19/25/102 16/21/102 15/20/102
f 19/25/107 24/31/107 20/26/107
f 23/30/103 28/36/103 24/31/103
f 31/40/108 28/36/108 27/35/108
f 35/45/104 32/41/104 31/40/104
f 35/45/109 40/51/109 36/46/109
f 43/55/158 40/51/158 39/50/158
f 47/60/95 44/56/95 43/55/95
f 51/65/96 48/61/96 47/60/96
f 55/70/159 52/66/159 51/65/159
f 55/70/97 59/75/97 56/71/97
f 67/85/98 64/81/98 63/80/98
f 71/90/113 68/86/113 67/85/113
f 82/107/159 80/104/159 79/102/159
f 86/113/112 84/110/112 83/108/112
f 90/119/113 88/116/113 87/114/113
f 94/125/105 92/122/160 91/120/160
f 98/131/106 96/128/106 95/126/106
f 102/137/107 100/134/107 99/132/107
f 106/143/108 104/140/108 103/138/108
f 108/146/161 75/95/109 76/98/109
f 117/155/102 116/154/102 115/153/102
f 119/157/103 122/160/103 120/158/103
f 123/161/104 125/163/104 124/162/104
f 129/167/158 128/166/158 127/165/158
f 134/172/162 132/170/163 131/169/163
f 141/179/98 140/178/98 139/177/98
f 112/150/99 143/181/99 111/149/99
f 156/205/148 158/210/148 154/201/148
f 162/220/147 155/203/147 154/201/147
f 168/232/164 149/190/165 148/188/166
f 173/242/167 179/253/168 174/245/169
f 181/258/170 179/253/171 178/251/172
f 187/272/173 186/270/174 185/267/175
f 192/283/176 184/266/177 186/270/177
f 175/246/178 188/274/179 176/247/180
f 207/311/148 210/316/148 208/313/148
f 216/328/147 209/315/147 208/313/147
f 225/343/181 221/337/181 220/335/181
f 234/362/153 232/359/153 231/356/153
f 238/371/150 230/355/150 232/359/150
f 238/371/182 240/376/183 236/365/184
f 225/343/185 243/383/186 226/344/187
f 255/405/137 257/409/137 254/403/137
f 267/429/137 255/405/137 254/403/137
f 260/415/151 269/433/151 261/416/151
f 274/445/138 273/443/138 272/440/138
f 278/453/181 271/438/181 273/443/181
f 288/471/153 291/477/153 289/472/153
f 296/485/188 282/459/188 284/463/188
f 300/494/148 303/499/148 301/496/148
f 301/496/147 311/515/147 302/497/147
f 314/521/130 308/510/130 307/507/130
f 312/517/145 322/538/145 313/518/145
f 327/546/129 325/543/129 324/541/129
f 330/552/181 324/541/181 323/539/181
f 344/576/188 334/558/188 336/562/188
f 348/582/138 329/549/138 328/547/138
f 215/327/145 198/295/145 197/293/145
f 145/183/189 149/190/190 146/185/189
f 146/185/191 152/198/192 147/186/193
f 213/323/130 203/303/130 202/302/130
f 72/91/100 4/6/99 3/5/99
f 165/227/194 151/196/195 153/200/195
f 76/98/196 74/94/158 73/93/158
f 135/173/97 138/176/97 136/174/97
f 219/334/138 223/340/138 220/335/138
f 210/316/15 309/511/15 301/496/15
f 108/145/1 76/96/1 2/3/1
f 7/10/2 110/148/2 114/152/2
f 11/15/3 114/152/3 116/154/3
f 15/20/4 116/154/4 118/156/4
f 19/25/5 118/156/5 120/158/5
f 23/30/6 120/158/6 122/160/6
f 28/36/7 32/41/7 87/114/7
f 31/40/8 124/162/8 125/163/8
f 36/46/7 40/51/7 91/120/7
f 39/50/9 128/166/9 130/168/9
f 44/56/7 48/61/7 95/126/7
f 47/60/10 132/170/10 133/171/10
f 56/71/7 99/132/7 98/131/7
f 55/70/11 136/174/11 138/176/11
f 64/81/7 103/138/7 102/137/7
f 63/80/12 140/178/12 142/180/12
f 104/139/13 105/141/13 65/82/13
f 72/91/7 107/144/7 106/143/7
f 4/6/14 112/150/14 110/148/14
f 322/538/15 315/522/15 200/298/15
f 315/522/15 204/304/15 200/298/15
f 200/298/15 203/303/15 158/210/15
f 264/424/15 313/518/15 322/538/15
f 158/210/15 255/405/15 266/427/15
f 266/427/15 264/424/15 322/538/15
f 322/538/15 200/298/15 266/427/15
f 76/97/9 73/92/9 5/7/9
f 96/127/3 97/129/3 49/62/3
f 72/91/7 3/5/7 75/95/7
f 78/100/10 80/103/10 13/17/10
f 80/103/18 81/105/18 17/22/18
f 81/105/11 84/109/11 21/27/11
f 84/109/19 85/111/19 25/32/19
f 85/111/12 88/115/12 29/37/12
f 27/35/13 122/160/13 124/162/13
f 89/117/20 92/121/20 37/47/20
f 35/45/1 125/163/1 128/166/1
f 93/123/2 96/127/2 45/57/2
f 43/55/21 130/168/21 132/170/21
f 97/129/4 100/133/4 53/67/4
f 51/65/18 133/171/18 136/174/18
f 101/135/6 104/139/6 61/77/6
f 60/76/19 138/176/19 140/178/19
f 105/141/8 108/145/8 70/88/8
f 67/85/22 142/180/22 144/182/22
f 73/92/21 78/100/21 9/12/21
f 324/541/7 329/549/7 288/471/7
f 329/549/7 292/478/7 288/471/7
f 288/471/7 286/467/7 183/263/7
f 241/378/7 327/546/7 229/352/7
f 327/546/7 324/541/7 229/352/7
f 192/283/7 223/340/7 229/352/7
f 324/541/7 288/471/7 229/352/7
f 288/471/7 183/263/7 192/283/7
f 220/335/7 223/340/7 186/270/7
f 223/340/7 192/283/7 186/270/7
f 186/270/7 189/277/7 220/335/7
f 189/277/7 126/164/7 244/385/7
f 225/343/7 189/277/7 244/385/7
f 134/172/7 131/169/7 170/235/7
f 131/169/7 129/167/7 170/235/7
f 170/235/7 129/167/7 175/246/7
f 129/167/7 127/165/7 175/246/7
f 127/165/7 126/164/7 189/277/7
f 36/46/7 90/119/7 87/114/7
f 71/90/20 144/182/20 112/150/20
f 64/81/7 68/86/7 106/143/7
f 92/121/14 93/123/14 41/52/14
f 8/11/7 12/16/7 77/99/7
f 327/546/7 241/378/7 332/555/7
f 241/378/7 238/371/7 332/555/7
f 340/569/7 332/555/7 238/371/7
f 340/569/7 238/371/7 338/566/7
f 238/371/7 232/359/7 338/566/7
f 233/360/7 244/385/7 126/164/7
f 232/359/7 233/360/7 121/159/7
f 233/360/7 126/164/7 123/161/7
f 123/161/7 121/159/7 233/360/7
f 121/159/7 119/157/7 232/359/7
f 119/157/7 117/155/7 338/566/7
f 117/155/7 115/153/7 338/566/7
f 115/153/7 113/151/7 343/574/7
f 338/566/7 115/153/7 343/574/7
f 113/151/7 109/147/7 343/574/7
f 109/147/7 111/149/7 334/558/7
f 111/149/7 143/181/7 282/459/7
f 143/181/7 141/179/7 276/450/7
f 276/450/7 141/179/7 139/177/7
f 139/177/7 137/175/7 273/443/7
f 137/175/7 135/173/7 273/443/7
f 135/173/7 134/172/7 174/245/7
f 134/172/7 170/235/7 174/245/7
f 174/245/7 179/253/7 278/453/7
f 179/253/7 281/458/7 278/453/7
f 135/173/7 174/245/7 273/443/7
f 139/177/7 273/443/7 276/450/7
f 119/157/7 338/566/7 232/359/7
f 174/245/7 278/453/7 273/443/7
f 343/574/7 109/147/7 334/558/7
f 143/181/7 276/450/7 282/459/7
f 292/478/7 329/549/7 347/581/7
f 347/581/7 334/558/7 295/484/7
f 334/558/7 111/149/7 282/459/7
f 295/484/7 334/558/7 282/459/7
f 44/56/7 94/125/7 91/120/7
f 16/21/7 79/102/7 77/99/7
f 8/11/7 74/94/7 75/95/7
f 146/185/15 149/190/15 50/64/15
f 149/190/15 46/59/15 50/64/15
f 50/64/15 54/69/15 146/185/15
f 54/69/15 58/74/15 146/185/15
f 58/74/15 62/79/15 153/200/15
f 20/26/7 82/107/7 79/102/7
f 52/66/7 98/131/7 95/126/7
f 20/26/7 24/31/7 83/108/7
f 100/133/5 101/135/5 57/72/5
f 28/36/7 86/113/7 83/108/7
f 56/71/7 59/75/7 102/137/7
f 88/115/22 89/117/22 33/42/22
f 165/227/15 258/412/15 255/405/15
f 154/201/15 158/210/15 203/303/15
f 183/263/7 286/467/7 281/458/7
f 2/4/68 5/8/69 6/9/69
f 9/13/70 10/14/70 6/9/71
f 13/18/72 14/19/72 10/14/72
f 17/23/73 18/24/73 14/19/73
f 21/28/74 22/29/74 18/24/74
f 25/33/75 26/34/75 22/29/75
f 25/33/76 29/38/76 30/39/76
f 347/581/77 346/579/77 335/559/77
f 29/38/78 33/43/79 34/44/79
f 37/48/80 38/49/80 34/44/81
f 37/48/82 41/53/82 42/54/82
f 45/58/83 46/59/83 42/54/84
f 49/63/85 50/64/85 46/59/86
f 49/63/87 53/68/87 54/69/87
f 57/73/88 58/74/88 54/69/88
f 57/73/89 61/78/90 62/79/90
f 61/78/91 65/83/92 66/84/92
f 70/89/93 69/87/93 66/84/94
f 77/99/95 78/101/95 73/93/95
f 79/102/96 80/104/96 78/101/96
f 83/108/97 84/110/97 81/106/97
f 87/114/98 88/116/98 85/112/98
f 91/120/99 92/122/99 89/118/100
f 95/126/101 96/128/101 93/124/101
f 99/132/102 100/134/102 97/130/102
f 103/138/103 104/140/103 101/136/103
f 107/144/104 108/146/104 105/142/104
f 112/150/105 111/149/105 109/147/105
f 113/151/101 114/152/101 110/148/101
f 113/151/106 115/153/106 116/154/106
f 119/157/107 120/158/107 118/156/107
f 123/161/108 124/162/108 122/160/108
f 126/164/109 127/165/109 128/166/109
f 129/167/95 131/169/95 132/170/95
f 135/173/110 136/174/110 133/171/111
f 137/175/112 139/177/112 140/178/112
f 141/179/113 143/181/113 144/182/113
f 157/207/114 163/223/197 165/227/115
f 169/233/117 172/239/198 174/245/118
f 175/246/120 177/249/199 171/237/121
f 190/278/125 192/283/200 183/263/126
f 195/290/128 197/293/128 196/291/128
f 281/458/129 286/467/129 285/465/129
f 199/296/130 202/302/130 203/303/130
f 204/304/131 206/309/201 201/300/132
f 210/316/134 212/319/202 205/307/135
f 194/287/137 217/330/137 216/328/137
f 227/346/138 229/352/138 223/340/138
f 228/349/140 239/372/203 241/378/141
f 235/363/143 242/380/204 244/385/144
f 248/392/145 250/397/145 246/388/145
f 252/400/130 251/398/130 247/390/130
f 260/415/146 259/413/146 253/402/146
f 266/427/147 265/425/147 262/420/147
f 263/422/148 268/432/148 270/436/148
f 283/460/77 282/459/77 276/450/77
f 288/471/149 290/474/149 287/469/149
f 295/484/150 294/482/150 293/481/150
f 303/499/151 305/502/151 297/489/151
f 306/506/146 308/510/146 299/493/146
f 256/407/128 258/412/128 250/397/128
f 317/526/128 319/531/128 315/522/128
f 60/76/112 63/80/112 64/81/112
f 327/546/129 332/555/129 331/553/129
f 341/570/153 340/569/153 338/566/153
f 343/574/150 345/577/150 339/567/150
f 319/531/137 318/528/137 310/513/137
f 315/522/128 322/538/128 321/536/128
f 69/87/154 70/89/154 2/4/155
f 162/220/137 167/230/137 166/228/137
f 281/458/129 280/457/129 279/455/129
f 340/569/149 342/573/149 333/556/149
f 7/10/105 8/11/105 3/5/105
f 11/15/101 12/16/101 8/11/101
f 15/20/106 16/21/106 12/16/106
f 19/25/102 20/26/102 16/21/102
f 19/25/107 23/30/107 24/31/107
f 23/30/103 27/35/103 28/36/103
f 31/40/108 32/41/108 28/36/108
f 35/45/104 36/46/104 32/41/104
f 35/45/109 39/50/109 40/51/109
f 43/55/158 44/56/158 40/51/158
f 47/60/95 48/61/95 44/56/95
f 51/65/96 52/66/96 48/61/96
f 55/70/159 56/71/159 52/66/159
f 55/70/97 60/76/97 59/75/97
f 67/85/98 68/86/98 64/81/98
f 71/90/113 72/91/113 68/86/113
f 82/107/159 81/106/159 80/104/159
f 86/113/112 85/112/112 84/110/112
f 90/119/113 89/118/113 88/116/113
f 94/125/105 93/124/105 92/122/160
f 98/131/106 97/130/106 96/128/106
f 102/137/107 101/136/107 100/134/107
f 106/143/108 105/142/108 104/140/108
f 108/146/161 107/144/161 75/95/109
f 117/155/102 118/156/102 116/154/102
f 119/157/103 121/159/103 122/160/103
f 123/161/104 126/164/104 125/163/104
f 129/167/158 130/168/158 128/166/158
f 134/172/162 133/171/162 132/170/163
f 141/179/98 142/180/98 140/178/98
f 112/150/99 144/182/99 143/181/99
f 156/205/148 159/213/148 158/210/148
f 162/220/147 161/217/147 155/203/147
f 168/232/164 167/230/164 149/190/165
f 173/242/167 180/256/205 179/253/168
f 181/258/170 183/263/206 179/253/171
f 187/272/173 189/277/207 186/270/174
f 192/283/176 191/282/208 184/266/177
f 175/246/178 189/277/179 188/274/179
f 207/311/148 211/318/148 210/316/148
f 216/328/147 218/332/147 209/315/147
f 225/343/181 224/341/181 221/337/181
f 234/362/153 233/360/153 232/359/153
f 238/371/150 237/369/150 230/355/150
f 238/371/182 241/378/209 240/376/183
f 225/343/185 244/385/210 243/383/186
f 255/405/137 258/412/137 257/409/137
f 267/429/137 266/427/137 255/405/137
f 260/415/151 270/436/151 269/433/151
f 274/445/138 276/450/138 273/443/138
f 278/453/181 277/452/181 271/438/181
f 288/471/153 292/478/153 291/477/153
f 296/485/188 295/484/188 282/459/188
f 300/494/148 304/501/148 303/499/148
f 301/496/147 309/511/147 311/515/147
f 314/521/130 313/518/130 308/510/130
f 312/517/145 320/533/145 322/538/145
f 327/546/129 326/545/129 325/543/129
f 330/552/181 329/549/181 324/541/181
f 344/576/188 343/574/188 334/558/188
f 348/582/138 347/581/138 329/549/138
f 215/327/145 214/325/145 198/295/145
f 145/183/189 150/193/211 149/190/190
f 146/185/191 153/200/192 152/198/192
f 213/323/130 215/327/130 203/303/130
f 72/91/100 71/90/100 4/6/99
f 165/227/194 164/226/212 151/196/195
f 76/98/196 75/95/196 74/94/158
f 135/173/97 137/175/97 138/176/97
f 219/334/138 222/339/138 223/340/138
f 308/510/15 313/518/15 264/424/15
f 308/510/15 264/424/15 270/436/15
f 299/493/15 308/510/15 260/415/15
f 308/510/15 270/436/15 260/415/15
f 250/397/15 258/412/15 165/227/15
f 165/227/15 153/200/15 250/397/15
f 153/200/15 62/79/15 246/388/15
f 250/397/15 153/200/15 246/388/15
f 62/79/15 66/84/15 252/400/15
f 66/84/15 69/87/15 252/400/15
f 252/400/15 69/87/15 260/415/15
f 69/87/15 1/1/15 260/415/15
f 1/1/15 6/9/15 299/493/15
f 260/415/15 1/1/15 299/493/15
f 6/9/15 10/14/15 303/499/15
f 10/14/15 14/19/15 303/499/15
f 6/9/15 303/499/15 299/493/15
f 14/19/15 18/24/15 301/496/15
f 18/24/15 22/29/15 208/313/15
f 208/313/15 22/29/15 26/34/15
f 26/34/15 30/39/15 216/328/15
f 30/39/15 34/44/15 216/328/15
f 34/44/15 38/49/15 195/290/15
f 195/290/15 38/49/15 167/230/15
f 38/49/15 42/54/15 167/230/15
f 42/54/15 46/59/15 149/190/15
f 149/190/15 167/230/15 42/54/15
f 162/220/15 154/201/15 215/327/15
f 167/230/15 162/220/15 195/290/15
f 26/34/15 216/328/15 208/313/15
f 162/220/15 215/327/15 197/293/15
f 162/220/15 197/293/15 195/290/15
f 252/400/15 246/388/15 62/79/15
f 34/44/15 195/290/15 216/328/15
f 18/24/15 208/313/15 301/496/15
f 301/496/15 303/499/15 14/19/15
f 208/313/15 210/316/15 301/496/15
f 210/316/15 204/304/15 319/531/15
f 204/304/15 315/522/15 319/531/15
f 210/316/15 319/531/15 309/511/15
usemtl 
f 166/229/16 188/275/16 160/215/16
f 161/218/17 185/268/17 155/202/17
f 150/192/23 172/240/23 169/234/23
f 196/292/24 243/382/24 193/285/24
f 163/222/25 190/279/25 182/259/25
f 151/195/26 181/257/26 178/252/26
f 147/187/27 180/255/27 173/243/27
f 148/189/24 177/250/24 168/231/24
f 156/206/28 191/281/28 159/212/28
f 207/312/28 237/368/28 211/317/28
f 218/331/17 231/357/17 209/314/17
f 248/391/23 271/437/23 277/451/23
f 198/294/23 221/336/23 224/342/23
f 194/288/16 235/364/16 217/329/16
f 199/297/27 227/347/27 222/338/27
f 201/299/26 239/373/26 228/350/26
f 205/306/25 236/366/25 240/374/25
f 265/426/17 291/476/17 262/419/17
f 297/488/25 344/575/25 336/561/25
f 263/423/28 294/483/28 268/431/28
f 261/418/25 296/486/25 284/462/25
f 253/401/26 283/461/26 275/448/26
f 247/389/27 274/444/27 272/441/27
f 249/395/24 279/454/24 280/456/24
f 254/404/16 257/410/16 287/470/16
f 306/505/26 335/560/26 346/580/26
f 311/514/17 337/565/17 302/498/17
f 314/520/27 348/583/27 328/548/27
f 330/551/23 320/532/23 312/516/23
f 316/524/24 325/542/24 326/544/24
f 318/529/16 342/572/16 310/512/16
f 300/495/28 345/578/28 304/500/28
f 151/194/31 152/197/31 153/199/31
f 160/215/34 161/216/34 162/219/34
f 172/240/38 173/241/38 174/244/38
f 181/257/41 182/261/41 183/262/41
f 184/264/42 185/268/42 186/269/42
f 187/271/43 188/275/43 189/276/43
f 193/285/45 194/286/45 195/289/45
f 213/321/50 214/324/50 215/326/50
f 227/347/53 228/348/53 229/351/53
f 230/353/54 231/357/54 232/358/54
f 236/366/56 237/367/56 238/370/56
f 239/373/57 240/375/57 241/377/57
f 242/379/58 243/382/58 244/384/58
f 248/391/46 249/393/46 250/396/46
f 256/406/45 257/408/45 258/411/45
f 268/430/61 269/434/61 270/435/61
f 271/437/51 272/439/51 273/442/51
f 274/444/62 275/446/62 276/449/62
f 297/487/60 298/491/60 299/492/60
f 306/504/59 307/508/59 308/509/59
f 317/525/45 318/527/45 319/530/45
f 320/532/46 321/534/46 322/537/46
f 178/252/123 152/197/123 151/195/123
f 182/261/124 164/225/124 163/221/124
f 237/368/139 212/320/139 211/317/139
f 272/441/11 245/387/11 247/389/11
f 275/448/123 251/399/123 253/401/123
f 291/476/5 263/423/5 262/419/5
f 323/540/152 321/535/152 320/532/152
f 336/563/124 298/491/124 297/487/124
f 328/548/11 312/516/11 314/520/11
f 277/451/152 249/395/152 248/391/152
f 345/578/139 305/503/139 304/500/139
f 191/281/139 157/208/139 159/212/139
f 342/572/156 311/514/156 310/512/156
f 228/350/123 199/297/123 201/299/123
f 243/382/157 194/288/157 193/285/157
f 240/375/124 206/310/124 205/305/124
f 235/364/156 218/331/156 217/329/156
f 169/234/152 148/189/152 150/192/152
f 177/250/157 166/229/157 168/231/157
f 185/268/5 156/206/5 155/202/5
f 219/333/11 214/324/11 213/322/11
f 231/357/5 207/312/5 209/314/5
f 284/464/124 259/414/124 261/417/124
f 290/475/156 265/426/156 267/428/156
f 331/554/157 318/529/157 317/525/157
f 337/565/5 300/495/5 302/498/5
f 188/275/156 161/218/156 160/215/156
f 224/342/152 196/292/152 198/294/152
f 346/580/123 307/508/123 306/505/123
f 285/466/157 257/410/157 256/406/157
f 173/243/11 145/184/11 147/187/11
f 294/483/139 269/434/139 268/431/139
f 166/229/16 176/248/16 188/275/16
f 161/218/17 187/273/17 185/268/17
f 150/192/23 145/184/23 172/240/23
f 196/292/24 226/345/24 243/382/24
f 163/222/25 157/208/25 190/279/25
f 151/195/26 164/225/26 181/257/26
f 147/187/27 152/197/27 180/255/27
f 148/189/24 171/238/24 177/250/24
f 156/206/28 184/265/28 191/281/28
f 207/312/28 230/354/28 237/368/28
f 218/331/17 234/361/17 231/357/17
f 248/391/23 245/387/23 271/437/23
f 198/294/23 214/324/23 221/336/23
f 194/288/16 242/381/16 235/364/16
f 222/338/27 219/333/27 202/301/27
f 219/333/27 213/322/27 202/301/27
f 202/301/27 199/297/27 222/338/27
f 201/299/26 206/310/26 239/373/26
f 205/306/25 212/320/25 236/366/25
f 265/426/17 289/473/17 291/476/17
f 297/488/25 305/503/25 344/575/25
f 263/423/28 293/480/28 294/483/28
f 261/418/25 269/434/25 296/486/25
f 253/401/26 259/414/26 283/461/26
f 247/389/27 251/399/27 274/444/27
f 280/456/24 285/466/24 256/406/24
f 256/406/24 249/395/24 280/456/24
f 287/470/16 290/475/16 254/404/16
f 290/475/16 267/428/16 254/404/16
f 306/505/26 298/491/26 335/560/26
f 311/514/17 341/571/17 337/565/17
f 314/520/27 307/508/27 348/583/27
f 330/551/23 323/540/23 320/532/23
f 331/554/24 317/525/24 316/524/24
f 316/524/24 321/535/24 325/542/24
f 326/544/24 331/554/24 316/524/24
f 318/529/16 333/557/16 342/572/16
f 300/495/28 339/568/28 345/578/28
f 178/252/123 180/255/123 152/197/123
f 182/261/124 181/257/124 164/225/124
f 237/368/139 236/366/139 212/320/139
f 272/441/11 271/437/11 245/387/11
f 275/448/123 274/444/123 251/399/123
f 291/476/5 293/480/5 263/423/5
f 323/540/152 325/542/152 321/535/152
f 336/563/124 335/560/124 298/491/124
f 328/548/11 330/551/11 312/516/11
f 277/451/152 279/454/152 249/395/152
f 345/578/139 344/575/139 305/503/139
f 191/281/139 190/279/139 157/208/139
f 342/572/156 341/571/156 311/514/156
f 228/350/123 227/347/123 199/297/123
f 243/382/157 242/381/157 194/288/157
f 240/375/124 239/373/124 206/310/124
f 235/364/156 234/361/156 218/331/156
f 169/234/152 171/238/152 148/189/152
f 177/250/157 176/248/157 166/229/157
f 185/268/5 184/265/5 156/206/5
f 219/333/11 221/336/11 214/324/11
f 231/357/5 230/354/5 207/312/5
f 284/464/124 283/461/124 259/414/124
f 290/475/156 289/473/156 265/426/156
f 331/554/157 333/557/157 318/529/157
f 337/565/5 339/568/5 300/495/5
f 188/275/156 187/273/156 161/218/156
f 224/342/152 226/345/152 196/292/152
f 346/580/123 348/583/123 307/508/123
f 285/466/157 287/470/157 257/410/157
f 173/243/11 172/240/11 145/184/11
f 294/483/139 296/486/139 269/434/139
