# Blender 3.4.1
# www.blender.org
mtllib MiniVan_WinchHook.mtl
o MiniVan_WinchHook
v 0.026184 0.069765 0.000000
v 0.000000 0.000000 -0.010800
v 0.033760 0.122800 0.000000
v 0.023784 0.073008 0.000000
v 0.006348 0.000000 -0.008737
v 0.028709 0.087444 0.000000
v 0.026309 0.090686 0.000000
v 0.010271 0.000000 -0.003337
v 0.031235 0.105122 0.000000
v 0.010271 0.000000 0.003337
v 0.021509 0.090686 0.000000
v 0.079000 0.307880 0.000000
v 0.028835 0.108364 0.000000
v 0.006348 0.000000 0.008737
v 0.022676 0.069765 -0.013092
v -0.000000 0.000000 0.010800
v 0.020597 0.073008 -0.011892
v 0.036286 0.140479 0.000000
v 0.024035 0.108364 0.000000
v -0.006348 0.000000 0.008737
v 0.026309 0.084201 0.000000
v 0.021635 0.105122 0.000000
v -0.010271 0.000000 0.003337
v 0.024863 0.087444 -0.014355
v 0.013092 0.069765 -0.022676
v -0.010271 0.000000 -0.003337
v 0.031360 0.126043 0.000000
v 0.011892 0.073008 -0.020597
v -0.006348 0.000000 -0.008737
v 0.022784 0.090686 -0.013155
v 0.018627 0.090686 -0.010755
v 0.024035 0.101880 0.000000
v 0.033886 0.143721 0.000000
v 0.026560 0.126043 0.000000
v 0.000000 0.069765 -0.026184
v 0.022784 0.084201 -0.013155
v 0.028835 0.101880 0.000000
v 0.000000 0.073008 -0.023784
v 0.038811 0.158157 0.000000
v 0.014355 0.087444 -0.024863
v 0.027050 0.105122 -0.015617
v 0.013155 0.090686 -0.022784
v 0.010755 0.090686 -0.018627
v -0.013092 0.069765 -0.022676
v 0.024160 0.122800 0.000000
v -0.011892 0.073008 -0.020597
v 0.024971 0.108364 -0.014417
v 0.026560 0.119558 0.000000
v 0.013155 0.084201 -0.022784
v 0.020815 0.108364 -0.012017
v -0.022676 0.069765 -0.013092
v 0.000000 0.087444 -0.028709
v 0.036411 0.161399 0.000000
v -0.020597 0.073008 -0.011892
v 0.018736 0.105122 -0.010817
v 0.000000 0.090686 -0.026309
v 0.000000 0.090686 -0.021509
v 0.020815 0.101880 -0.012017
v 0.031360 0.119558 0.000000
v -0.026184 0.069765 -0.000000
v 0.024971 0.101880 -0.014417
v -0.023784 0.073008 -0.000000
v 0.029086 0.143721 0.000000
v 0.000000 0.084201 -0.026309
v 0.015617 0.105122 -0.027050
v -0.014355 0.087444 -0.024863
v 0.026686 0.140479 0.000000
v -0.022676 0.069765 0.013092
v -0.020597 0.073008 0.011892
v -0.013155 0.090686 -0.022784
v -0.010755 0.090686 -0.018627
v 0.014417 0.108364 -0.024971
v 0.029237 0.122800 -0.016880
v 0.012017 0.108364 -0.020815
v -0.013155 0.084201 -0.022784
v -0.013092 0.069765 0.022676
v -0.011892 0.073008 0.020597
v -0.000000 0.027880 -0.030000
v 0.027159 0.126043 -0.015680
v -0.024863 0.087444 -0.014355
v 0.010817 0.105122 -0.018736
v -0.022784 0.090686 -0.013155
v 0.023002 0.126043 -0.013280
v 0.000000 0.069765 0.026184
v -0.018627 0.090686 -0.010755
v 0.000000 0.073008 0.023784
v 0.012017 0.101880 -0.020815
v 0.000000 0.167880 -0.010000
v -0.022784 0.084201 -0.013155
v 0.014417 0.101880 -0.024971
v 0.013092 0.069765 0.022676
v -0.028709 0.087444 -0.000000
v 0.011892 0.073008 0.020597
v 0.020923 0.122800 -0.012080
v 0.000000 0.105122 -0.031235
v -0.026309 0.090686 -0.000000
v -0.021509 0.090686 -0.000000
v 0.029086 0.137236 0.000000
v 0.022676 0.069765 0.013092
v 0.000000 0.108364 -0.028835
v 0.023002 0.119558 -0.013280
v 0.020597 0.073008 0.011892
v -0.026309 0.084201 -0.000000
v 0.000000 0.108364 -0.024035
v 0.033886 0.137236 0.000000
v -0.024863 0.087444 0.014355
v -0.022784 0.090686 0.013155
v 0.000000 0.105122 -0.021635
v -0.018627 0.090686 0.010755
v 0.031611 0.161399 0.000000
v 0.000000 0.101880 -0.024035
v 0.027159 0.119558 -0.015680
v 0.000000 0.101880 -0.028835
v -0.022784 0.084201 0.013155
v -0.014355 0.087444 0.024863
v 0.031424 0.140479 -0.018143
v -0.013155 0.090686 0.022784
v -0.015617 0.105122 -0.027050
v 0.016880 0.122800 -0.029237
v -0.010755 0.090686 0.018627
v -0.014417 0.108364 -0.024971
v -0.012017 0.108364 -0.020815
v -0.013155 0.084201 0.022784
v 0.029211 0.158157 0.000000
v 0.000000 0.087444 0.028709
v 0.015680 0.126043 -0.027159
v 0.000000 0.090686 0.026309
v -0.010817 0.105122 -0.018736
v 0.000000 0.090686 0.021509
v 0.013280 0.126043 -0.023002
v -0.012017 0.101880 -0.020815
v 0.029346 0.143721 -0.016943
v 0.000000 0.084201 0.026309
v -0.014417 0.101880 -0.024971
v 0.014355 0.087444 0.024863
v 0.012080 0.122800 -0.020923
v -0.027050 0.105122 -0.015617
v 0.013155 0.090686 0.022784
v -0.024971 0.108364 -0.014417
v 0.010755 0.090686 0.018627
v -0.000000 0.173880 -0.048000
v -0.020815 0.108364 -0.012017
v 0.013155 0.084201 0.022784
v 0.025189 0.143721 -0.014543
v 0.024863 0.087444 0.014355
v 0.013280 0.119558 -0.023002
v 0.022784 0.090686 0.013155
v -0.018736 0.105122 -0.010817
v 0.018627 0.090686 0.010755
v -0.020815 0.101880 -0.012017
v 0.031611 0.154915 0.000000
v 0.015680 0.119558 -0.027159
v 0.022784 0.084201 0.013155
v -0.024971 0.101880 -0.014417
v -0.031235 0.105122 -0.000000
v 0.000000 0.208380 -0.038000
v 0.000000 0.122800 -0.033760
v -0.028835 0.108364 -0.000000
v -0.024035 0.108364 -0.000000
v 0.023110 0.140479 -0.013343
v 0.000000 0.126043 -0.031360
v -0.021635 0.105122 -0.000000
v -0.024035 0.101880 -0.000000
v 0.036411 0.154915 0.000000
v -0.028835 0.101880 -0.000000
v 0.000000 0.126043 -0.026560
v -0.027050 0.105122 0.015617
v 0.000000 0.122800 -0.024160
v -0.024971 0.108364 0.014417
v 0.025189 0.137236 -0.014543
v -0.020815 0.108364 0.012017
v 0.029346 0.137236 -0.016943
v 0.000000 0.119558 -0.026560
v -0.018736 0.105122 0.010817
v -0.020815 0.101880 0.012017
v 0.000000 0.119558 -0.031360
v 0.015000 0.027880 -0.025981
v -0.024971 0.101880 0.014417
v -0.016880 0.122800 -0.029237
v -0.015617 0.105122 0.027050
v -0.014417 0.108364 0.024971
v -0.000000 0.205880 -0.048000
v -0.012017 0.108364 0.020815
v 0.018143 0.140479 -0.031424
v -0.015680 0.126043 -0.027159
v -0.010817 0.105122 0.018736
v -0.013280 0.126043 -0.023002
v -0.012017 0.101880 0.020815
v 0.033611 0.158157 -0.019405
v -0.014417 0.101880 0.024971
v 0.016943 0.143721 -0.029346
v 0.000000 0.105122 0.031235
v -0.012080 0.122800 -0.020923
v 0.000000 0.108364 0.028835
v 0.000000 0.108364 0.024035
v 0.014543 0.143721 -0.025189
v -0.013280 0.119558 -0.023002
v 0.000000 0.105122 0.021635
v -0.015680 0.119558 -0.027159
v 0.000000 0.101880 0.024035
v 0.000000 0.101880 0.028835
v 0.031533 0.161399 -0.018205
v 0.015617 0.105122 0.027050
v 0.013343 0.140479 -0.023110
v -0.029237 0.122800 -0.016880
v 0.014417 0.108364 0.024971
v 0.012017 0.108364 0.020815
v -0.027159 0.126043 -0.015680
v 0.010817 0.105122 0.018736
v 0.005000 0.167880 -0.008660
v -0.023002 0.126043 -0.013280
v 0.012017 0.101880 0.020815
v 0.014417 0.101880 0.024971
v 0.014543 0.137236 -0.025189
v -0.020923 0.122800 -0.012080
v 0.027050 0.105122 0.015617
v 0.024971 0.108364 0.014417
v 0.027376 0.161399 -0.015805
v -0.023002 0.119558 -0.013280
v 0.020815 0.108364 0.012017
v 0.018736 0.105122 0.010817
v 0.016943 0.137236 -0.029346
v 0.020815 0.101880 0.012017
v -0.027159 0.119558 -0.015680
v 0.025981 0.027880 -0.015000
v 0.024971 0.101880 0.014417
v 0.000000 0.140479 -0.036286
v -0.033760 0.122800 -0.000000
v 0.025297 0.158157 -0.014605
v -0.031360 0.126043 -0.000000
v -0.026560 0.126043 -0.000000
v 0.000000 0.143721 -0.033886
v -0.024160 0.122800 -0.000000
v -0.020250 0.223880 0.033500
v -0.026560 0.119558 -0.000000
v 0.000000 0.143721 -0.029086
v -0.031360 0.119558 -0.000000
v 0.041569 0.173880 -0.024000
v -0.029237 0.122800 0.016880
v 0.000000 0.140479 -0.026686
v 0.027376 0.154915 -0.015805
v -0.027159 0.126043 0.015680
v -0.023002 0.126043 0.013280
v 0.031533 0.154915 -0.018205
v -0.020923 0.122800 0.012080
v 0.000000 0.137236 -0.029086
v 0.000000 0.137236 -0.033886
v -0.023002 0.119558 0.013280
v 0.008660 0.167880 -0.005000
v -0.027159 0.119558 0.015680
v -0.016880 0.122800 0.029237
v 0.019405 0.158157 -0.033611
v -0.015680 0.126043 0.027159
v -0.018143 0.140479 -0.031424
v 0.000000 0.219380 -0.038000
v -0.013280 0.126043 0.023002
v -0.016943 0.143721 -0.029346
v -0.012080 0.122800 0.020923
v 0.018205 0.161399 -0.031533
v -0.013280 0.119558 0.023002
v -0.014543 0.143721 -0.025189
v -0.015680 0.119558 0.027159
v -0.013343 0.140479 -0.023110
v 0.000000 0.122800 0.033760
v 0.000000 0.126043 0.031360
v 0.030000 0.027880 0.000000
v 0.000000 0.126043 0.026560
v -0.014543 0.137236 -0.025189
v 0.010000 0.167880 0.000000
v 0.000000 0.122800 0.024160
v -0.016943 0.137236 -0.029346
v 0.000000 0.119558 0.026560
v 0.015805 0.161399 -0.027376
v 0.000000 0.119558 0.031360
v 0.016880 0.122800 0.029237
v -0.031424 0.140479 -0.018143
v 0.014605 0.158157 -0.025297
v 0.015680 0.126043 0.027159
v 0.041569 0.205880 -0.024000
v 0.013280 0.126043 0.023002
v 0.012080 0.122800 0.020923
v -0.029346 0.143721 -0.016943
v 0.013280 0.119558 0.023002
v -0.025189 0.143721 -0.014543
v 0.015805 0.154915 -0.027376
v 0.015680 0.119558 0.027159
v 0.074021 0.307880 0.011059
v 0.029237 0.122800 0.016880
v 0.027159 0.126043 0.015680
v -0.023110 0.140479 -0.013343
v 0.023002 0.126043 0.013280
v -0.025189 0.137236 -0.014543
v 0.018205 0.154915 -0.031533
v 0.020923 0.122800 0.012080
v 0.025981 0.027880 0.015000
v 0.023002 0.119558 0.013280
v 0.027159 0.119558 0.015680
v -0.029346 0.137236 -0.016943
v -0.036286 0.140479 -0.000000
v 0.008660 0.167880 0.005000
v 0.000000 0.158157 -0.038811
v -0.033886 0.143721 -0.000000
v -0.029086 0.143721 -0.000000
v 0.000000 0.161399 -0.036411
v 0.039446 0.178360 0.026816
v -0.026686 0.140479 -0.000000
v -0.029086 0.137236 -0.000000
v 0.015000 0.027880 0.025981
v 0.000000 0.161399 -0.031611
v -0.033886 0.137236 -0.000000
v 0.000000 0.158157 -0.029211
v -0.031424 0.140479 0.018143
v -0.029346 0.143721 0.016943
v -0.039446 0.178360 -0.026816
v 0.019000 0.208380 -0.032909
v -0.025189 0.143721 0.014543
v 0.000000 0.154915 -0.031611
v -0.023110 0.140479 0.013343
v 0.000000 0.154915 -0.036411
v -0.025189 0.137236 0.014543
v 0.005000 0.167880 0.008660
v -0.029346 0.137236 0.016943
v -0.019405 0.158157 -0.033611
v -0.018143 0.140479 0.031424
v -0.016943 0.143721 0.029346
v -0.000000 0.256480 -0.035000
v -0.014543 0.143721 0.025189
v -0.000000 0.027880 0.030000
v -0.013343 0.140479 0.023110
v -0.018205 0.161399 -0.031533
v 0.000000 0.167880 0.010000
v -0.014543 0.137236 0.025189
v -0.015805 0.161399 -0.027376
v -0.016943 0.137236 0.029346
v 0.039446 0.201400 0.026816
v 0.000000 0.140479 0.036286
v 0.000000 0.143721 0.033886
v -0.014605 0.158157 -0.025297
v 0.000000 0.143721 0.029086
v 0.019000 0.219380 -0.032909
v 0.000000 0.140479 0.026686
v -0.015805 0.154915 -0.027376
v 0.000000 0.137236 0.029086
v -0.015000 0.027880 0.025981
v 0.000000 0.137236 0.033886
v -0.018205 0.154915 -0.031533
v 0.018143 0.140479 0.031424
v -0.033611 0.158157 -0.019406
v 0.016943 0.143721 0.029346
v -0.003500 0.178360 0.047569
v -0.005000 0.167880 0.008660
v 0.014543 0.143721 0.025189
v 0.013343 0.140479 0.023110
v -0.031533 0.161399 -0.018206
v 0.062000 0.307880 0.015640
v 0.014543 0.137236 0.025189
v -0.027376 0.161399 -0.015806
v 0.016943 0.137236 0.029346
v 0.031424 0.140479 0.018143
v -0.025297 0.158157 -0.014606
v 0.029346 0.143721 0.016943
v -0.025981 0.027880 0.015000
v -0.027376 0.154915 -0.015806
v 0.025189 0.143721 0.014543
v 0.023110 0.140479 0.013343
v -0.008660 0.167880 0.005000
v 0.025189 0.137236 0.014543
v -0.031533 0.154915 -0.018206
v 0.042946 0.178360 0.020754
v 0.029346 0.137236 0.016943
v -0.038811 0.158157 -0.000000
v 0.032909 0.208380 -0.019000
v -0.036411 0.161399 -0.000000
v -0.030000 0.027880 0.000000
v -0.010000 0.167880 0.000000
v -0.031611 0.161399 -0.000000
v -0.029211 0.158157 -0.000000
v -0.003500 0.201400 0.047569
v -0.020250 0.239880 0.033500
v -0.031611 0.154915 -0.000000
v -0.025981 0.027880 -0.015000
v -0.036411 0.154915 -0.000000
v -0.033611 0.158157 0.019405
v 0.042946 0.201400 0.020754
v -0.031533 0.161399 0.018205
v -0.008660 0.167880 -0.005000
v -0.027376 0.161399 0.015805
v -0.042946 0.178360 0.020754
v -0.025297 0.158157 0.014605
v -0.015000 0.027880 -0.025981
v -0.027376 0.154915 0.015805
v -0.005000 0.167880 -0.008660
v -0.031533 0.154915 0.018205
v 0.032909 0.219380 -0.019000
v 0.003500 0.178360 0.047569
v -0.019405 0.158157 0.033611
v 0.049979 0.307880 0.011059
v -0.018205 0.161399 0.031533
v -0.015805 0.161399 0.027376
v 0.041569 0.173880 0.024000
v -0.014605 0.158157 0.025297
v 0.038000 0.208380 0.000000
v 0.003500 0.201400 0.047569
v -0.015805 0.154915 0.027376
v -0.000000 0.256480 0.035000
v -0.018205 0.154915 0.031533
v 0.000000 0.158157 0.038811
v -0.042946 0.201400 0.020754
v 0.000000 0.161399 0.036411
v 0.038000 0.219380 0.000000
v 0.000000 0.161399 0.031611
v -0.039446 0.201400 -0.026816
v 0.045000 0.307880 0.000000
v 0.000000 0.158157 0.029211
v 0.032909 0.208380 0.019000
v 0.000000 0.154915 0.031611
v 0.000000 0.154915 0.036411
v -0.039446 0.178360 0.026816
v 0.019405 0.158157 0.033611
v -0.039446 0.201400 0.026816
v 0.032909 0.219380 0.019000
v 0.018205 0.161399 0.031533
v 0.005303 0.254283 -0.035000
v 0.015805 0.161399 0.027376
v 0.014605 0.158157 0.025297
v 0.003500 0.178360 -0.047569
v 0.015805 0.154915 0.027376
v 0.049979 0.307880 -0.011059
v 0.018205 0.154915 0.031533
v 0.042946 0.178360 -0.020754
v 0.019000 0.208380 0.032909
v 0.033611 0.158157 0.019405
v 0.031533 0.161399 0.018205
v -0.042946 0.178360 -0.020754
v 0.027376 0.161399 0.015805
v 0.019000 0.219380 0.032909
v 0.025297 0.158157 0.014605
v -0.042946 0.201400 -0.020754
v 0.027376 0.154915 0.015805
v 0.003500 0.201400 -0.047569
v 0.031533 0.154915 0.018205
v -0.015000 0.281680 -0.017000
v 0.041569 0.205880 0.024000
v 0.000000 0.208380 0.038000
v -0.003500 0.178360 -0.047569
v 0.062000 0.307880 -0.015640
v 0.042946 0.201400 -0.020754
v 0.000000 0.219380 0.038000
v -0.003500 0.201400 -0.047569
v -0.015000 0.281680 0.032000
v -0.000000 0.173880 0.048000
v 0.074021 0.307880 -0.011059
v -0.019000 0.208380 0.032909
v 0.039446 0.178360 -0.026816
v -0.019000 0.219380 0.032909
v 0.000000 0.205880 0.048000
v 0.005303 0.254283 0.035000
v 0.039446 0.201400 -0.026816
v -0.041569 0.173880 0.024000
v -0.032909 0.208380 0.019000
v 0.071177 0.344899 0.000000
v -0.041569 0.205880 0.024000
v -0.041569 0.173880 -0.024000
v -0.020250 0.223880 -0.033500
v -0.041569 0.205880 -0.024000
v -0.032909 0.219380 0.019000
v -0.038000 0.208380 0.000000
v 0.038069 0.201400 -0.026021
v 0.066690 0.342566 0.011059
v 0.038069 0.178360 -0.026021
v 0.040823 0.178360 -0.024431
v -0.038000 0.219380 0.000000
v 0.040823 0.201400 -0.024431
v 0.007500 0.248980 -0.035000
v 0.055860 0.336933 0.015640
v 0.041569 0.178360 -0.019959
v -0.032909 0.208380 -0.019000
v 0.041569 0.201400 -0.019959
v -0.032909 0.219380 -0.019000
v 0.041569 0.178360 -0.023138
v 0.041569 0.201400 -0.023138
v -0.015000 0.281680 -0.032000
v 0.045030 0.331300 0.011059
v 0.000746 0.178360 -0.047569
v -0.019000 0.208380 -0.032909
v 0.000746 0.201400 -0.047569
v 0.003500 0.201400 -0.045979
v 0.007500 0.248980 0.035000
v -0.019000 0.219380 -0.032909
v 0.003500 0.178360 -0.045979
v 0.040544 0.328967 0.000000
v -0.003500 0.201400 -0.045979
v -0.003500 0.178360 -0.045979
v -0.020250 0.239880 -0.033500
v 0.005303 0.243677 -0.035000
v -0.000746 0.178360 -0.047569
v 0.045030 0.331300 -0.011059
v -0.000746 0.201400 -0.047569
v 0.055860 0.336933 -0.015640
v -0.041569 0.201400 -0.019959
v -0.041569 0.178360 -0.019959
v 0.005303 0.243677 0.035000
v 0.066690 0.342566 -0.011059
v -0.041569 0.178360 -0.023138
v -0.041569 0.201400 -0.023138
v -0.015000 0.281680 0.017000
v 0.049256 0.374586 0.000000
v -0.040823 0.178360 -0.024431
v -0.000000 0.241480 -0.035000
v -0.040823 0.201400 -0.024431
v 0.046151 0.370382 0.011059
v -0.038069 0.201400 -0.026021
v 0.015000 0.281680 -0.017000
v -0.038069 0.178360 -0.026021
v -0.040823 0.178360 0.024431
v 0.038656 0.360231 0.015640
v -0.000000 0.241480 0.035000
v -0.040823 0.201400 0.024431
v -0.038069 0.201400 0.026021
v 0.031162 0.350081 0.011059
v -0.038069 0.178360 0.026021
v 0.020250 0.223880 0.033500
v 0.028057 0.345877 0.000000
v -0.041569 0.178360 0.023138
v -0.041569 0.201400 0.023138
v 0.020250 0.239880 0.033500
v 0.031162 0.350081 -0.011059
v -0.041569 0.201400 0.019959
v -0.005303 0.243677 -0.035000
v -0.041569 0.178360 0.019959
v 0.038656 0.360231 -0.015640
v 0.000746 0.178360 0.047569
v -0.005303 0.243677 0.035000
v 0.000746 0.201400 0.047569
v 0.003500 0.201400 0.045979
v 0.046151 0.370382 -0.011059
v 0.015000 0.281680 -0.032000
v 0.003500 0.178360 0.045979
v 0.017579 0.391061 0.000000
v -0.003500 0.178360 0.045979
v -0.003500 0.201400 0.045979
v -0.007500 0.248980 -0.035000
v 0.016471 0.385818 0.011059
v -0.000746 0.178360 0.047569
v -0.000746 0.201400 0.047569
v 0.015000 0.281680 0.032000
v 0.041569 0.178360 0.023138
v 0.013796 0.373161 0.015640
v 0.041569 0.201400 0.023138
v 0.020250 0.223880 -0.033500
v 0.041569 0.201400 0.019959
v 0.011121 0.360504 0.011059
v -0.007500 0.248980 0.035000
v 0.041569 0.178360 0.019959
v 0.010013 0.355262 0.000000
v 0.038069 0.178360 0.026021
v 0.020250 0.239880 -0.033500
v 0.038069 0.201400 0.026021
v 0.011121 0.360504 -0.011059
v 0.040823 0.178360 0.024431
v 0.040823 0.201400 0.024431
v -0.005303 0.254283 -0.035000
v 0.013796 0.373161 -0.015640
v 0.015000 0.281680 0.017000
v -0.005303 0.254283 0.035000
v 0.016471 0.385818 -0.011059
v -0.017579 0.391061 0.000000
v -0.015000 0.239880 0.017000
v -0.016471 0.385818 0.011059
v -0.015000 0.239880 0.032000
v -0.013796 0.373161 0.015640
v 0.015000 0.239880 0.032000
v 0.015000 0.239880 0.017000
v -0.011121 0.360504 0.011059
v -0.010013 0.355262 0.000000
v -0.015000 0.239880 -0.017000
v -0.011121 0.360504 -0.011059
v -0.015000 0.239880 -0.032000
v -0.013796 0.373161 -0.015640
v 0.015000 0.239880 -0.017000
v -0.016471 0.385818 -0.011059
v 0.015000 0.239880 -0.032000
v 0.005303 0.254283 0.017000
v -0.049256 0.374586 0.000000
v -0.046151 0.370382 0.011059
v -0.007500 0.248980 0.017000
v -0.038656 0.360231 0.015640
v -0.000000 0.241480 0.017000
v -0.031162 0.350081 0.011059
v -0.005303 0.243677 0.017000
v -0.028057 0.345877 0.000000
v -0.005303 0.254283 0.017000
v -0.031162 0.350081 -0.011059
v 0.007500 0.248980 0.017000
v -0.038656 0.360231 -0.015640
v 0.005303 0.243677 0.017000
v -0.046151 0.370382 -0.011059
v 0.000000 0.256480 0.017000
v -0.071177 0.344899 0.000000
v 0.005303 0.254283 0.032000
v -0.066690 0.342566 0.011059
v -0.007500 0.248980 0.032000
v -0.055860 0.336933 0.015640
v -0.005303 0.254283 0.032000
v -0.045030 0.331300 0.011059
v -0.005303 0.243677 0.032000
v -0.040544 0.328967 0.000000
v 0.007500 0.248980 0.032000
v -0.045030 0.331300 -0.011059
v 0.005397 0.243904 0.032000
v -0.055860 0.336933 -0.015640
v 0.000000 0.241480 0.032000
v -0.066690 0.342566 -0.011059
v 0.005303 0.243677 0.032000
v -0.079000 0.307880 0.000000
v -0.000000 0.256480 0.032000
v -0.074021 0.307880 0.011059
v -0.005303 0.254283 -0.032000
v -0.062000 0.307880 0.015640
v -0.007500 0.248980 -0.032000
v -0.005397 0.243904 -0.032000
v -0.049979 0.307880 0.011059
v -0.045000 0.307880 -0.000000
v -0.005303 0.243677 -0.032000
v 0.000000 0.241480 -0.032000
v -0.049979 0.307880 -0.011059
v 0.007500 0.248980 -0.032000
v -0.062000 0.307880 -0.015640
v 0.005303 0.243677 -0.032000
v -0.074021 0.307880 -0.011059
v 0.005303 0.254283 -0.032000
v -0.071177 0.270861 -0.000000
v 0.000000 0.256480 -0.032000
v -0.066690 0.273194 0.011059
v -0.055860 0.278827 0.015640
v 0.005303 0.254283 -0.017000
v -0.045030 0.284460 0.011059
v -0.007500 0.248980 -0.017000
v -0.005303 0.243677 -0.017000
v -0.040544 0.286793 -0.000000
v -0.005303 0.254283 -0.017000
v -0.045030 0.284460 -0.011059
v 0.007500 0.248980 -0.017000
v -0.055860 0.278827 -0.015640
v 0.005303 0.243677 -0.017000
v -0.066690 0.273194 -0.011059
v -0.000000 0.241480 -0.017000
v -0.049256 0.241174 -0.000000
v -0.046151 0.245378 0.011059
v -0.000000 0.256480 -0.017000
v -0.038656 0.255529 0.015640
v -0.031162 0.265679 0.011059
v -0.028057 0.269883 -0.000000
v -0.031162 0.265679 -0.011059
v -0.038656 0.255529 -0.015640
v -0.046151 0.245378 -0.011059
v -0.013796 0.242599 0.015640
v -0.011121 0.255256 0.011059
v -0.010013 0.260499 -0.000000
v -0.011121 0.255256 -0.011059
v -0.013796 0.242599 -0.015640
v 0.013796 0.242599 0.015640
v 0.011121 0.255256 0.011059
v 0.010013 0.260499 -0.000000
v 0.011121 0.255256 -0.011059
v 0.013796 0.242599 -0.015640
v 0.049256 0.241174 -0.000000
v 0.046151 0.245378 0.011059
v 0.038656 0.255529 0.015640
v 0.031161 0.265679 0.011059
v 0.028057 0.269883 -0.000000
v 0.031161 0.265679 -0.011059
v 0.038656 0.255529 -0.015640
v 0.046151 0.245378 -0.011059
v 0.071177 0.270861 -0.000000
v 0.066690 0.273194 0.011059
v 0.055860 0.278827 0.015640
v 0.045030 0.284460 0.011059
v 0.040544 0.286793 -0.000000
v 0.045030 0.284460 -0.011059
v 0.055860 0.278827 -0.015640
v 0.066690 0.273194 -0.011059
v -0.020250 0.226088 -0.000000
v -0.020250 0.231907 0.011059
v -0.020250 0.239880 0.013659
v -0.014371 0.239880 0.014656
v -0.020250 0.239880 -0.013659
v -0.014371 0.239880 -0.014656
v -0.020250 0.231907 -0.011059
v 0.014371 0.239880 0.014656
v -0.002701 0.242599 0.015640
v 0.002701 0.242599 0.015640
v -0.000000 0.241480 0.015235
v -0.005303 0.243677 0.015250
v 0.007500 0.248980 0.013331
v 0.005303 0.243677 0.015250
v -0.007500 0.248980 0.013331
v -0.005303 0.254283 0.011411
v 0.005303 0.254283 0.011411
v 0.002955 0.255256 0.011059
v -0.002955 0.255256 0.011059
v -0.000000 0.256480 0.008477
v -0.002955 0.255256 -0.011059
v -0.000000 0.256480 -0.008477
v 0.002955 0.255256 -0.011059
v -0.005303 0.254283 -0.011411
v 0.007500 0.248980 -0.013331
v 0.005303 0.254283 -0.011411
v -0.007500 0.248980 -0.013331
v -0.005303 0.243677 -0.015250
v 0.005303 0.243677 -0.015250
v 0.002701 0.242599 -0.015640
v -0.002701 0.242599 -0.015640
v 0.000000 0.241480 -0.015235
v 0.014371 0.239880 -0.014656
v 0.020250 0.226088 -0.000000
v 0.020250 0.231907 0.011059
v 0.020250 0.239880 0.013659
v 0.020250 0.239880 -0.013659
v 0.020250 0.231907 -0.011059
v 0.000000 0.090141 -0.021106
v -0.000000 0.084201 -0.021954
v 0.010977 0.084201 -0.019013
v 0.010553 0.090141 -0.018278
v 0.018278 0.090141 -0.010553
v 0.019013 0.084201 -0.010977
v 0.021954 0.084201 0.000000
v 0.021106 0.090141 0.000000
v 0.019013 0.084201 0.010977
v 0.018278 0.090141 0.010553
v 0.010977 0.084201 0.019013
v 0.010553 0.090141 0.018278
v 0.000000 0.090141 0.021106
v 0.000000 0.084201 0.021954
v -0.010977 0.084201 0.019013
v -0.010553 0.090141 0.018278
v -0.019013 0.084201 0.010977
v -0.018278 0.090141 0.010553
v -0.021954 0.084201 0.000000
v -0.021106 0.090141 -0.000000
v -0.019013 0.084201 -0.010977
v -0.018278 0.090141 -0.010553
v -0.010977 0.084201 -0.019013
v -0.010553 0.090141 -0.018278
v 0.000000 0.073008 -0.023553
v 0.000000 0.067311 -0.024367
v 0.012183 0.067311 -0.021102
v 0.011777 0.073008 -0.020398
v 0.017809 0.067311 -0.015477
v 0.021102 0.067311 -0.012183
v 0.020398 0.073008 -0.011777
v 0.018215 0.073008 -0.013959
v 0.024367 0.067311 0.000000
v 0.023553 0.073008 0.000000
v 0.020398 0.073008 0.011777
v 0.021102 0.067311 0.012183
v -0.000000 0.073008 0.023553
v 0.012183 0.067311 0.021102
v 0.011777 0.073008 0.020398
v 0.000000 0.067311 0.024367
v -0.012183 0.067311 0.021102
v -0.011777 0.073008 0.020398
v -0.024367 0.067311 0.000000
v -0.023553 0.073008 0.000000
v -0.021102 0.067311 0.012183
v -0.020398 0.073008 0.011777
v -0.021196 0.073008 0.008795
v -0.022308 0.067311 0.007685
v -0.021102 0.067311 -0.012183
v -0.020398 0.073008 -0.011777
v -0.012183 0.067311 -0.021102
v -0.011777 0.073008 -0.020398
v -0.017809 0.067311 -0.015477
v -0.018215 0.073008 -0.013959
v -0.008795 0.073008 -0.021196
v -0.007685 0.067311 -0.022308
v -0.003253 0.027880 -0.001057
v -0.003253 0.027880 0.001057
v -0.002010 0.027880 0.002767
v -0.002010 0.027880 -0.002767
v 0.002010 0.027880 -0.002767
v 0.003253 0.027880 0.001057
v 0.003253 0.027880 -0.001057
v 0.002010 0.027880 0.002767
v 0.000000 0.027880 -0.003420
v 0.000000 0.027880 0.003420
vn 0.4380 0.8627 -0.2529
vn -0.3864 0.9223 -0.0000
vn 0.5058 0.8627 -0.0000
vn 1.0000 -0.0000 -0.0000
vn 0.3346 -0.9223 0.1932
vn 0.8660 -0.0000 0.5000
vn -0.3346 -0.9223 -0.1932
vn 0.2529 -0.8627 0.4380
vn -0.1932 -0.9223 -0.3346
vn -0.0000 0.8627 0.5058
vn 0.1932 0.9223 -0.3346
vn -0.2529 0.8627 0.4380
vn -0.5000 -0.0000 -0.8660
vn -0.0000 -0.9223 -0.3864
vn -0.0000 -0.0000 -1.0000
vn 0.7887 -0.5774 0.2113
vn 0.9545 0.1818 0.2362
vn 0.9545 -0.1818 0.2362
vn 0.7887 0.5774 0.2113
vn 0.9881 0.0852 -0.1278
vn 0.6464 0.2894 0.7060
vn 0.7109 -0.0000 0.7033
vn 0.4570 0.5328 -0.7122
vn 0.9110 0.4124 -0.0000
vn 0.6464 0.2894 -0.7060
vn 0.7764 -0.0000 -0.6303
vn 0.4203 -0.4203 -0.8042
vn 0.5490 -0.5490 -0.6303
vn -0.6557 0.6532 -0.3786
vn -0.3786 -0.6532 -0.6557
vn -0.6557 -0.6532 -0.3786
vn 0.5490 -0.5490 0.6303
vn 0.6533 -0.2706 0.7071
vn 0.7764 -0.0000 0.6303
vn 0.5774 0.5773 -0.5774
vn -0.3015 0.9045 -0.3015
vn 0.3015 0.9045 -0.3015
vn 0.0351 0.0353 -0.9988
vn 0.0449 0.0170 -0.9988
vn -0.0000 -0.7764 0.6303
vn 0.4203 -0.4203 0.8042
vn -0.6862 -0.6100 -0.3962
vn -0.6047 0.0852 -0.7919
vn -0.6047 -0.0852 -0.7919
vn -0.5490 -0.5490 -0.6303
vn -0.0000 -0.5944 -0.8042
vn -0.4203 -0.4203 -0.8042
vn 0.5774 0.5774 -0.5774
vn 0.3015 0.9045 0.3015
vn -0.5490 -0.5490 0.6303
vn -0.0000 -0.5944 0.8042
vn 0.5774 -0.5774 0.5774
vn 0.5774 -0.5774 -0.5774
vn 0.9235 -0.3835 -0.0000
vn -0.1505 -0.6142 -0.7747
vn -0.4175 -0.4875 -0.7668
vn -0.6533 -0.2706 -0.7071
vn -0.5944 -0.0000 0.8042
vn -0.4203 -0.4203 0.8042
vn 0.6466 0.7628 -0.0000
vn 0.1661 0.6766 0.7174
vn 0.4570 0.5328 0.7122
vn -0.1661 0.6766 -0.7174
vn 0.2357 0.9718 -0.0000
vn 0.1661 0.6766 -0.7174
vn 0.1505 -0.6142 0.7747
vn -0.2397 -0.9708 -0.0000
vn -0.1505 -0.6142 0.7747
vn -0.7764 -0.0000 0.6303
vn -0.4203 0.4203 0.8042
vn 0.1505 -0.6142 -0.7747
vn 0.0138 0.0490 -0.9987
vn -0.0138 0.0490 -0.9987
vn -0.6466 0.7628 -0.0000
vn -0.1661 0.6766 0.7174
vn -0.2357 0.9718 -0.0000
vn -0.7764 -0.0000 -0.6303
vn -0.4203 0.4203 -0.8042
vn -0.5490 0.5490 -0.6303
vn 0.4175 -0.4875 0.7668
vn 0.2397 -0.9708 -0.0000
vn 0.4175 -0.4875 -0.7668
vn -0.3015 0.9045 0.3015
vn 0.4203 0.4203 -0.8042
vn 0.5897 0.3188 0.7421
vn 0.3391 0.6365 0.6927
vn -0.4570 0.5328 -0.7122
vn -0.9110 0.4124 -0.0000
vn -0.5215 -0.1617 0.8378
vn -0.5944 -0.0000 -0.8042
vn -0.5897 0.3188 0.7421
vn -0.2565 -0.7736 0.5795
vn 0.6533 -0.7571 -0.0000
vn 0.5957 -0.2670 -0.7576
vn -0.0000 0.5944 -0.8042
vn -0.0000 0.9464 0.3229
vn -0.2339 0.9438 0.2334
vn 0.5944 -0.0000 -0.8042
vn 0.5215 -0.1617 0.8378
vn -1.0000 -0.0000 -0.0000
vn -0.6464 0.2894 0.7060
vn -0.0351 0.0353 0.9988
vn -0.4570 0.5328 0.7122
vn -0.6464 0.2894 -0.7060
vn -0.0471 -0.0000 0.9989
vn 0.5957 -0.2670 0.7576
vn -0.0449 0.0170 0.9988
vn 0.6573 -0.0000 0.7536
vn 0.9136 -0.4065 -0.0000
vn 0.6573 -0.0000 -0.7536
vn -0.0471 -0.0000 -0.9989
vn -0.0449 0.0170 -0.9988
vn -0.7109 -0.0000 -0.7033
vn -0.6464 -0.2894 0.7060
vn -0.7109 -0.0000 0.7033
vn -0.6464 -0.2894 -0.7060
vn 0.5957 0.2670 0.7576
vn 0.9136 0.4065 -0.0000
vn 0.5957 0.2670 -0.7576
vn -0.0449 -0.0170 -0.9988
vn -0.9110 -0.4124 -0.0000
vn -0.4570 -0.5328 0.7122
vn -0.0449 -0.0170 0.9988
vn -0.4570 -0.5328 -0.7122
vn 0.4175 0.4875 0.7668
vn 0.5897 0.3188 -0.7421
vn 0.4203 0.4203 0.8042
vn 0.3391 0.6365 -0.6927
vn -0.5215 -0.1617 -0.8378
vn -0.5897 0.3188 -0.7421
vn -0.3391 0.6365 -0.6927
vn -0.2339 0.9438 -0.2334
vn 0.5215 -0.1617 -0.8378
vn 0.5944 -0.0000 0.8042
vn 0.2565 -0.7736 -0.5795
vn -0.0351 -0.0353 0.9988
vn -0.6466 -0.7628 -0.0000
vn -0.8859 -0.3257 -0.3304
vn -0.9235 -0.3835 -0.0000
vn 0.1505 0.6142 0.7747
vn 0.2397 0.9708 -0.0000
vn 0.6533 0.7571 -0.0000
vn 0.4175 0.4875 -0.7668
vn 0.1505 0.6142 -0.7747
vn -0.0351 -0.0353 -0.9988
vn -0.0138 -0.0490 -0.9987
vn -0.0766 0.6038 -0.7935
vn -0.5150 -0.0046 -0.8572
vn -0.0138 -0.0490 0.9987
vn -0.8859 -0.3257 0.3304
vn -0.5150 -0.0046 0.8572
vn -0.4175 0.4875 0.7668
vn -0.2397 0.9708 -0.0000
vn -0.1505 0.6142 0.7747
vn -0.0000 -0.7309 0.6824
vn 0.0766 0.6038 0.7935
vn 0.2565 -0.7736 0.5795
vn -0.0000 0.9464 -0.3229
vn 0.2339 0.9438 -0.2334
vn 0.4570 -0.5328 -0.7122
vn 0.8859 -0.3257 -0.3304
vn 0.5150 -0.0046 -0.8572
vn -0.0000 -0.7309 -0.6824
vn -0.2565 -0.7736 -0.5795
vn 0.0351 -0.0353 0.9988
vn 0.0138 -0.0490 0.9987
vn 0.9110 -0.4124 -0.0000
vn 0.6466 -0.7628 -0.0000
vn 0.5150 -0.0046 0.8572
vn -0.4175 0.4875 -0.7668
vn -0.1505 0.6142 -0.7747
vn 0.0351 -0.0353 -0.9988
vn 0.0138 -0.0490 -0.9987
vn 0.4570 -0.5328 0.7122
vn 0.8859 -0.3257 0.3304
vn 0.0449 -0.0170 0.9988
vn -0.5957 0.2670 0.7576
vn -0.6533 0.7571 -0.0000
vn -0.5957 0.2670 -0.7576
vn 0.0449 -0.0170 -0.9988
vn 0.6464 -0.2894 -0.7060
vn 0.3451 -0.7237 -0.5977
vn -0.0000 0.8120 -0.5837
vn -0.0000 -0.7237 -0.6901
vn 0.6464 -0.2894 0.7060
vn 0.7109 -0.0000 -0.7033
vn 0.0449 0.0170 0.9988
vn 0.0471 -0.0000 0.9989
vn -0.5957 -0.2670 0.7576
vn -0.6573 -0.0000 0.7536
vn -0.9136 -0.4065 -0.0000
vn -0.6573 -0.0000 -0.7536
vn -0.5957 -0.2670 -0.7576
vn 0.0471 -0.0000 -0.9989
vn -0.5774 -0.5774 0.5774
vn -0.5774 -0.5774 -0.5774
vn -0.7572 0.6532 -0.0000
vn -0.7572 -0.6532 -0.0000
vn -0.6533 -0.7571 -0.0000
vn 0.3346 -0.9223 -0.1932
vn -0.5058 -0.8627 -0.0000
vn 0.3864 -0.9223 -0.0000
vn -0.0000 -0.7764 -0.6303
vn 0.0766 0.6038 -0.7935
vn -0.0766 0.6038 0.7935
vn -0.0000 0.6100 0.7924
vn 0.3834 -0.0852 0.9196
vn 0.3834 0.0852 0.9196
vn -0.0138 0.0490 0.9987
vn 0.0138 0.0490 0.9987
vn -0.5774 0.5774 0.5774
vn 0.5774 0.5774 0.5774
vn -0.0000 0.5944 0.8042
vn -0.0000 0.6532 0.7572
vn -0.3786 -0.6532 0.6557
vn -0.0000 -0.6532 0.7572
vn 0.0351 0.0353 0.9988
vn -0.4175 -0.4875 0.7668
vn -0.0351 0.0353 -0.9988
vn 0.5000 -0.0000 0.8660
vn -0.0000 -0.0000 1.0000
vn 0.5000 -0.0000 -0.8660
vn 0.2113 0.5773 -0.7887
vn 0.2727 0.1818 -0.9448
vn 0.6047 0.0852 -0.7919
vn 0.2339 0.9438 0.2334
vn -0.3346 0.9223 -0.1932
vn -0.1932 0.9223 -0.3346
vn -0.5774 0.5774 -0.5774
vn -0.5490 0.5490 0.6303
vn 0.5490 0.5490 0.6303
vn 0.5490 0.5490 -0.6303
vn -0.0000 0.7764 -0.6303
vn -0.6557 -0.6532 0.3786
vn 0.8660 -0.0000 -0.5000
vn 0.3346 0.9223 -0.1932
vn -0.5058 0.8627 -0.0000
vn 0.3864 0.9223 -0.0000
vn 0.6818 0.1818 0.7086
vn -0.0000 -0.8627 0.5058
vn -0.7887 -0.5774 0.2113
vn -0.9881 -0.0852 -0.1278
vn -0.9545 -0.1818 0.2362
vn -0.3834 0.0852 -0.9196
vn -0.3834 -0.0852 -0.9196
vn 0.2113 -0.5774 -0.7887
vn 0.6047 -0.0852 -0.7919
vn 0.2727 -0.1818 -0.9448
vn -0.0000 0.9223 -0.3864
vn -0.0000 0.6532 -0.7572
vn 0.3786 -0.6532 -0.6557
vn -0.0000 -0.6532 -0.7572
vn -0.2529 -0.8627 -0.4380
vn -0.0000 -0.8627 -0.5058
vn -0.5000 -0.0000 0.8660
vn -0.4380 0.8627 0.2529
vn -0.8660 -0.0000 0.5000
vn 0.6862 -0.6100 -0.3962
vn -0.0000 -0.6100 0.7924
vn 0.3346 0.9223 0.1932
vn 0.6862 0.6100 -0.3962
vn 0.9881 -0.0852 -0.1278
vn 0.6818 -0.1818 0.7086
vn 0.6862 -0.6100 0.3962
vn 0.2727 -0.1818 0.9448
vn -0.6818 0.1818 0.7086
vn -0.6862 0.6100 0.3962
vn -0.2727 0.1818 0.9448
vn 0.6047 0.0852 0.7919
vn 0.6047 -0.0852 0.7919
vn 0.1932 -0.9223 -0.3346
vn -0.6862 -0.6100 0.3962
vn -0.9545 -0.1818 -0.2362
vn -0.3834 0.0852 0.9196
vn -0.3834 -0.0852 0.9196
vn -0.3786 0.6532 0.6557
vn -0.5774 0.5773 -0.5773
vn -0.6557 0.6532 0.3786
vn -0.9881 -0.0852 0.1278
vn -0.9881 0.0852 0.1278
vn -0.0000 -0.6100 -0.7924
vn 0.3834 0.0852 -0.9196
vn 0.3834 -0.0852 -0.9196
vn -0.6862 0.6100 -0.3962
vn -0.9881 0.0852 -0.1278
vn 0.6818 0.1818 -0.7086
vn -0.6818 -0.1818 -0.7086
vn -0.2727 -0.1818 -0.9448
vn 0.3786 0.6532 0.6557
vn 0.3786 -0.6532 0.6557
vn -0.6818 0.1818 -0.7086
vn -0.6047 -0.0852 0.7919
vn -0.6047 0.0852 0.7919
vn 0.6818 -0.1818 -0.7086
vn -0.7887 0.5774 0.2113
vn -0.9545 0.1818 0.2362
vn -0.2113 -0.5773 -0.7887
vn -0.2113 0.5773 -0.7887
vn 0.3786 0.6532 -0.6557
vn 0.6557 -0.6532 -0.3786
vn -0.9136 0.4065 -0.0000
vn 0.2529 0.8627 0.4380
vn -0.2727 -0.1818 0.9448
vn -0.2113 -0.5774 0.7887
vn -0.7887 -0.5774 -0.2113
vn -0.7887 0.5774 -0.2113
vn -0.2113 0.5773 0.7887
vn 0.4380 0.8627 0.2529
vn -0.6142 0.7049 0.3546
vn -0.0461 0.9957 0.0798
vn -0.3546 0.7049 0.6142
vn -0.6818 -0.1818 0.7086
vn -0.2529 -0.8627 0.4380
vn -0.5774 0.5773 0.5774
vn 0.7887 -0.5774 -0.2113
vn 0.9881 -0.0852 0.1278
vn 0.9545 -0.1818 -0.2362
vn 0.2113 -0.5774 0.7887
vn 0.7887 0.5774 -0.2113
vn 0.9545 0.1818 -0.2362
vn 0.2113 0.5773 0.7887
vn -0.1700 0.7539 -0.6346
vn 0.2529 0.8627 -0.4380
vn -0.3346 0.9223 0.1932
vn -0.5977 -0.7237 -0.3451
vn -0.4380 -0.8627 -0.2529
vn 0.5977 -0.7237 -0.3451
vn 0.5837 0.8120 -0.0000
vn 0.5055 0.8120 -0.2918
vn -0.2529 0.8627 -0.4380
vn -0.0000 0.8627 -0.5058
vn 0.6901 -0.7237 -0.0000
vn 0.5055 0.8120 0.2918
vn 0.3451 -0.7237 0.5977
vn 0.5977 -0.7237 0.3451
vn -0.4380 -0.8627 0.2529
vn -0.0000 0.8120 0.5837
vn 0.2918 0.8120 0.5055
vn -0.8660 -0.0000 -0.5000
vn 0.1932 0.9223 0.3346
vn -0.0000 0.9223 0.3864
vn -0.0000 -0.7237 0.6901
vn -0.2918 0.8120 0.5055
vn -0.5977 -0.7237 0.3451
vn -0.5055 0.8120 0.2918
vn -0.6901 -0.7237 -0.0000
vn -0.5837 0.8120 -0.0000
vn -0.6346 0.7539 0.1700
vn -0.0921 0.9957 -0.0000
vn -0.6142 0.7049 -0.3546
vn -0.0798 0.9957 -0.0461
vn -0.3451 -0.7237 -0.5977
vn -0.2918 0.8120 -0.5055
vn -0.4646 0.7539 -0.4646
vn -0.0000 0.7049 -0.7093
vn 0.0461 0.9957 -0.0798
vn -0.0000 0.9957 -0.0921
vn 0.3546 0.7049 0.6142
vn 0.7093 0.7049 -0.0000
vn 0.4002 -0.5994 -0.6932
vn -0.0000 -0.2614 -0.9652
vn 0.4826 -0.2614 -0.8359
vn 0.4646 0.7539 -0.4646
vn -0.2513 -0.2394 -0.9378
vn -0.0000 -0.5994 -0.8004
vn -0.4002 -0.5994 -0.6932
vn 0.6865 -0.2394 -0.6865
vn 0.5058 -0.8627 -0.0000
vn 0.4380 -0.8627 0.2529
vn -0.5055 0.8120 -0.2918
vn -0.4380 0.8627 -0.2529
vn 0.1932 -0.9223 0.3346
vn -0.0000 -0.9223 0.3864
vn 0.2529 -0.8627 -0.4380
vn 0.4380 -0.8627 -0.2529
vn -0.1932 0.9223 0.3346
vn 0.2727 0.1818 0.9448
vn -0.0000 0.9957 0.0921
vn -0.9378 -0.2394 0.2513
vn -0.8004 -0.5994 -0.0000
vn -0.6932 -0.5994 0.4002
vn -0.0798 0.9957 0.0461
vn -0.8359 -0.2614 -0.4826
vn -0.9652 -0.2614 -0.0000
vn -0.6932 -0.5994 -0.4002
vn -0.6865 -0.2394 -0.6865
vn 0.6557 0.6532 -0.3786
vn 0.7572 -0.6532 -0.0000
vn -0.0461 0.9957 -0.0798
vn 0.9881 0.0852 0.1278
vn 0.6862 0.6100 0.3962
vn 0.7572 0.6532 -0.0000
vn 0.6557 -0.6532 0.3786
vn -0.2727 0.1818 -0.9448
vn 0.6557 0.6532 0.3786
vn -0.9545 0.1818 -0.2362
vn -0.3346 -0.9223 0.1932
vn -0.3864 -0.9223 -0.0000
vn -0.4826 -0.2614 0.8359
vn -0.8359 -0.2614 0.4826
vn -0.1932 -0.9223 0.3346
vn 0.0798 0.9957 0.0461
vn 0.0921 0.9957 -0.0000
vn -0.3786 0.6532 -0.6557
vn 0.0461 0.9957 0.0798
vn -0.0000 -0.5994 0.8004
vn 0.4826 -0.2614 0.8359
vn -0.0000 -0.2614 0.9652
vn -0.0000 0.7049 0.7093
vn -0.4002 -0.5994 0.6932
vn 0.2918 0.8120 -0.5055
vn 0.8004 -0.5994 -0.0000
vn 0.8359 -0.2614 -0.4826
vn 0.9652 -0.2614 -0.0000
vn 0.5774 0.5773 0.5773
vn 0.0798 0.9957 -0.0461
vn 0.6142 0.7049 -0.3546
vn 0.6932 -0.5994 0.4002
vn 0.8359 -0.2614 0.4826
vn -0.6813 -0.6977 0.2214
vn -0.4931 -0.5442 0.6787
vn -0.4211 -0.6977 0.5795
vn -0.7979 -0.5442 0.2592
vn -0.6813 -0.6977 -0.2214
vn -0.7979 -0.5442 -0.2592
vn -0.3451 -0.7237 0.5977
vn 0.6813 -0.6977 0.2214
vn 0.4211 -0.6977 0.5795
vn -0.0000 0.6100 -0.7924
vn -0.0000 -0.5442 0.8389
vn -0.0000 -0.6977 0.7164
vn 0.7979 -0.5442 0.2592
vn 0.4931 -0.5442 0.6787
vn 0.6813 -0.6977 -0.2214
vn 0.4931 -0.5442 -0.6787
vn 0.7979 -0.5442 -0.2592
vn -0.4211 -0.6977 -0.5795
vn -0.0000 -0.5442 -0.8389
vn 0.4211 -0.6977 -0.5795
vn -0.0000 -0.6977 -0.7164
vn 0.4002 -0.5994 0.6932
vn -0.3391 0.6365 0.6927
vn -0.0000 0.7764 0.6303
vn -0.7093 0.7049 -0.0000
vn 0.3546 0.7049 -0.6142
vn -0.3546 0.7049 -0.6142
vn 0.6142 0.7049 0.3546
vn -0.4826 -0.2614 -0.8359
vn 0.6932 -0.5994 -0.4002
vn -0.4931 -0.5442 -0.6787
s 1
usemtl MVG_WinchHook_Ring
f 12//4 469//21 287//22
f 536//23 461//24 503//25
f 531//38 503//25 499//39
f 537//48 580//49 582//37
f 559//55 531//38 527//56
f 507//60 543//61 511//62
f 581//63 539//64 566//65
f 564//48 572//49 573//37
f 574//66 555//67 552//68
f 577//71 563//72 559//55
f 579//73 566//65 563//72
f 584//74 569//75 567//76
f 581//63 584//74 567//76
f 612//51 572//49 614//41
f 589//80 575//81 574//66
f 575//81 593//82 577//71
f 647//51 576//83 580//49
f 625//46 578//36 624//47
f 583//84 695//85 699//86
f 588//46 573//37 568//36
f 597//87 599//88 584//74
f 694//89 586//90 697//91
f 590//47 694//89 691//92
f 591//93 609//94 593//82
f 598//95 702//96 701//97
f 594//98 696//99 695//85
f 615//100 601//101 599//88
f 601//101 587//102 585//103
f 613//104 615//100 599//88
f 619//105 605//106 603//107
f 622//108 607//109 605//106
f 607//109 626//110 609//94
f 609//94 628//111 611//112
f 611//112 630//113 613//104
f 615//100 634//114 617//115
f 617//115 603//107 601//101
f 646//116 615//100 630//113
f 619//105 637//117 622//108
f 622//108 640//118 623//4
f 640//118 626//110 623//4
f 642//119 628//111 626//110
f 644//120 630//113 628//111
f 632//121 649//122 634//114
f 617//115 635//123 619//105
f 656//124 632//121 646//116
f 635//123 652//125 637//117
f 707//126 636//127 708//128
f 638//58 710//129 709//130
f 641//70 706//131 703//132
f 711//133 643//134 707//126
f 645//41 711//133 712//135
f 634//114 651//136 635//123
f 648//137 689//138 683//139
f 651//136 658//140 652//125
f 652//125 659//141 653//142
f 659//141 654//143 653//142
f 660//144 655//145 654//143
f 661//146 688//147 687//148
f 658//140 657//149 697//91
f 649//122 684//150 685//151
f 702//96 659//141 701//97
f 670//152 664//153 663//154
f 693//155 690//156 692//157
f 704//158 664//153 705//159
f 661//146 660//144 709//130
f 674//160 720//161 719//162
f 714//163 688//147 713//164
f 669//165 663//154 662//166
f 674//160 675//167 667//168
f 662//166 663//154 695//85
f 662//166 690//156 718//169
f 664//153 672//170 665//171
f 665//171 673//172 666//173
f 665//171 666//173 707//126
f 675//167 668//174 667//168
f 667//168 717//175 716//54
f 667//168 720//161 674//160
f 677//176 670//152 669//165
f 678//177 671//178 670//152
f 671//178 680//179 672//170
f 672//170 681//180 673//172
f 673//172 682//181 674//160
f 676//185 669//165 668//174
f 503//25 12//4 452//186
f 287//22 475//187 355//188
f 355//188 483//189 397//190
f 397//190 491//191 413//100
f 491//191 428//192 413//100
f 497//193 446//194 428//192
f 499//39 452//186 446//194
f 12//4 676//185 675//167
f 555//67 527//56 523//199
f 715//204 576//83 688//147
f 686//205 573//37 690//156
f 566//65 507//60 536//23
f 585//103 571//209 569//75
f 571//209 552//68 548//210
f 587//102 574//66 571//209
f 450//211 568//36 570//83
f 483//189 523//199 491//191
f 579//73 597//87 581//63
f 516//217 552//68 520//218
f 577//71 595//219 579//73
f 442//211 578//36 576//83
f 599//88 585//103 584//74
f 637//117 653//142 640//118
f 650//213 704//158 705//159
f 583//84 699//86 700//226
f 523//199 497//193 491//191
f 655//145 646//116 644//120
f 595//219 613//104 597//87
f 475//187 520//218 483//189
f 684//150 648//137 683//139
f 605//106 591//93 589//80
f 527//56 499//39 497//193
f 520//218 555//67 523//199
f 653//142 642//119 640//118
f 588//46 693//155 692//157
f 511//62 548//210 516//217
f 567//76 543//61 539//64
f 592//78 697//91 586//90
f 641//70 709//130 706//131
f 563//72 536//23 531//38
f 575//81 559//55 555//67
f 603//107 589//80 587//102
f 647//51 714//163 713//164
f 569//75 548//210 543//61
f 593//82 611//112 595//219
f 654//143 644//120 642//119
f 461//24 511//62 469//21
f 469//21 516//217 475//187
f 681//180 452//186 682//181
f 679//301 428//192 680//179
f 287//22 677//176 676//185
f 355//188 678//177 677//176
f 397//190 679//301 678//177
f 680//179 446//194 681//180
f 682//181 12//4 675//167
f 12//4 461//24 469//21
f 536//23 507//60 461//24
f 531//38 536//23 503//25
f 537//48 513//212 580//49
f 717//175 718//169 526//415
f 550//53 557//35 720//161
f 557//35 719//162 720//161
f 717//175 526//415 522//52
f 559//55 563//72 531//38
f 507//60 539//64 543//61
f 581//63 567//76 539//64
f 564//48 546//212 572//49
f 574//66 575//81 555//67
f 577//71 579//73 563//72
f 579//73 581//63 566//65
f 584//74 585//103 569//75
f 581//63 597//87 584//74
f 612//51 606//59 570//83
f 572//49 610//33 614//41
f 612//51 570//83 572//49
f 589//80 591//93 575//81
f 575//81 591//93 593//82
f 647//51 639//59 576//83
f 580//49 645//41 647//51
f 625//46 629//27 582//37
f 578//36 621//57 624//47
f 625//46 582//37 578//36
f 583//84 594//98 695//85
f 588//46 596//27 573//37
f 568//36 590//47 588//46
f 597//87 613//104 599//88
f 694//89 590//47 586//90
f 691//92 693//155 588//46
f 588//46 590//47 691//92
f 591//93 607//109 609//94
f 701//97 698//442 592//78
f 592//78 598//95 701//97
f 594//98 596//27 696//99
f 615//100 617//115 601//101
f 601//101 603//107 587//102
f 613//104 630//113 615//100
f 619//105 622//108 605//106
f 622//108 623//4 607//109
f 607//109 623//4 626//110
f 609//94 626//110 628//111
f 611//112 628//111 630//113
f 615//100 632//121 634//114
f 617//115 619//105 603//107
f 646//116 632//121 615//100
f 619//105 635//123 637//117
f 622//108 637//117 640//118
f 640//118 642//119 626//110
f 642//119 644//120 628//111
f 644//120 646//116 630//113
f 632//121 648//137 649//122
f 617//115 634//114 635//123
f 656//124 648//137 632//121
f 635//123 651//136 652//125
f 707//126 643//134 636//127
f 638//58 639//59 710//129
f 703//132 704//158 650//213
f 650//213 641//70 703//132
f 711//133 645//41 643//134
f 712//135 714//163 647//51
f 647//51 645//41 712//135
f 634//114 649//122 651//136
f 648//137 656//124 689//138
f 651//136 657//149 658//140
f 652//125 658//140 659//141
f 659//141 660//144 654//143
f 660//144 661//146 655//145
f 687//148 689//138 656//124
f 656//124 655//145 687//148
f 655//145 661//146 687//148
f 698//442 701//97 658//140
f 657//149 691//92 694//89
f 697//91 698//442 658//140
f 657//149 694//89 697//91
f 685//151 686//205 657//149
f 657//149 651//136 685//151
f 651//136 649//122 685//151
f 702//96 700//226 664//153
f 700//226 663//154 664//153
f 664//153 659//141 702//96
f 659//141 658//140 701//97
f 670//152 671//178 664//153
f 693//155 691//92 686//205
f 691//92 657//149 686//205
f 686//205 690//156 693//155
f 690//156 662//166 692//157
f 704//158 703//132 659//141
f 703//132 660//144 659//141
f 659//141 664//153 704//158
f 664//153 665//171 705//159
f 710//129 713//164 661//146
f 660//144 703//132 706//131
f 709//130 710//129 661//146
f 660//144 706//131 709//130
f 719//162 715//204 666//173
f 666//173 673//172 719//162
f 673//172 674//160 719//162
f 714//163 712//135 715//204
f 712//135 666//173 715//204
f 715//204 688//147 714//163
f 688//147 661//146 713//164
f 669//165 670//152 663//154
f 674//160 682//181 675//167
f 696//99 692//157 662//166
f 663//154 700//226 699//86
f 695//85 696//99 662//166
f 663//154 699//86 695//85
f 718//169 717//175 668//174
f 668//174 669//165 718//169
f 669//165 662//166 718//169
f 664//153 671//178 672//170
f 665//171 672//170 673//172
f 708//128 705//159 665//171
f 666//173 712//135 711//133
f 707//126 708//128 665//171
f 666//173 711//133 707//126
f 675//167 676//185 668//174
f 667//168 668//174 717//175
f 667//168 716//54 720//161
f 677//176 678//177 670//152
f 678//177 679//301 671//178
f 671//178 679//301 680//179
f 672//170 680//179 681//180
f 673//172 681//180 682//181
f 676//185 677//176 669//165
f 503//25 461//24 12//4
f 287//22 469//21 475//187
f 355//188 475//187 483//189
f 397//190 483//189 491//191
f 491//191 497//193 428//192
f 497//193 499//39 446//194
f 499//39 503//25 452//186
f 12//4 287//22 676//185
f 555//67 559//55 527//56
f 689//138 687//148 494//277
f 234//195 379//314 684//150
f 379//314 685//151 684//150
f 689//138 494//277 464//196
f 715//204 719//162 580//49
f 719//162 557//35 580//49
f 557//35 582//37 580//49
f 576//83 578//36 494//277
f 576//83 494//277 687//148
f 715//204 580//49 576//83
f 576//83 687//148 688//147
f 686//205 685//151 568//36
f 685//151 379//314 568//36
f 379//314 570//83 568//36
f 573//37 572//49 526//415
f 573//37 526//415 718//169
f 686//205 568//36 573//37
f 573//37 718//169 690//156
f 566//65 539//64 507//60
f 585//103 587//102 571//209
f 571//209 574//66 552//68
f 587//102 589//80 574//66
f 450//211 506//229 568//36
f 608//134 610//33 572//49
f 570//83 606//59 602//58
f 570//83 602//58 450//211
f 602//58 604//70 450//211
f 608//134 572//49 546//212
f 600//127 608//134 546//212
f 616//213 600//127 546//212
f 450//211 604//70 616//213
f 483//189 520//218 523//199
f 579//73 595//219 597//87
f 516//217 548//210 552//68
f 577//71 593//82 595//219
f 442//211 482//229 578//36
f 643//134 645//41 580//49
f 576//83 639//59 638//58
f 576//83 638//58 442//211
f 638//58 641//70 442//211
f 643//134 580//49 513//212
f 636//127 643//134 513//212
f 650//213 636//127 513//212
f 442//211 641//70 650//213
f 599//88 601//101 585//103
f 637//117 652//125 653//142
f 705//159 708//128 636//127
f 636//127 650//213 705//159
f 700//226 702//96 598//95
f 598//95 583//84 700//226
f 523//199 527//56 497//193
f 655//145 656//124 646//116
f 595//219 611//112 613//104
f 475//187 516//217 520//218
f 586//90 590//47 568//36
f 573//37 596//27 594//98
f 573//37 594//98 564//48
f 594//98 583//84 564//48
f 586//90 568//36 506//229
f 592//78 586//90 506//229
f 598//95 592//78 506//229
f 564//48 583//84 598//95
f 684//150 649//122 648//137
f 605//106 607//109 591//93
f 527//56 531//38 499//39
f 520//218 552//68 555//67
f 653//142 654//143 642//119
f 692//157 696//99 596//27
f 596//27 588//46 692//157
f 511//62 543//61 548//210
f 567//76 569//75 543//61
f 592//78 698//442 697//91
f 641//70 638//58 709//130
f 563//72 566//65 536//23
f 575//81 577//71 559//55
f 603//107 605//106 589//80
f 713//164 710//129 639//59
f 639//59 647//51 713//164
f 569//75 571//209 548//210
f 593//82 609//94 611//112
f 654//143 655//145 644//120
f 461//24 507//60 511//62
f 469//21 511//62 516//217
f 620//90 621//57 578//36
f 582//37 629//27 627//98
f 582//37 627//98 537//48
f 627//98 631//84 537//48
f 620//90 578//36 482//229
f 618//78 620//90 482//229
f 633//95 618//78 482//229
f 537//48 631//84 633//95
f 681//180 446//194 452//186
f 679//301 413//100 428//192
f 287//22 355//188 677//176
f 355//188 397//190 678//177
f 397//190 413//100 679//301
f 680//179 428//192 446//194
f 682//181 452//186 12//4
usemtl MVG_WinchHook_Yellow
f 479//29 485//30 477//31
f 472//197 477//31 467//198
f 448//214 453//215 444//216
f 444//216 460//234 477//31
f 255//250 315//251 156//252
f 455//276 460//234 453//215
f 466//278 467//198 460//234
f 436//289 444//216 431//290
f 340//299 372//300 315//251
f 394//387 402//388 372//300
f 410//392 415//393 402//388
f 421//395 431//290 415//393
f 410//392 340//299 489//404
f 489//404 156//252 485//30
f 479//29 489//404 485//30
f 472//197 479//29 477//31
f 448//214 455//276 453//215
f 477//31 485//30 156//252
f 156//252 315//251 372//300
f 372//300 402//388 415//393
f 415//393 431//290 444//216
f 444//216 453//215 460//234
f 460//234 467//198 477//31
f 372//300 415//393 444//216
f 255//250 340//299 315//251
f 455//276 466//278 460//234
f 466//278 472//197 467//198
f 436//289 448//214 444//216
f 340//299 394//387 372//300
f 394//387 410//392 402//388
f 410//392 421//395 415//393
f 421//395 436//289 431//290
f 489//404 479//29 472//197
f 472//197 466//278 455//276
f 455//276 448//214 436//289
f 436//289 421//395 410//392
f 410//392 394//387 340//299
f 340//299 255//250 489//404
f 455//276 436//289 410//392
f 489//404 255//250 156//252
usemtl MVG_WinchHook_Metal
f 47//1 19//2 13//3
f 306//4 292//5 290//6
f 367//7 358//8 356//9
f 409//10 399//11 398//12
f 425//13 416//14 414//15
f 430//16 478//17 476//18
f 447//19 481//20 478//17
f 474//26 629//27 495//28
f 502//32 610//33 488//34
f 557//35 578//36 582//37
f 517//40 614//41 502//32
f 463//42 510//43 508//44
f 529//45 625//46 624//47
f 533//50 612//51 517//40
f 522//52 550//53 716//54
f 529//45 624//47 621//57
f 533//50 602//58 606//59
f 553//69 604//70 602//58
f 542//77 618//78 562//79
f 723//182 745//183 722//184
f 550//53 234//195 464//196
f 464//196 234//195 683//139
f 248//200 237//201 235//202
f 509//203 629//27 625//46
f 391//200 382//201 380//202
f 456//206 532//207 534//208
f 546//212 450//211 616//213
f 513//212 442//211 650//213
f 419//220 409//10 407//221
f 327//11 341//15 329//222
f 458//223 468//224 473//225
f 435//227 425//13 424//228
f 506//229 564//48 598//95
f 565//230 616//213 604//70
f 616//213 457//231 600//127
f 423//232 633//95 631//84
f 326//233 618//78 633//95
f 327//11 318//235 316//236
f 373//237 387//236 376//238
f 403//212 535//239 534//208
f 427//9 417//240 416//14
f 434//241 504//242 501//243
f 445//196 498//244 496//245
f 454//246 471//247 470//248
f 267//249 258//222 256//11
f 482//229 537//48 633//95
f 199//253 157//15 176//254
f 251//255 242//256 239//257
f 463//42 238//258 451//259
f 159//238 148//6 142//260
f 238//258 473//225 279//261
f 480//262 279//261 481//20
f 538//263 400//264 556//265
f 541//266 462//267 519//268
f 400//264 561//269 560//270
f 401//222 416//14 404//271
f 501//243 459//272 530//273
f 451//259 545//274 544//275
f 195//249 186//222 183//11
f 494//277 550//53 464//196
f 524//279 462//267 525//280
f 141//281 486//282 484//283
f 465//284 504//242 505//285
f 487//286 279//261 468//224
f 493//287 463//42 514//288
f 457//231 608//134 600//127
f 458//223 470//248 468//224
f 430//16 476//18 480//262
f 430//16 481//20 447//19
f 458//223 471//247 454//246
f 449//229 492//291 498//244
f 462//267 515//292 518//293
f 484//283 426//53 490//294
f 445//196 496//245 493//287
f 426//53 486//282 440//48
f 439//7 429//8 427//9
f 449//229 493//287 492//291
f 506//229 546//212 564//48
f 482//229 513//212 537//48
f 438//295 500//296 505//285
f 314//297 514//288 508//44
f 434//241 500//296 438//295
f 314//297 510//43 412//298
f 438//295 504//242 434//241
f 440//48 486//282 487//286
f 432//6 422//302 419//220
f 401//222 391//200 389//235
f 515//292 521//303 418//304
f 388//305 525//280 408//306
f 408//306 530//273 388//305
f 418//304 519//268 420//307
f 422//302 411//249 409//10
f 433//308 424//228 422//302
f 403//212 532//207 395//52
f 366//309 736//310 351//311
f 396//255 409//10 398//12
f 544//275 350//195 540//312
f 350//195 545//274 378//211
f 395//52 535//239 403//212
f 416//14 406//313 404//271
f 379//314 572//49 570//83
f 383//257 373//237 371//100
f 318//235 307//202 306//4
f 369//315 547//316 554//317
f 560//270 305//318 556//265
f 384//319 554//317 551//320
f 305//318 561//269 335//321
f 398//12 387//236 385//256
f 347//220 337//10 336//221
f 722//184 745//183 775//322
f 126//323 83//324 79//1
f 741//325 103//201 89//326
f 224//326 179//13 199//253
f 726//327 754//328 751//329
f 231//238 215//6 211//260
f 251//255 265//10 253//12
f 227//15 257//330 232//331
f 727//332 755//333 754//328
f 281//13 272//14 270//15
f 280//228 270//15 267//249
f 731//334 755//333 729//335
f 346//253 301//15 319//254
f 322//336 299//100 310//201
f 731//334 757//337 759//338
f 348//339 330//330 323//13
f 333//340 311//221 309//341
f 734//342 762//343 757//337
f 343//14 334//313 332//271
f 762//343 737//344 766//345
f 341//15 332//271 329//222
f 364//227 353//13 352//228
f 347//220 361//308 349//302
f 739//346 764//347 767//348
f 384//319 547//316 369//315
f 380//202 368//326 363//5
f 741//325 764//347 739//346
f 387//236 377//4 376//238
f 740//349 386//350 742//351
f 743//352 772//353 774//354
f 88//355 724//356 721//357
f 387//236 401//222 389//235
f 396//255 385//256 383//257
f 351//311 321//358 269//359
f 177//360 746//361 747//362
f 726//327 751//329 752//363
f 776//364 78//365 390//366
f 177//360 747//362 749//367
f 164//368 432//6 441//369
f 62//237 770//370 54//371
f 131//372 113//254 111//373
f 143//8 125//221 133//240
f 167//257 158//237 155//100
f 39//4 202//1 53//3
f 293//374 189//235 244//375
f 216//6 206//302 203//220
f 219//5 237//201 224//326
f 242//256 231//238 230//237
f 253//12 243//236 242//256
f 232//331 196//376 191//323
f 319//254 252//222 293//374
f 272//14 262//313 260//271
f 275//220 289//308 278//302
f 289//308 280//228 278//302
f 253//12 267//249 256//11
f 302//237 316//236 303//238
f 305//318 558//377 556//265
f 311//221 342//372 317//373
f 324//255 313//256 312//257
f 329//222 320//200 318//235
f 323//13 304//331 301//15
f 368//326 323//13 346//253
f 733//378 351//311 736//310
f 558//377 335//321 561//269
f 339//249 353//13 341//15
f 356//9 345//240 343//14
f 336//221 325//12 324//255
f 382//201 348//339 368//326
f 360//6 380//202 363//5
f 768//379 374//380 362//381
f 366//309 740//349 738//382
f 361//308 352//228 349//302
f 382//201 383//257 371//100
f 769//383 374//380 763//384
f 389//235 380//202 377//4
f 541//266 378//211 545//274
f 381//385 769//383 773//386
f 406//313 383//257 393//336
f 386//350 744//389 742//351
f 388//305 530//273 524//279
f 404//271 393//336 391//200
f 532//207 538//263 395//52
f 384//319 551//320 549//390
f 417//240 396//255 406//313
f 411//249 401//222 399//11
f 443//391 547//316 549//390
f 565//230 533//50 502//32
f 429//8 407//221 417//240
f 424//228 414//15 411//249
f 412//298 510//43 512//394
f 420//307 515//292 418//304
f 408//306 525//280 528//396
f 441//369 419//220 429//8
f 423//232 627//98 474//26
f 437//339 427//9 425//13
f 426//53 487//286 490//294
f 518//293 420//307 519//268
f 244//375 39//4 164//368
f 53//3 218//324 110//2
f 218//324 124//100 110//2
f 124//100 241//397 151//398
f 241//397 164//368 151//398
f 52//15 42//323 40//222
f 105//368 116//235 18//4
f 291//227 45//100 294//339
f 722//184 75//253 64//254
f 761//399 68//257 765//400
f 100//331 122//340 104//341
f 220//227 22//100 221//339
f 127//10 120//11 117//12
f 133//240 731//334 143//8
f 173//373 152//374 146//401
f 185//330 166//341 161//331
f 171//236 186//222 174//235
f 184//222 132//1 116//235
f 247//254 184//222 222//374
f 203//220 194//10 192//221
f 219//5 199//253 197//372
f 205//339 230//237 208//371
f 215//6 235//202 219//5
f 208//371 187//340 185//330
f 271//253 227//15 247//254
f 245//235 235//202 233//4
f 554//317 238//258 476//18
f 241//397 293//374 244//375
f 260//271 250//336 248//200
f 239//257 230//237 228//100
f 298//326 254//13 271//253
f 270//15 260//271 258//222
f 290//6 268//372 263//220
f 275//220 265//10 264//221
f 269//359 730//402 728//403
f 311//221 285//401 277//255
f 283//9 297//369 286//8
f 317//373 293//374 285//401
f 307//202 298//326 292//5
f 299//100 282//371 276//339
f 730//402 321//358 732//405
f 316//236 306//4 303//238
f 330//330 309//341 304//331
f 307//202 322//336 310//201
f 328//406 758//407 760//408
f 299//100 313//256 302//237
f 334//313 312//257 322//336
f 412//298 514//288 314//297
f 342//372 319//254 317//373
f 332//271 322//336 320//200
f 733//378 321//358 331//409
f 325//12 316//236 313//256
f 334//313 336//221 324//255
f 474//26 509//203 542//77
f 344//410 760//408 761//399
f 330//330 357//260 333//340
f 357//260 338//220 333//340
f 337//10 327//11 325//12
f 358//8 336//221 345//240
f 360//6 342//372 338//220
f 353//13 343//14 341//15
f 363//5 346//253 342//372
f 362//381 761//399 765//400
f 337//10 352//228 339//249
f 370//369 347//220 358//8
f 378//211 540//312 350//195
f 365//339 356//9 353//13
f 373//237 357//260 354//371
f 376//238 360//6 357//260
f 371//100 354//371 348//339
f 116//235 33//3 18//4
f 132//1 63//2 33//3
f 144//324 67//100 63//2
f 160//257 98//398 67//100
f 98//398 172//375 105//368
f 359//6 33//3 361//308
f 59//368 288//6 297//369
f 28//323 745//183 748//411
f 35//15 776//364 44//13
f 54//371 770//370 774//354
f 64//254 723//182 722//184
f 73//235 27//3 3//4
f 112//375 119//222 73//235
f 80//339 96//237 82//371
f 91//220 760//408 758//407
f 134//253 95//15 113//254
f 739//346 114//336 103//201
f 104//341 81//255 74//376
f 176//254 119//222 152//374
f 127//10 140//228 129//249
f 131//372 154//326 134//253
f 165//201 137//339 154//326
f 148//6 163//202 150//5
f 736//310 129//249 733//378
f 158//237 171//236 159//238
f 174//235 163//202 162//4
f 167//257 181//12 169//256
f 181//12 171//236 169//256
f 186//222 175//200 174//235
f 179//13 161//331 157//15
f 201//240 180//255 190//313
f 186//222 200//14 188//271
f 188//271 201//240 190//313
f 194//10 207//228 195//249
f 209//13 200//14 198//15
f 205//339 185//330 179//13
f 237//201 205//339 224//326
f 221//339 212//9 209//13
f 223//7 213//8 212//9
f 273//376 229//257 218//324
f 266//412 750//413 753//414
f 217//308 207//228 206//302
f 250//336 228//100 237//201
f 231//238 245//235 233//4
f 257//330 236//341 232//331
f 526//415 234//195 522//52
f 261//340 240//221 236//341
f 229//257 285//401 241//397
f 262//313 239//257 250//336
f 256//11 245//235 243//236
f 245//235 260//271 248//200
f 268//372 247//254 246//373
f 269//359 725//416 249//417
f 263//220 246//373 240//221
f 274//240 251//255 262//313
f 276//339 257//330 254//13
f 282//371 261//340 257//330
f 304//331 273//376 259//323
f 284//260 263//220 261//340
f 301//15 259//323 252//222
f 286//8 264//221 274//240
f 295//418 753//414 756//419
f 292//5 271//253 268//372
f 272//14 286//8 274//240
f 273//376 311//221 277//255
f 265//10 280//228 267//249
f 297//369 275//220 286//8
f 291//227 281//13 280//228
f 281//13 296//7 283//9
f 302//237 284//260 282//371
f 303//238 290//6 284//260
f 298//326 299//100 276//339
f 112//375 3//4 59//368
f 79//1 34//2 27//3
f 83//324 45//100 34//2
f 94//257 48//398 45//100
f 101//397 59//368 48//398
f 102//308 754//328 755//333
f 9//4 217//308 216//6
f 217//308 19//2 220//227
f 778//420 20//421 779//422
f 23//423 777//424 26//425
f 361//308 63//2 364//227
f 41//235 13//3 9//4
f 56//331 43//376 42//323
f 48//398 297//369 296//7
f 769//383 60//100 51//339
f 70//330 57//341 56//331
f 60//100 763//384 768//379
f 41//235 72//323 47//1
f 113//254 65//222 90//374
f 119//222 79//1 73//235
f 743//352 89//326 75//253
f 96//237 85//260 82//371
f 744//389 88//355 721//357
f 80//339 70//330 66//13
f 107//256 97//238 96//237
f 146//401 112//375 101//397
f 115//255 107//256 106//257
f 109//236 736//310 738//382
f 123//313 737//344 735//426
f 118//13 100//331 95//15
f 134//253 137//339 118//13
f 142//260 128//220 122//340
f 734//342 123//313 735//426
f 129//249 732//405 733//378
f 191//323 144//324 132//1
f 157//15 126//323 119//222
f 147//308 140//228 138//302
f 732//405 149//227 730//402
f 731//334 153//369 143//8
f 150//5 165//201 154//326
f 151//398 441//369 439//7
f 155//100 139//371 137//339
f 178//336 155//100 165//201
f 171//236 162//4 159//238
f 204//255 170//397 160//257
f 175//200 165//201 163//202
f 166//341 193//220 168//221
f 190//313 167//257 178//336
f 214//401 172//375 170//397
f 173//373 199//253 176//254
f 188//271 178//336 175//200
f 782//427 295//418 784//428
f 193//220 173//373 168//221
f 194//10 183//11 181//12
f 443//391 182//429 462//267
f 227//15 191//323 184//222
f 211//260 193//220 187//340
f 252//222 202//1 189//235
f 192//221 181//12 180//255
f 213//8 192//221 201//240
f 195//249 209//13 198//15
f 236//341 204//255 196//376
f 212//9 201//240 200//14
f 259//323 218//324 202//1
f 215//6 197//372 193//220
f 226//369 203//220 213//8
f 220//227 209//13 207//228
f 208//371 231//238 211//260
f 724//356 249//417 725//416
f 214//401 247//254 222//374
f 240//221 214//401 204//255
f 37//368 216//6 226//369
f 16//430 784//428 786//431
f 50//324 22//100 19//2
f 22//100 58//397 32//398
f 32//398 61//375 37//368
f 10//432 784//428 14//433
f 6//4 147//308 145//6
f 10//432 783//434 782//427
f 727//332 153//369 729//335
f 6//4 30//1 7//3
f 25//222 38//331 28//323
f 725//416 43//376 724//356
f 32//398 226//369 223//7
f 46//330 772//353 775//322
f 40//222 30//1 24//235
f 49//374 52//15 40//222
f 43//376 721//357 724//356
f 44//13 773//386 51//339
f 74//376 55//257 50//324
f 90//374 41//235 61//375
f 53//3 435//227 433//308
f 721//357 71//340 744//389
f 87//401 61//375 58//397
f 95//15 72//323 65//222
f 66//13 56//331 52//15
f 75//253 80//339 66//13
f 85//260 744//389 71//340
f 100//331 74//376 72//323
f 760//408 76//255 761//399
f 67//100 367//7 365//339
f 103//201 80//339 89//326
f 130//376 94//257 83//324
f 93//302 757//337 86//10
f 99//6 758//407 756//419
f 81//255 111//373 87//401
f 740//349 109//236 738//382
f 98//398 370//369 367//7
f 122//340 108//221 104//341
f 92//100 107//256 96//237
f 123//313 106//257 114//336
f 108//221 131//372 111//373
f 435//227 124//100 437//339
f 133//240 115//255 123//313
f 107//256 120//11 109//236
f 222//374 116//235 172//375
f 137//339 121//330 118//13
f 139//371 122//340 121//330
f 437//339 151//398 439//7
f 125//221 117//12 115//255
f 161//331 130//376 126//323
f 128//220 150//5 131//372
f 166//341 136//255 130//376
f 135//220 147//308 138//302
f 135//220 127//10 125//221
f 153//369 135//220 143//8
f 158//237 142//260 139//371
f 141//281 498//244 182//429
f 196//376 160//257 144//324
f 168//221 146//401 136//255
f 7//3 149//227 147//308
f 30//1 11//2 7//3
f 728//403 31//324 725//416
f 22//100 223//7 221//339
f 36//375 6//4 21//368
f 1//4 102//308 99//6
f 5//435 783//434 8//436
f 15//235 4//3 1//4
f 15//235 750//413 749//367
f 105//368 359//6 370//369
f 20//421 786//431 779//422
f 25//222 746//361 35//15
f 42//323 31//324 30//1
f 780//437 26//425 777//424
f 723//182 36//375 726//327
f 39//4 433//308 432//6
f 44//13 38//331 35//15
f 45//100 296//7 294//339
f 72//323 50//324 47//1
f 51//339 46//330 44//13
f 75//253 52//15 64//254
f 81//255 58//397 55//257
f 60//100 54//371 51//339
f 69//256 766//345 767//348
f 63//2 365//339 364//227
f 68//257 62//237 60//100
f 82//371 71//340 70//330
f 76//255 69//256 68//257
f 374//380 777//424 778//420
f 84//221 77//12 76//255
f 742//351 97//238 740//349
f 87//401 113//254 90//374
f 91//220 86//10 84//221
f 114//336 92//100 103//201
f 136//255 101//397 94//257
f 99//6 93//302 91//220
f 753//414 99//6 756//419
f 754//328 17//1 751//329
f 8//436 14//433 20//421
f 288//6 27//3 289//308
f 21//368 145//6 153//369
f 61//375 9//4 37//368
f 11//2 730//402 149//227
f 25//222 17//1 15//235
f 28//323 748//411 752//363
f 726//327 21//368 727//332
f 49//374 24//235 36//375
f 27//3 291//227 289//308
f 2//438 781//439 5//435
f 2//438 780//437 785//440
f 15//235 753//414 750//413
f 308//441 756//419 758//407
f 93//302 755//333 759//338
f 69//256 762//343 766//345
f 757//337 77//12 86//10
f 47//1 50//324 19//2
f 306//4 307//202 292//5
f 367//7 370//369 358//8
f 409//10 411//249 399//11
f 425//13 427//9 416//14
f 430//16 447//19 478//17
f 474//26 627//98 629//27
f 614//41 610//33 502//32
f 610//33 608//134 488//34
f 557//35 494//277 578//36
f 517//40 612//51 614//41
f 463//42 465//284 510//43
f 529//45 509//203 625//46
f 533//50 606//59 612//51
f 550//53 720//161 716//54
f 716//54 717//175 522//52
f 620//90 542//77 621//57
f 542//77 529//45 621//57
f 533//50 553//69 602//58
f 553//69 565//230 604//70
f 542//77 620//90 618//78
f 723//182 748//411 745//183
f 550//53 522//52 234//195
f 234//195 684//150 683//139
f 683//139 689//138 464//196
f 248//200 250//336 237//201
f 509//203 495//28 629//27
f 391//200 393//336 382//201
f 456//206 451//259 532//207
f 419//220 422//302 409//10
f 327//11 339//249 341//15
f 435//227 437//339 425//13
f 565//230 405//443 616//213
f 616//213 405//443 457//231
f 423//232 326//233 633//95
f 326//233 562//79 618//78
f 477//31 156//252 444//216
f 156//252 372//300 444//216
f 327//11 329//222 318//235
f 373//237 385//256 387//236
f 427//9 429//8 417//240
f 445//196 449//229 498//244
f 267//249 270//15 258//222
f 199//253 179//13 157//15
f 251//255 253//12 242//256
f 451//259 459//272 463//42
f 463//42 141//281 238//258
f 238//258 400//264 451//259
f 159//238 162//4 148//6
f 238//258 471//247 473//225
f 480//262 238//258 279//261
f 558//377 561//269 443//391
f 443//391 456//206 535//239
f 456//206 534//208 535//239
f 558//377 443//391 535//239
f 538//263 532//207 451//259
f 558//377 535//239 538//263
f 400//264 560//270 556//265
f 556//265 558//377 538//263
f 538//263 451//259 400//264
f 521//303 515//292 459//272
f 459//272 451//259 540//312
f 451//259 544//275 540//312
f 521//303 459//272 540//312
f 541//266 545//274 456//206
f 521//303 540//312 541//266
f 462//267 518//293 519//268
f 519//268 521//303 541//266
f 541//266 456//206 462//267
f 400//264 443//391 561//269
f 401//222 414//15 416//14
f 528//396 525//280 462//267
f 462//267 465//284 500//296
f 465//284 505//285 500//296
f 528//396 462//267 500//296
f 501//243 504//242 463//42
f 528//396 500//296 501//243
f 459//272 524//279 530//273
f 530//273 528//396 501//243
f 501//243 463//42 459//272
f 451//259 456//206 545//274
f 195//249 198//15 186//222
f 494//277 557//35 550//53
f 524//279 459//272 462//267
f 141//281 182//429 486//282
f 465//284 463//42 504//242
f 470//248 471//247 238//258
f 238//258 141//281 490//294
f 141//281 484//283 490//294
f 470//248 238//258 490//294
f 487//286 486//282 182//429
f 470//248 490//294 487//286
f 279//261 473//225 468//224
f 468//224 470//248 487//286
f 487//286 182//429 279//261
f 512//394 510//43 465//284
f 465//284 182//429 492//291
f 182//429 498//244 492//291
f 512//394 465//284 492//291
f 493//287 496//245 141//281
f 512//394 492//291 493//287
f 463//42 508//44 514//288
f 514//288 512//394 493//287
f 493//287 141//281 463//42
f 457//231 488//34 608//134
f 458//223 454//246 470//248
f 430//16 480//262 481//20
f 458//223 473//225 471//247
f 462//267 459//272 515//292
f 426//53 484//283 486//282
f 439//7 441//369 429//8
f 449//229 445//196 493//287
f 506//229 450//211 546//212
f 482//229 442//211 513//212
f 434//241 501//243 500//296
f 314//297 508//44 510//43
f 438//295 505//285 504//242
f 432//6 433//308 422//302
f 401//222 404//271 391//200
f 388//305 524//279 525//280
f 408//306 528//396 530//273
f 418//304 521//303 519//268
f 422//302 424//228 411//249
f 433//308 435//227 424//228
f 403//212 534//208 532//207
f 366//309 738//382 736//310
f 396//255 407//221 409//10
f 350//195 544//275 545//274
f 395//52 538//263 535//239
f 416//14 417//240 406//313
f 379//314 526//415 572//49
f 383//257 385//256 373//237
f 318//235 320//200 307//202
f 384//319 369//315 554//317
f 305//318 560//270 561//269
f 398//12 399//11 387//236
f 347//220 349//302 337//10
f 775//322 772//353 743//352
f 743//352 722//184 775//322
f 126//323 130//376 83//324
f 741//325 739//346 103//201
f 224//326 205//339 179//13
f 726//327 727//332 754//328
f 231//238 233//4 215//6
f 251//255 264//221 265//10
f 227//15 254//13 257//330
f 727//332 729//335 755//333
f 281//13 283//9 272//14
f 280//228 281//13 270//15
f 731//334 759//338 755//333
f 346//253 323//13 301//15
f 322//336 312//257 299//100
f 731//334 734//342 757//337
f 348//339 354//371 330//330
f 333//340 338//220 311//221
f 734//342 735//426 762//343
f 343//14 345//240 334//313
f 762//343 735//426 737//344
f 341//15 343//14 332//271
f 364//227 365//339 353//13
f 347//220 359//6 361//308
f 767//348 766//345 737//344
f 737//344 739//346 767//348
f 384//319 549//390 547//316
f 380//202 382//201 368//326
f 741//325 770//370 764//347
f 387//236 389//235 377//4
f 740//349 375//444 386//350
f 774//354 770//370 741//325
f 741//325 743//352 774//354
f 88//355 210//445 724//356
f 387//236 399//11 401//222
f 396//255 398//12 385//256
f 392//446 386//350 375//444
f 375//444 366//309 351//311
f 351//311 331//409 321//358
f 321//358 300//447 269//359
f 269//359 249//417 210//445
f 210//445 88//355 269//359
f 88//355 392//446 269//359
f 392//446 375//444 269//359
f 375//444 351//311 269//359
f 177//360 78//365 746//361
f 748//411 723//182 752//363
f 723//182 726//327 752//363
f 390//366 771//448 776//364
f 776//364 746//361 78//365
f 749//367 750//413 225//449
f 225//449 177//360 749//367
f 164//368 39//4 432//6
f 62//237 764//347 770//370
f 131//372 134//253 113//254
f 143//8 135//220 125//221
f 167//257 169//256 158//237
f 39//4 189//235 202//1
f 293//374 252//222 189//235
f 216//6 217//308 206//302
f 219//5 235//202 237//201
f 242//256 243//236 231//238
f 253//12 256//11 243//236
f 232//331 236//341 196//376
f 319//254 301//15 252//222
f 272//14 274//240 262//313
f 275//220 288//6 289//308
f 289//308 291//227 280//228
f 253//12 265//10 267//249
f 302//237 313//256 316//236
f 305//318 335//321 558//377
f 311//221 338//220 342//372
f 324//255 325//12 313//256
f 329//222 332//271 320//200
f 323//13 330//330 304//331
f 368//326 348//339 323//13
f 733//378 331//409 351//311
f 339//249 352//228 353//13
f 356//9 358//8 345//240
f 336//221 337//10 325//12
f 382//201 371//100 348//339
f 360//6 377//4 380//202
f 362//381 765//400 768//379
f 768//379 763//384 374//380
f 366//309 375//444 740//349
f 361//308 364//227 352//228
f 382//201 393//336 383//257
f 769//383 381//385 374//380
f 389//235 391//200 380//202
f 773//386 771//448 390//366
f 390//366 381//385 773//386
f 406//313 396//255 383//257
f 386//350 392//446 744//389
f 404//271 406//313 393//336
f 417//240 407//221 396//255
f 411//249 414//15 401//222
f 443//391 400//264 547//316
f 502//32 488//34 457//231
f 457//231 405//443 565//230
f 565//230 553//69 533//50
f 533//50 517//40 502//32
f 502//32 457//231 565//230
f 429//8 419//220 407//221
f 424//228 425//13 414//15
f 420//307 518//293 515//292
f 441//369 432//6 419//220
f 423//232 631//84 627//98
f 437//339 439//7 427//9
f 426//53 440//48 487//286
f 244//375 189//235 39//4
f 53//3 202//1 218//324
f 218//324 229//257 124//100
f 124//100 229//257 241//397
f 241//397 244//375 164//368
f 52//15 56//331 42//323
f 105//368 172//375 116//235
f 291//227 34//2 45//100
f 722//184 743//352 75//253
f 761//399 76//255 68//257
f 100//331 121//330 122//340
f 220//227 19//2 22//100
f 127//10 129//249 120//11
f 133//240 734//342 731//334
f 173//373 176//254 152//374
f 185//330 187//340 166//341
f 171//236 183//11 186//222
f 184//222 191//323 132//1
f 247//254 227//15 184//222
f 203//220 206//302 194//10
f 219//5 224//326 199//253
f 205//339 228//100 230//237
f 215//6 233//4 235//202
f 208//371 211//260 187//340
f 271//253 254//13 227//15
f 245//235 248//200 235//202
f 478//17 481//20 279//261
f 279//261 443//391 551//320
f 443//391 549//390 551//320
f 478//17 279//261 551//320
f 554//317 547//316 400//264
f 478//17 551//320 554//317
f 238//258 480//262 476//18
f 476//18 478//17 554//317
f 554//317 400//264 238//258
f 241//397 285//401 293//374
f 260//271 262//313 250//336
f 239//257 242//256 230//237
f 298//326 276//339 254//13
f 270//15 272//14 260//271
f 290//6 292//5 268//372
f 275//220 278//302 265//10
f 269//359 300//447 730//402
f 489//404 472//197 410//392
f 472//197 455//276 410//392
f 311//221 317//373 285//401
f 283//9 296//7 297//369
f 317//373 319//254 293//374
f 307//202 310//201 298//326
f 299//100 302//237 282//371
f 730//402 300//447 321//358
f 316//236 318//235 306//4
f 330//330 333//340 309//341
f 307//202 320//200 322//336
f 328//406 308//441 758//407
f 299//100 312//257 313//256
f 334//313 324//255 312//257
f 412//298 512//394 514//288
f 342//372 346//253 319//254
f 332//271 334//313 322//336
f 733//378 732//405 321//358
f 325//12 327//11 316//236
f 334//313 345//240 336//221
f 542//77 562//79 326//233
f 326//233 423//232 542//77
f 423//232 474//26 542//77
f 474//26 495//28 509//203
f 509//203 529//45 542//77
f 344//410 328//406 760//408
f 330//330 354//371 357//260
f 357//260 360//6 338//220
f 337//10 339//249 327//11
f 358//8 347//220 336//221
f 360//6 363//5 342//372
f 353//13 356//9 343//14
f 363//5 368//326 346//253
f 362//381 344//410 761//399
f 337//10 349//302 352//228
f 370//369 359//6 347//220
f 378//211 541//266 540//312
f 365//339 367//7 356//9
f 373//237 376//238 357//260
f 376//238 377//4 360//6
f 371//100 373//237 354//371
f 116//235 132//1 33//3
f 132//1 144//324 63//2
f 144//324 160//257 67//100
f 160//257 170//397 98//398
f 98//398 170//397 172//375
f 359//6 18//4 33//3
f 59//368 3//4 288//6
f 28//323 38//331 745//183
f 746//361 776//364 35//15
f 776//364 771//448 44//13
f 774//354 772//353 46//330
f 46//330 54//371 774//354
f 64//254 49//374 723//182
f 73//235 79//1 27//3
f 112//375 152//374 119//222
f 80//339 92//100 96//237
f 91//220 84//221 760//408
f 134//253 118//13 95//15
f 739//346 737//344 114//336
f 104//341 108//221 81//255
f 176//254 157//15 119//222
f 127//10 138//302 140//228
f 131//372 150//5 154//326
f 165//201 155//100 137//339
f 148//6 162//4 163//202
f 736//310 120//11 129//249
f 158//237 169//256 171//236
f 174//235 175//200 163//202
f 167//257 180//255 181//12
f 181//12 183//11 171//236
f 186//222 188//271 175//200
f 179//13 185//330 161//331
f 201//240 192//221 180//255
f 186//222 198//15 200//14
f 188//271 200//14 201//240
f 194//10 206//302 207//228
f 209//13 212//9 200//14
f 205//339 208//371 185//330
f 237//201 228//100 205//339
f 221//339 223//7 212//9
f 223//7 226//369 213//8
f 273//376 277//255 229//257
f 266//412 225//449 750//413
f 217//308 220//227 207//228
f 250//336 239//257 228//100
f 231//238 243//236 245//235
f 257//330 261//340 236//341
f 526//415 379//314 234//195
f 261//340 263//220 240//221
f 229//257 277//255 285//401
f 262//313 251//255 239//257
f 256//11 258//222 245//235
f 245//235 258//222 260//271
f 268//372 271//253 247//254
f 269//359 728//403 725//416
f 263//220 268//372 246//373
f 274//240 264//221 251//255
f 276//339 282//371 257//330
f 282//371 284//260 261//340
f 304//331 309//341 273//376
f 284//260 290//6 263//220
f 301//15 304//331 259//323
f 286//8 275//220 264//221
f 295//418 266//412 753//414
f 292//5 298//326 271//253
f 272//14 283//9 286//8
f 273//376 309//341 311//221
f 265//10 278//302 280//228
f 297//369 288//6 275//220
f 291//227 294//339 281//13
f 281//13 294//339 296//7
f 302//237 303//238 284//260
f 303//238 306//4 290//6
f 298//326 310//201 299//100
f 112//375 73//235 3//4
f 79//1 83//324 34//2
f 83//324 94//257 45//100
f 94//257 101//397 48//398
f 101//397 112//375 59//368
f 102//308 4//3 754//328
f 9//4 13//3 217//308
f 217//308 13//3 19//2
f 778//420 23//423 20//421
f 23//423 778//420 777//424
f 361//308 33//3 63//2
f 41//235 47//1 13//3
f 56//331 57//341 43//376
f 48//398 59//368 297//369
f 769//383 763//384 60//100
f 70//330 71//340 57//341
f 768//379 765//400 68//257
f 68//257 60//100 768//379
f 41//235 65//222 72//323
f 113//254 95//15 65//222
f 119//222 126//323 79//1
f 743//352 741//325 89//326
f 96//237 97//238 85//260
f 744//389 392//446 88//355
f 80//339 82//371 70//330
f 107//256 109//236 97//238
f 146//401 152//374 112//375
f 115//255 117//12 107//256
f 109//236 120//11 736//310
f 123//313 114//336 737//344
f 118//13 121//330 100//331
f 134//253 154//326 137//339
f 142//260 148//6 128//220
f 734//342 133//240 123//313
f 129//249 140//228 732//405
f 191//323 196//376 144//324
f 157//15 161//331 126//323
f 147//308 149//227 140//228
f 732//405 140//228 149//227
f 731//334 729//335 153//369
f 150//5 163//202 165//201
f 151//398 164//368 441//369
f 155//100 158//237 139//371
f 178//336 167//257 155//100
f 171//236 174//235 162//4
f 204//255 214//401 170//397
f 175//200 178//336 165//201
f 166//341 187//340 193//220
f 190//313 180//255 167//257
f 214//401 222//374 172//375
f 173//373 197//372 199//253
f 188//271 190//313 178//336
f 783//434 781//439 225//449
f 781//439 177//360 225//449
f 225//449 266//412 783//434
f 783//434 266//412 782//427
f 266//412 295//418 782//427
f 295//418 308//441 784//428
f 193//220 197//372 173//373
f 194//10 195//249 183//11
f 462//267 456//206 443//391
f 443//391 279//261 182//429
f 182//429 465//284 462//267
f 227//15 232//331 191//323
f 211//260 215//6 193//220
f 252//222 259//323 202//1
f 192//221 194//10 181//12
f 213//8 203//220 192//221
f 195//249 207//228 209//13
f 236//341 240//221 204//255
f 212//9 213//8 201//240
f 259//323 273//376 218//324
f 215//6 219//5 197//372
f 226//369 216//6 203//220
f 220//227 221//339 209//13
f 208//371 230//237 231//238
f 724//356 210//445 249//417
f 214//401 246//373 247//254
f 240//221 246//373 214//401
f 37//368 9//4 216//6
f 16//430 14//433 784//428
f 50//324 55//257 22//100
f 22//100 55//257 58//397
f 32//398 58//397 61//375
f 10//432 782//427 784//428
f 6//4 7//3 147//308
f 10//432 8//436 783//434
f 727//332 21//368 153//369
f 6//4 24//235 30//1
f 25//222 35//15 38//331
f 725//416 31//324 43//376
f 32//398 37//368 226//369
f 775//322 745//183 38//331
f 38//331 46//330 775//322
f 40//222 42//323 30//1
f 49//374 64//254 52//15
f 43//376 57//341 721//357
f 771//448 773//386 44//13
f 773//386 769//383 51//339
f 74//376 81//255 55//257
f 90//374 65//222 41//235
f 53//3 110//2 435//227
f 721//357 57//341 71//340
f 87//401 90//374 61//375
f 95//15 100//331 72//323
f 66//13 70//330 56//331
f 75//253 89//326 80//339
f 85//260 742//351 744//389
f 100//331 104//341 74//376
f 760//408 84//221 76//255
f 67//100 98//398 367//7
f 103//201 92//100 80//339
f 130//376 136//255 94//257
f 93//302 759//338 757//337
f 99//6 91//220 758//407
f 81//255 108//221 111//373
f 740//349 97//238 109//236
f 98//398 105//368 370//369
f 122//340 128//220 108//221
f 92//100 106//257 107//256
f 123//313 115//255 106//257
f 108//221 128//220 131//372
f 435//227 110//2 124//100
f 133//240 125//221 115//255
f 107//256 117//12 120//11
f 222//374 184//222 116//235
f 137//339 139//371 121//330
f 139//371 142//260 122//340
f 437//339 124//100 151//398
f 125//221 127//10 117//12
f 161//331 166//341 130//376
f 128//220 148//6 150//5
f 166//341 168//221 136//255
f 135//220 145//6 147//308
f 135//220 138//302 127//10
f 153//369 145//6 135//220
f 158//237 159//238 142//260
f 141//281 496//245 498//244
f 196//376 204//255 160//257
f 168//221 173//373 146//401
f 7//3 11//2 149//227
f 30//1 31//324 11//2
f 728//403 11//2 31//324
f 22//100 32//398 223//7
f 36//375 24//235 6//4
f 1//4 4//3 102//308
f 5//435 781//439 783//434
f 15//235 17//1 4//3
f 749//367 747//362 25//222
f 25//222 15//235 749//367
f 105//368 18//4 359//6
f 20//421 16//430 786//431
f 25//222 747//362 746//361
f 42//323 43//376 31//324
f 780//437 29//450 26//425
f 723//182 49//374 36//375
f 39//4 53//3 433//308
f 44//13 46//330 38//331
f 45//100 48//398 296//7
f 72//323 74//376 50//324
f 51//339 54//371 46//330
f 75//253 66//13 52//15
f 81//255 87//401 58//397
f 60//100 62//237 54//371
f 767//348 764//347 62//237
f 62//237 69//256 767//348
f 63//2 67//100 365//339
f 68//257 69//256 62//237
f 82//371 85//260 71//340
f 76//255 77//12 69//256
f 786//431 784//428 308//441
f 308//441 328//406 786//431
f 328//406 344//410 786//431
f 786//431 344//410 779//422
f 344//410 362//381 779//422
f 362//381 374//380 778//420
f 779//422 362//381 778//420
f 374//380 381//385 777//424
f 381//385 390//366 780//437
f 390//366 78//365 785//440
f 78//365 177//360 785//440
f 390//366 785//440 780//437
f 177//360 781//439 785//440
f 381//385 780//437 777//424
f 84//221 86//10 77//12
f 742//351 85//260 97//238
f 87//401 111//373 113//254
f 91//220 93//302 86//10
f 114//336 106//257 92//100
f 136//255 146//401 101//397
f 99//6 102//308 93//302
f 753//414 1//4 99//6
f 754//328 4//3 17//1
f 26//425 29//450 2//438
f 2//438 5//435 26//425
f 5//435 8//436 26//425
f 8//436 10//432 14//433
f 14//433 16//430 20//421
f 20//421 23//423 8//436
f 23//423 26//425 8//436
f 288//6 3//4 27//3
f 21//368 6//4 145//6
f 61//375 41//235 9//4
f 11//2 728//403 730//402
f 25//222 28//323 17//1
f 752//363 751//329 17//1
f 17//1 28//323 752//363
f 726//327 36//375 21//368
f 49//374 40//222 24//235
f 27//3 34//2 291//227
f 2//438 785//440 781//439
f 2//438 29//450 780//437
f 15//235 1//4 753//414
f 308//441 295//418 756//419
f 93//302 102//308 755//333
f 69//256 77//12 762//343
f 757//337 762//343 77//12
